SplineFontDB: 1.0
FontName: DBThaiText
FullName: DBThaiText
FamilyName: DBThaiText
Weight: Medium
Copyright: Typeface (c) The Monotype Corporation plc. Data (c) The Monotype Corporation plc/Type Solutions Inc. 1990-1992. All Rights Reserved\n\nModified by TLWG
Version: 1.1 : May 12, 2003
ItalicAngle: 0
UnderlinePosition: -477
UnderlineWidth: 84
Ascent: 1638
Descent: 410
NeedsXUIDChange: 1
FSType: 0
PfmFamily: 33
TTFWeight: 500
TTFWidth: 5
Panose: 2 0 6 3 0 0 0 0 0 0
LineGap: 184
VLineGap: 0
ScriptLang: 3
 1 DFLT 1 dflt 
 1 thai 1 dflt 
 1 latn 1 dflt 
LangName: 1033 "" "" "" "PfaEdit : DBThaiText : 13-0-2003" 
Encoding: compacted
OldEncoding: iso8859_1
UnicodeInterp: none
DisplaySize: -72
AntiAlias: 1
FitToEm: 1
WinInfo: 128 8 2
BeginPrivate: 2
BlueValues 38 [-32 10 0 0 745 783 786 802 1011 1030]
OtherBlues 11 [-271 -269]
EndPrivate
TeXData: 1 10485760 0 295936 147968 98645 381440 -1048576 98645 783286 444596 497025 792723 393216 433062 380633 303038 157286 324010 404750 52429 2506097 1059062 262144
BeginChars: 290 257
StartChar: .notdef
Encoding: 0 -1 0
OldEncoding: 0
Width: 1090
Flags: W
HStem: -54 144<223 947> 1746 144<77 801>
VStem: 77 146<-54 1746> 801 146<90 1890>
Fore
77 -54 m 1
 77 1890 l 1
 947 1890 l 1
 947 -54 l 1
 77 -54 l 1
223 90 m 1
 801 90 l 1
 801 1746 l 1
 223 1746 l 1
 223 90 l 1
EndSplineSet
EndChar
StartChar: exclam
Encoding: 33 33 3
OldEncoding: 33
Width: 359
Flags: W
HStem: -0 21G<145 263> 991 20G<145 263>
VStem: 145 118<0 143 513 1011>
Fore
232 231 m 1
 175 231 l 1
 145 514 l 5
 145 1011 l 1
 263 1011 l 1
 263 514 l 1
 232 231 l 1
145 143 m 1
 263 143 l 1
 263 -0 l 1
 145 -0 l 1
 145 143 l 1
EndSplineSet
EndChar
StartChar: quotedbl
Encoding: 34 34 4
OldEncoding: 34
Width: 463
Flags: W
HStem: 991 20G<61 179 278 396>
VStem: 61 118<853 1011> 278 118<853 1011>
Fore
91 672 m 1
 61 854 l 1
 61 1011 l 5
 179 1011 l 1
 179 854 l 1
 148 672 l 1
 91 672 l 1
308 672 m 1
 278 854 l 1
 278 1011 l 1
 396 1011 l 1
 396 854 l 1
 365 672 l 1
 308 672 l 1
EndSplineSet
EndChar
StartChar: numbersign
Encoding: 35 35 5
OldEncoding: 35
Width: 728
Flags: W
HStem: -24 21G<62 166 342 446> 267 112<-26 113 243 393 523 662> 591 111<27 174 298 451 581 708> 591 382<243 451 521 708>
DStem: 113 267 222 267 62 -24 166 -24 174 591 280 591 134 379 243 379 243 973 349 973 192 702 298 702 393 267 499 267 342 -24 446 -24 451 591 560 591 414 379 523 379 521 973 629 973 472 702 581 702
Fore
243 973 m 1
 349 973 l 1
 298 702 l 1
 472 702 l 1
 521 973 l 1
 629 973 l 1
 581 702 l 1
 708 702 l 1
 708 591 l 1
 560 591 l 1
 523 379 l 1
 662 379 l 1
 662 267 l 1
 499 267 l 1
 446 -24 l 1
 342 -24 l 1
 393 267 l 1
 222 267 l 1
 166 -24 l 1
 62 -24 l 1
 113 267 l 1
 -26 267 l 1
 -26 379 l 1
 134 379 l 1
 174 591 l 1
 27 591 l 1
 27 702 l 1
 192 702 l 1
 243 973 l 1
280 591 m 1
 243 379 l 1
 414 379 l 1
 451 591 l 1
 280 591 l 1
EndSplineSet
EndChar
StartChar: dollar
Encoding: 36 36 6
OldEncoding: 36
Width: 728
Flags: W
VStem: 294 84<-168 -24 71 435 572 900 1001 1076> 557 119<247 281>
Fore
645 729 m 1
 534 729 l 1
 532 782 519 821 495 846 c 1
 469 882 431 900 378 900 c 1
 378 559 l 1
 455 537 508 519 539 504 c 1
 572 491 604 465 634 426 c 1
 662 387 676 334 676 268 c 0
 676 196 652 135 606 83 c 0
 559 31 508 -0 453 -9 c 2
 378 -24 l 1
 378 -168 l 1
 294 -168 l 1
 294 -26 l 1
 232 -13 186 -1 157 9 c 0
 122 22 87 51 53 97 c 1
 19 140 2 206 2 296 c 1
 108 296 l 1
 113 254 119 220 128 194 c 0
 134 168 151 143 176 120 c 1
 200 100 240 84 294 71 c 1
 294 448 l 1
 215 474 l 2
 185 483 159 495 137 508 c 1
 118 517 98 532 76 552 c 1
 40 598 23 665 23 751 c 1
 32 832 62 892 111 932 c 0
 158 970 219 994 294 1002 c 1
 294 1076 l 1
 378 1076 l 1
 378 1002 l 1
 456 994 519 969 567 927 c 0
 598 902 619 871 629 835 c 0
 640 798 645 762 645 729 c 1
294 572 m 1
 294 903 l 1
 252 900 215 886 183 859 c 1
 148 825 130 791 130 755 c 0
 128 708 142 668 174 634 c 0
 203 601 243 581 294 572 c 1
378 435 m 1
 378 73 l 1
 401 75 425 83 451 95 c 1
 478 104 503 124 525 152 c 0
 547 182 557 219 557 265 c 0
 557 320 541 358 508 379 c 0
 479 399 436 417 378 435 c 1
EndSplineSet
EndChar
StartChar: percent
Encoding: 37 37 7
OldEncoding: 37
Width: 1161
Flags: W
HStem: -25 97<885 898> 352 97<885 898> 480 97<207 225> 857 97<207 225>
VStem: -31 97<716 728> 348 97<716 728> 647 97<213 232> 1024 97<213 215>
DStem: 774 986 868 986 225 -25 320 -25
Fore
774 986 m 1
 868 986 l 1
 320 -25 l 1
 225 -25 l 1
 774 986 l 1
-31 716 m 0
 -31 782 -8 839 38 884 c 0
 87 931 143 954 207 954 c 0
 273 954 329 931 376 884 c 0
 422 838 445 782 445 716 c 0
 445 651 421 595 373 549 c 0
 327 503 272 480 207 480 c 0
 144 480 88 503 40 549 c 0
 -8 594 -31 650 -31 716 c 0
647 213 m 0
 647 279 670 335 716 380 c 0
 762 426 818 449 885 449 c 0
 928 449 967 439 1003 418 c 0
 1040 396 1069 367 1089 332 c 0
 1110 294 1121 255 1121 213 c 0
 1121 148 1098 92 1051 45 c 0
 1005 -2 949 -25 885 -25 c 0
 821 -25 765 -2 716 45 c 0
 670 91 647 147 647 213 c 0
66 716 m 0
 66 676 80 644 108 619 c 1
 135 591 168 577 207 577 c 0
 247 577 281 591 309 619 c 0
 335 645 348 678 348 716 c 0
 348 742 342 766 329 787 c 0
 317 809 300 826 278 838 c 0
 257 851 233 857 207 857 c 0
 167 857 134 844 108 818 c 0
 80 790 66 756 66 716 c 0
744 213 m 0
 744 173 758 139 786 114 c 1
 814 86 847 72 885 72 c 0
 922 72 955 86 985 114 c 1
 1011 142 1024 175 1024 213 c 0
 1024 252 1010 285 982 310 c 0
 954 338 922 352 885 352 c 0
 846 352 813 338 786 310 c 1
 758 286 744 253 744 213 c 0
EndSplineSet
EndChar
StartChar: ampersand
Encoding: 38 38 8
OldEncoding: 38
Width: 870
Flags: W
HStem: -30 112<293 321> 3 21G<676 829> 891 97<351 371>
VStem: 130 118<771 802> 482 116<774 787>
DStem: 303 469 404 529 526 191 586 304 590 105 658 213 676 3 829 3
Fore
829 3 m 1
 676 3 l 1
 590 105 l 1
 559 78 l 1
 547 66 531 53 510 38 c 0
 494 25 474 13 452 1 c 1
 396 -19 343 -30 294 -30 c 0
 239 -30 191 -17 148 8 c 0
 63 57 19 130 16 228 c 0
 14 289 26 342 54 387 c 0
 81 433 119 470 165 500 c 2
 237 549 l 1
 190 617 l 2
 150 675 130 726 130 772 c 0
 130 847 164 906 230 950 c 0
 269 976 315 988 369 988 c 0
 431 988 484 969 526 929 c 0
 574 883 598 831 598 774 c 0
 598 735 587 698 563 663 c 0
 538 622 509 593 477 575 c 1
 404 529 l 1
 586 304 l 1
 615 362 630 416 630 467 c 1
 742 467 l 1
 742 435 733 392 716 339 c 0
 700 290 681 248 658 213 c 1
 829 3 l 1
468 834 m 0
 462 852 449 866 429 876 c 1
 412 886 390 891 362 891 c 0
 333 891 308 884 287 869 c 0
 268 854 255 831 248 802 c 1
 248 755 254 724 265 707 c 0
 272 694 297 664 338 615 c 1
 371 627 403 646 433 672 c 0
 466 699 482 733 482 774 c 0
 482 793 477 813 468 834 c 0
526 191 m 1
 303 469 l 1
 252 436 l 2
 239 427 220 412 197 390 c 1
 180 370 165 347 153 321 c 0
 141 291 135 260 135 230 c 1
 139 200 157 168 188 133 c 0
 217 99 260 82 316 82 c 0
 350 82 383 89 413 103 c 0
 440 113 478 143 526 191 c 1
EndSplineSet
EndChar
StartChar: quotesingle
Encoding: 39 39 9
OldEncoding: 39
Width: 249
Flags: W
HStem: 991 20G<61 179>
VStem: 61 118<853 1011>
Fore
91 672 m 1
 61 854 l 1
 61 1011 l 5
 179 1011 l 1
 179 854 l 1
 148 672 l 1
 91 672 l 1
EndSplineSet
EndChar
StartChar: parenleft
Encoding: 40 40 10
OldEncoding: 40
Width: 433
Flags: W
HStem: 1008 20G<297 375>
VStem: 73 116<375 410>
Fore
297 1028 m 1
 375 1028 l 1
 307 912 259 800 232 690 c 0
 203 580 189 475 189 375 c 0
 189 277 203 173 232 63 c 0
 261 -51 308 -165 375 -279 c 1
 297 -279 l 1
 268 -239 239 -191 209 -136 c 0
 181 -85 157 -30 135 30 c 0
 120 75 104 134 88 209 c 0
 78 265 73 320 73 375 c 0
 73 447 83 524 103 607 c 0
 124 692 151 768 183 836 c 0
 220 914 258 978 297 1028 c 1
EndSplineSet
EndChar
StartChar: parenright
Encoding: 41 41 11
OldEncoding: 41
Width: 438
Flags: W
HStem: 1008 20G<30 106>
VStem: 217 115<375 410>
Fore
30 1028 m 1
 106 1028 l 1
 145 978 183 914 222 836 c 0
 251 777 278 700 303 604 c 0
 323 527 332 450 332 375 c 0
 332 298 323 222 303 147 c 0
 279 55 252 -22 222 -83 c 0
 181 -166 143 -232 106 -279 c 1
 30 -279 l 1
 76 -202 113 -124 140 -43 c 1
 168 32 189 106 201 178 c 0
 212 246 217 312 217 375 c 0
 217 428 214 476 208 519 c 0
 201 565 191 617 178 675 c 0
 162 737 143 796 120 852 c 0
 91 917 61 976 30 1028 c 1
EndSplineSet
EndChar
StartChar: asterisk
Encoding: 42 42 12
OldEncoding: 42
Width: 508
Flags: W
DStem: 173 764 236 720 78 641 146 592 192 990 277 990 197 835 272 835
Fore
25 808 m 1
 51 888 l 1
 197 835 l 1
 192 990 l 1
 277 990 l 1
 272 835 l 1
 416 886 l 1
 446 800 l 1
 296 764 l 1
 389 639 l 1
 321 590 l 1
 236 720 l 1
 146 592 l 1
 78 641 l 1
 173 764 l 1
 25 808 l 1
EndSplineSet
EndChar
StartChar: plus
Encoding: 43 43 13
OldEncoding: 43
Width: 762
Flags: W
HStem: 450 97<22 309 406 694>
VStem: 309 97<163 450 547 835>
Fore
309 835 m 5
 406 835 l 5
 406 547 l 5
 694 547 l 5
 694 450 l 5
 406 450 l 5
 406 163 l 5
 309 163 l 5
 309 450 l 5
 22 450 l 5
 22 547 l 5
 309 547 l 5
 309 835 l 5
EndSplineSet
EndChar
StartChar: comma
Encoding: 44 44 14
OldEncoding: 44
Width: 365
Flags: W
Fore
272 74 m 4
 272 9 254 -40 217 -75 c 5
 178 -108 137 -128 94 -134 c 5
 73 -134 62 -131 62 -123 c 4
 62 -119 64 -115 69 -111 c 5
 85 -105 109 -93 142 -72 c 4
 172 -53 189 -29 193 0 c 5
 175 -4 l 5
 150 -9 l 5
 89 -2 58 30 58 88 c 4
 58 115 66 138 83 157 c 4
 98 176 122 185 153 185 c 4
 230 185 270 148 272 74 c 4
EndSplineSet
EndChar
StartChar: hyphen
Encoding: 45 45 15
OldEncoding: 45
Width: 435
Flags: W
HStem: 347 102<38 367>
Fore
367 449 m 1
 367 347 l 1
 38 347 l 1
 38 449 l 1
 367 449 l 1
EndSplineSet
EndChar
StartChar: period
Encoding: 46 46 16
OldEncoding: 46
Width: 366
Flags: W
HStem: -47 20G<141 168.5>
Fore
55 72 m 4
 55 98 64 122 84 142 c 4
 104 162 128 171 154 171 c 4
 169 171 185 167 203 158 c 4
 218 149 230 136 239 121 c 4
 249 106 253 89 253 72 c 4
 253 46 243 23 223 3 c 5
 206 -17 183 -27 154 -27 c 4
 128 -27 104 -17 84 3 c 4
 64 23 55 46 55 72 c 4
EndSplineSet
EndChar
StartChar: slash
Encoding: 47 47 17
OldEncoding: 47
Width: 364
Flags: W
HStem: -17 21G<-33 42>
DStem: 296 996 371 996 -33 -17 42 -17
Fore
-33 -17 m 5
 296 996 l 5
 371 996 l 5
 42 -17 l 5
 -33 -17 l 5
EndSplineSet
EndChar
StartChar: zero
Encoding: 48 48 18
OldEncoding: 48
Width: 786
Flags: W
HStem: -11 116<368 378> 902 119<368 378>
VStem: 41 119<468 534> 575 119<468 534>
Fore
368 -11 m 0
 319 -11 271 1 226 25 c 0
 184 47 146 85 113 139 c 1
 88 184 70 241 57 310 c 0
 46 380 41 445 41 506 c 4
 41 569 46 635 57 704 c 0
 69 771 87 829 113 878 c 1
 144 926 182 962 226 986 c 0
 269 1010 317 1021 368 1021 c 0
 420 1021 468 1010 514 986 c 1
 560 960 596 924 622 878 c 0
 670 796 694 672 694 506 c 0
 694 341 670 219 622 139 c 1
 594 86 557 48 511 25 c 0
 464 1 416 -11 368 -11 c 0
368 105 m 0
 439 105 493 139 529 208 c 0
 536 220 544 242 553 274 c 1
 561 313 565 350 567 382 c 1
 572 423 575 464 575 504 c 0
 575 542 572 582 567 625 c 1
 565 660 561 697 553 733 c 0
 545 764 537 786 529 800 c 0
 494 868 440 902 368 902 c 0
 337 902 307 894 279 878 c 0
 249 860 225 834 207 800 c 0
 197 780 186 738 173 675 c 1
 164 608 160 551 160 504 c 0
 160 457 164 400 173 332 c 0
 183 274 194 233 207 208 c 0
 227 173 251 149 279 133 c 0
 310 114 340 105 368 105 c 0
EndSplineSet
EndChar
StartChar: one
Encoding: 49 49 19
OldEncoding: 49
Width: 768
Flags: W
HStem: -0 21G<362 481>
VStem: 362 119<0 999>
Fore
481 -0 m 5
 362 -0 l 5
 362 706 l 5
 135 706 l 5
 135 803 l 5
 202 811 252 821 285 833 c 4
 314 844 335 860 349 883 c 4
 365 911 381 949 399 999 c 5
 481 999 l 5
 481 -0 l 5
EndSplineSet
EndChar
StartChar: two
Encoding: 50 50 20
OldEncoding: 50
Width: 768
Flags: W
HStem: 0 116<153 688> 891 108<370 394>
Fore
497 410 m 6
 331 324 l 5
 291 301 254 272 220 238 c 4
 176 196 153 155 153 116 c 5
 688 116 l 5
 688 -0 l 5
 21 -0 l 5
 27 61 36 120 48 177 c 5
 59 212 82 251 117 293 c 4
 153 338 208 381 281 420 c 6
 433 507 l 6
 521 556 566 617 569 692 c 4
 571 729 561 766 539 803 c 4
 517 835 492 857 463 869 c 4
 432 884 400 891 370 891 c 4
 297 888 245 866 214 825 c 4
 184 782 167 725 164 653 c 5
 43 653 l 5
 45 712 55 767 71 819 c 4
 85 867 115 905 159 933 c 5
 191 960 226 977 262 986 c 4
 302 995 346 999 394 999 c 4
 476 996 543 973 594 930 c 4
 643 887 674 831 688 764 c 4
 694 736 697 715 697 700 c 4
 697 640 676 584 635 531 c 4
 592 475 546 435 497 410 c 6
EndSplineSet
EndChar
StartChar: three
Encoding: 51 51 21
OldEncoding: 51
Width: 768
Flags: W
HStem: -14 114<335 374> 908 111<348 377>
VStem: 548 127<733 754> 578 127<296 323>
Fore
36 310 m 5
 155 310 l 5
 163 257 l 5
 166 233 172 210 182 188 c 4
 194 162 212 143 235 130 c 5
 263 109 296 100 335 100 c 4
 491 97 573 160 578 290 c 5
 578 310 l 6
 578 370 559 414 520 440 c 4
 484 466 431 479 362 479 c 5
 304 476 l 5
 304 584 l 5
 394 587 457 598 493 617 c 4
 532 639 551 684 548 751 c 4
 548 815 529 857 490 878 c 4
 452 898 405 908 348 908 c 5
 306 899 272 888 248 872 c 4
 224 855 208 837 199 817 c 5
 189 797 182 774 179 748 c 5
 176 695 l 5
 60 698 l 5
 60 799 86 878 139 936 c 4
 190 991 264 1019 362 1019 c 4
 418 1019 470 1009 520 989 c 4
 569 968 606 936 633 894 c 4
 661 850 675 796 675 733 c 4
 675 684 665 646 644 620 c 4
 624 593 594 566 556 537 c 5
 611 514 650 482 673 443 c 4
 694 402 705 353 705 296 c 5
 708 242 692 186 656 127 c 4
 621 73 572 35 509 14 c 4
 459 -2 414 -12 374 -14 c 4
 357 -14 326 -11 282 -5 c 5
 196 14 136 50 102 102 c 4
 66 156 44 225 36 310 c 5
EndSplineSet
EndChar
StartChar: four
Encoding: 52 52 22
OldEncoding: 52
Width: 768
Flags: W
HStem: -0 21G<452 568> 235 116<131 452 568 715>
VStem: 452 116<0 235 351 999>
DStem: 478 999 452 800 21 368 131 351
Fore
452 235 m 5
 21 235 l 5
 21 368 l 5
 478 999 l 5
 568 999 l 5
 568 351 l 5
 715 351 l 5
 715 235 l 5
 568 235 l 5
 568 -0 l 5
 452 -0 l 5
 452 235 l 5
452 351 m 5
 452 800 l 5
 131 351 l 5
 452 351 l 5
EndSplineSet
EndChar
StartChar: five
Encoding: 53 53 23
OldEncoding: 53
Width: 768
Flags: W
HStem: -20 119<335 370> 555 116<335 371> 891 122<124 642>
VStem: 553 139<288 326>
DStem: 124 1013 223 891 46 468 182 614
Fore
159 468 m 5
 46 468 l 5
 124 1013 l 5
 642 1013 l 5
 642 891 l 5
 223 891 l 5
 182 614 l 5
 229 652 288 671 359 671 c 4
 406 671 450 665 492 650 c 4
 628 599 695 491 692 326 c 4
 689 263 671 202 637 140 c 5
 607 93 566 54 515 24 c 5
 480 7 432 -8 370 -20 c 5
 322 -20 276 -15 232 -3 c 4
 185 11 147 32 116 61 c 5
 86 84 66 108 55 132 c 5
 43 153 33 178 27 207 c 6
 16 257 l 5
 143 257 l 5
 156 219 178 182 209 146 c 5
 243 114 295 99 365 99 c 5
 479 114 542 177 553 288 c 5
 553 384 533 452 495 492 c 4
 455 534 406 555 349 555 c 4
 276 555 212 526 159 468 c 5
EndSplineSet
EndChar
StartChar: six
Encoding: 54 54 24
OldEncoding: 54
Width: 768
Flags: W
HStem: -11 108<353 372> 535 111<365 396> 762 21G<555 677> 908 114<393 420>
VStem: 34 114<532 566> 574 126<308 329>
Fore
677 762 m 5
 555 762 l 5
 555 801 543 832 518 855 c 4
 492 882 459 900 420 908 c 5
 315 908 242 865 201 778 c 4
 166 704 148 633 148 564 c 5
 153 529 l 5
 172 546 190 562 206 579 c 4
 221 594 236 605 253 612 c 4
 274 624 294 632 312 637 c 4
 330 643 356 646 389 646 c 4
 445 646 495 634 536 612 c 4
 578 589 613 560 639 524 c 4
 667 482 683 444 687 408 c 5
 696 388 700 361 700 327 c 4
 700 291 696 266 687 249 c 5
 679 195 660 151 629 117 c 5
 593 71 558 39 522 20 c 4
 479 -1 427 -11 367 -11 c 4
 319 -11 272 -0 225 22 c 4
 183 40 150 69 126 108 c 5
 85 162 59 222 48 286 c 4
 39 354 34 436 34 532 c 4
 34 616 46 692 68 759 c 4
 99 852 144 918 203 958 c 5
 262 1000 326 1022 394 1022 c 4
 469 1022 533 998 586 950 c 4
 612 926 633 900 650 870 c 4
 662 847 671 811 677 762 c 5
539 186 m 5
 562 217 574 259 574 310 c 4
 574 363 561 413 535 462 c 6
 531 468 l 6
 502 513 449 535 372 535 c 4
 341 535 312 528 286 516 c 4
 258 501 235 485 217 466 c 4
 182 430 164 383 164 327 c 4
 164 277 180 228 212 181 c 5
 253 125 307 97 372 97 c 4
 442 94 497 124 539 186 c 5
EndSplineSet
EndChar
StartChar: seven
Encoding: 55 55 25
OldEncoding: 55
Width: 768
Flags: W
HStem: -0 21G<160 294> 883 116<33 570>
Fore
33 883 m 5
 33 999 l 5
 701 999 l 5
 701 895 l 5
 590 737 l 5
 554 687 511 612 460 512 c 4
 378 356 323 185 294 -0 c 5
 160 -0 l 5
 192 128 219 222 241 283 c 4
 256 326 290 399 344 502 c 5
 474 726 l 5
 570 883 l 5
 33 883 l 5
EndSplineSet
EndChar
StartChar: eight
Encoding: 56 56 26
OldEncoding: 56
Width: 768
Flags: W
HStem: 490 105<337 358> 910 108<347 387>
VStem: 68 124<753 771> 543 124<753 771> 573 131<271 293>
Fore
172 960 m 4
 224 999 285 1018 356 1018 c 4
 442 1018 515 999 573 960 c 4
 599 944 623 914 643 870 c 4
 660 831 667 792 667 753 c 4
 667 699 655 657 629 629 c 5
 612 605 583 577 541 545 c 5
 572 540 607 512 646 463 c 4
 685 411 704 347 704 271 c 5
 691 183 650 110 579 53 c 5
 508 5 433 -17 351 -14 c 4
 322 -14 280 -6 227 11 c 4
 189 24 154 45 122 75 c 4
 66 123 36 188 34 271 c 4
 31 350 47 409 81 448 c 5
 92 474 129 507 192 545 c 5
 142 584 l 5
 114 612 l 5
 105 622 97 635 89 648 c 5
 75 680 68 715 68 753 c 4
 68 838 102 907 172 960 c 4
485 875 m 4
 458 899 420 910 369 910 c 4
 314 910 272 897 242 870 c 4
 209 842 192 803 192 753 c 4
 192 727 196 706 203 690 c 4
 226 627 275 595 349 595 c 4
 425 592 479 613 510 656 c 4
 532 687 543 719 543 753 c 4
 543 803 524 844 485 875 c 4
533 418 m 4
 488 469 429 493 358 490 c 5
 286 490 232 465 195 416 c 4
 170 383 158 340 158 286 c 5
 164 231 180 190 208 163 c 5
 231 137 278 117 349 102 c 5
 397 105 444 116 488 136 c 5
 545 173 573 225 573 291 c 4
 573 324 570 348 562 365 c 4
 553 390 543 407 533 418 c 4
EndSplineSet
EndChar
StartChar: nine
Encoding: 57 57 27
OldEncoding: 57
Width: 768
Flags: W
HStem: -14 119<319 358> 905 114<339 366>
VStem: 36 122<673 693>
Fore
52 241 m 5
 177 241 l 5
 177 208 191 178 218 152 c 4
 247 127 281 111 319 105 c 5
 422 105 493 145 532 225 c 5
 543 251 555 287 567 334 c 5
 578 387 583 422 583 440 c 5
 578 476 l 5
 550 439 514 409 470 384 c 4
 452 374 426 365 393 360 c 5
 285 365 l 5
 222 374 168 400 124 445 c 4
 82 488 55 538 41 595 c 5
 38 621 36 648 36 678 c 5
 41 762 l 5
 51 810 72 854 102 891 c 4
 144 941 181 974 213 991 c 5
 254 1009 305 1019 366 1019 c 4
 474 1022 555 981 609 897 c 5
 652 835 681 739 694 606 c 5
 697 516 l 5
 694 424 l 5
 692 374 682 315 665 246 c 4
 638 151 589 82 520 41 c 4
 475 14 421 -5 358 -14 c 5
 314 -14 271 -10 229 0 c 5
 193 12 163 30 139 53 c 4
 86 104 58 166 52 241 c 5
194 822 m 4
 170 790 158 747 158 693 c 4
 158 637 172 585 202 537 c 4
 234 487 287 463 360 465 c 4
 388 465 419 474 451 490 c 4
 479 503 500 520 515 540 c 5
 550 575 567 620 567 675 c 4
 567 729 551 780 520 828 c 4
 505 852 483 871 454 883 c 4
 425 898 395 905 363 905 c 4
 288 905 232 877 194 822 c 4
EndSplineSet
EndChar
StartChar: colon
Encoding: 58 58 28
OldEncoding: 58
Width: 363
Flags: W
HStem: -21 199<178 192> 562 200<178 192>
Fore
79 78 m 4
 79 105 89 128 109 148 c 4
 129 168 152 178 178 178 c 4
 197 178 213 173 227 164 c 5
 242 158 254 146 264 127 c 4
 273 111 277 95 277 78 c 4
 277 52 268 29 248 9 c 4
 227 -11 204 -21 178 -21 c 4
 152 -21 129 -11 109 9 c 4
 89 29 79 52 79 78 c 4
79 661 m 4
 79 690 89 714 109 734 c 4
 130 753 153 762 178 762 c 4
 204 762 228 753 250 734 c 5
 268 713 277 689 277 661 c 4
 277 635 268 612 248 593 c 4
 227 572 204 562 178 562 c 4
 152 562 129 572 109 593 c 4
 89 612 79 635 79 661 c 4
EndSplineSet
EndChar
StartChar: semicolon
Encoding: 59 59 29
OldEncoding: 59
Width: 365
Flags: W
HStem: 593 199<143 155>
Fore
282 73 m 4
 282 8 263 -42 224 -75 c 4
 187 -109 147 -129 104 -135 c 5
 82 -135 72 -132 72 -124 c 4
 72 -120 74 -116 78 -112 c 5
 93 -106 118 -94 153 -73 c 5
 185 -52 201 -28 204 -1 c 5
 185 -5 l 5
 160 -10 l 5
 98 -3 67 29 67 87 c 4
 67 114 75 137 92 156 c 4
 108 175 132 184 162 184 c 4
 240 184 279 147 282 73 c 4
43 693 m 4
 43 719 53 742 74 763 c 4
 93 783 116 792 143 792 c 4
 159 792 175 788 191 779 c 4
 210 769 223 757 229 742 c 5
 238 728 242 712 242 693 c 4
 242 667 232 644 213 624 c 4
 192 604 169 593 143 593 c 4
 116 593 93 604 74 624 c 4
 53 644 43 667 43 693 c 4
EndSplineSet
EndChar
StartChar: less
Encoding: 60 60 30
OldEncoding: 60
Width: 762
Flags: W
DStem: 16 450 146 499 694 163 694 274 694 835 694 723 16 548 146 499
Fore
694 835 m 5
 694 723 l 5
 146 499 l 5
 694 274 l 5
 694 163 l 5
 16 450 l 5
 16 548 l 5
 694 835 l 5
EndSplineSet
EndChar
StartChar: equal
Encoding: 61 61 31
OldEncoding: 61
Width: 762
Flags: W
HStem: 332 97<22 694> 568 97<22 694>
Fore
22 665 m 5
 694 665 l 5
 694 568 l 5
 22 568 l 5
 22 665 l 5
22 429 m 5
 694 429 l 5
 694 332 l 5
 22 332 l 5
 22 429 l 5
EndSplineSet
EndChar
StartChar: greater
Encoding: 62 62 32
OldEncoding: 62
Width: 762
Flags: W
DStem: 22 723 22 835 567 499 701 548 567 499 701 450 22 274 22 163
Fore
701 548 m 5
 701 450 l 5
 22 163 l 5
 22 274 l 5
 567 499 l 5
 22 723 l 5
 22 835 l 5
 701 548 l 5
EndSplineSet
EndChar
StartChar: question
Encoding: 63 63 33
OldEncoding: 63
Width: 726
Flags: W
HStem: -1 21G<287 415> 918 106<346 372>
VStem: 59 126<697 752> 287 128<-1 143 270 356> 534 125<750 767>
Fore
415 270 m 1
 287 270 l 1
 287 353 l 2
 287 394 299 431 324 462 c 0
 345 492 372 522 405 554 c 2
 409 557 l 1
 448 593 l 1
 483 628 l 1
 509 668 l 1
 526 707 534 740 534 765 c 0
 534 794 527 820 514 844 c 1
 496 868 475 887 453 900 c 1
 426 912 397 918 366 918 c 0
 321 918 285 909 258 893 c 0
 232 876 213 854 201 827 c 0
 190 804 185 779 185 752 c 1
 180 697 l 1
 59 697 l 1
 59 761 70 816 90 862 c 1
 107 910 140 948 189 978 c 1
 236 1009 297 1024 372 1024 c 1
 421 1022 l 1
 482 1015 530 996 565 966 c 0
 601 936 625 904 638 869 c 0
 652 830 659 793 659 758 c 0
 659 725 655 694 645 666 c 1
 634 622 583 560 492 478 c 0
 467 455 448 435 437 418 c 0
 422 398 415 370 415 335 c 2
 415 270 l 1
287 -1 m 1
 287 143 l 1
 415 143 l 1
 415 -1 l 1
 287 -1 l 1
EndSplineSet
EndChar
StartChar: at
Encoding: 64 64 34
OldEncoding: 64
Width: 1330
Flags: W
HStem: -193 104<575 636> 85 97<866 902> 92 88<507 549> 633 102<623 657>
VStem: -32 120<366 404> 285 127<344 352>
Fore
961 702 m 1
 827 287 l 2
 821 268 818 254 818 245 c 0
 818 233 821 220 829 207 c 0
 841 191 865 182 902 182 c 1
 944 192 979 209 1007 233 c 0
 1038 260 1061 286 1076 311 c 0
 1113 376 1132 455 1132 548 c 1
 1125 585 1111 626 1090 669 c 0
 1071 710 1048 745 1021 772 c 0
 995 800 952 830 893 861 c 0
 833 891 775 912 718 923 c 0
 690 927 662 930 634 930 c 0
 570 930 510 918 454 895 c 0
 403 875 353 846 303 807 c 1
 255 768 213 720 176 664 c 0
 140 607 117 561 107 525 c 0
 94 475 88 432 88 395 c 0
 88 320 104 246 136 175 c 0
 156 134 192 93 244 50 c 1
 298 4 355 -32 414 -56 c 0
 467 -78 529 -89 599 -89 c 0
 684 -89 775 -72 873 -40 c 1
 912 -133 l 1
 802 -173 697 -193 597 -193 c 0
 523 -193 449 -181 377 -159 c 1
 323 -139 259 -104 185 -54 c 0
 112 -3 59 55 25 119 c 0
 -13 194 -32 280 -32 377 c 0
 -32 428 -26 474 -14 515 c 0
 8 587 39 655 76 719 c 1
 119 788 175 847 244 897 c 0
 278 923 319 947 366 969 c 1
 418 991 468 1007 518 1018 c 0
 578 1030 633 1036 685 1034 c 0
 751 1031 828 1012 917 976 c 0
 995 943 1062 896 1118 835 c 1
 1160 786 1188 743 1204 705 c 0
 1228 648 1240 598 1240 554 c 0
 1242 494 1237 443 1224 402 c 0
 1214 369 1198 331 1176 289 c 0
 1157 252 1131 215 1099 180 c 0
 1064 141 1021 114 970 99 c 0
 942 90 908 85 866 85 c 0
 834 85 812 88 798 92 c 0
 772 99 751 113 736 134 c 1
 720 153 710 171 708 189 c 1
 681 161 l 2
 673 152 661 142 644 131 c 0
 628 119 608 110 581 104 c 0
 557 96 532 92 507 92 c 0
 479 92 454 97 431 106 c 0
 393 121 365 141 347 166 c 1
 329 188 314 215 301 247 c 0
 291 276 285 308 285 344 c 0
 285 375 288 402 294 426 c 0
 321 531 374 613 454 671 c 0
 511 714 574 735 644 735 c 0
 662 735 679 733 694 728 c 0
 721 720 748 704 773 680 c 1
 794 654 808 631 815 610 c 1
 845 702 l 1
 961 702 l 1
763 534 m 1
 761 560 754 580 743 594 c 0
 730 609 709 620 681 627 c 1
 670 631 656 633 639 633 c 0
 606 633 574 624 544 605 c 0
 515 587 492 566 474 541 c 0
 457 517 443 485 431 446 c 0
 418 410 412 376 412 344 c 0
 412 301 424 264 449 233 c 1
 474 198 507 180 549 180 c 1
 584 185 l 1
 626 197 661 226 690 272 c 1
 706 295 723 336 741 393 c 0
 756 449 763 496 763 534 c 1
EndSplineSet
EndChar
StartChar: A
Encoding: 65 65 35
OldEncoding: 65
Width: 889
Flags: W
HStem: -0 21G<-12 127 727 873> 303 110<270 623> 991 20G<356 516>
DStem: 356 1011 435 854 -12 -0 270 413 356 1011 237 303 -12 -0 127 -0 623 303 516 1011 727 -0 873 -0
Fore
237 303 m 1
 127 -0 l 1
 -12 -0 l 1
 356 1011 l 1
 516 1011 l 1
 873 -0 l 1
 727 -0 l 1
 623 303 l 1
 237 303 l 1
435 854 m 1
 270 413 l 1
 586 413 l 1
 435 854 l 1
EndSplineSet
EndChar
StartChar: B
Encoding: 66 66 36
OldEncoding: 66
Width: 869
Flags: W
HStem: 0 115<184 553> 463 115<184 469> 898 113<52 441>
VStem: 52 132<0 463 0 898> 631 132<764 789> 680 130<273 320>
Fore
553 -0 m 2
 52 -0 l 1
 52 1011 l 1
 502 1011 l 2
 541 1011 576 1003 608 987 c 0
 644 971 673 951 697 928 c 0
 734 892 756 846 763 789 c 1
 763 657 721 573 636 537 c 1
 684 514 l 1
 703 503 721 489 737 472 c 0
 758 451 776 425 789 395 c 0
 803 365 810 325 810 273 c 0
 808 211 791 161 761 123 c 0
 729 82 695 52 657 33 c 0
 617 11 582 -0 553 -0 c 2
184 898 m 1
 184 578 l 1
 454 578 l 2
 522 578 569 595 594 627 c 0
 619 660 631 706 631 766 c 1
 624 815 597 850 549 870 c 1
 498 889 455 898 421 898 c 2
 184 898 l 1
184 463 m 1
 184 115 l 1
 511 115 l 2
 571 115 613 135 638 174 c 1
 666 212 680 260 680 320 c 1
 673 376 650 415 611 435 c 1
 569 454 512 463 439 463 c 2
 184 463 l 1
EndSplineSet
EndChar
StartChar: C
Encoding: 67 67 37
OldEncoding: 67
Width: 943
Flags: W
HStem: -32 119<440 474> 913 118<440 474>
VStem: 9 132<498 529>
Fore
863 699 m 1
 729 699 l 1
 712 745 691 784 666 815 c 0
 650 837 630 855 607 869 c 0
 577 887 553 898 534 904 c 0
 514 910 489 913 459 913 c 0
 419 913 378 904 338 887 c 0
 299 871 266 847 238 815 c 1
 205 774 181 728 167 676 c 0
 150 618 141 558 141 498 c 0
 141 444 150 387 169 325 c 0
 188 265 211 218 238 184 c 0
 291 119 364 87 459 87 c 0
 547 87 616 119 666 184 c 0
 684 206 700 233 715 267 c 0
 732 304 744 338 750 371 c 1
 881 371 l 1
 861 247 811 147 731 72 c 0
 706 49 668 26 616 3 c 0
 561 -20 506 -32 452 -32 c 0
 397 -32 342 -20 287 3 c 0
 234 23 195 46 169 72 c 0
 112 128 71 193 46 267 c 0
 21 343 9 420 9 498 c 0
 9 578 21 656 46 732 c 0
 72 807 113 872 169 926 c 1
 193 951 232 974 287 996 c 0
 346 1019 401 1031 452 1031 c 0
 502 1031 557 1019 616 996 c 0
 668 975 707 952 731 926 c 1
 788 874 832 798 863 699 c 1
EndSplineSet
EndChar
StartChar: D
Encoding: 68 68 38
OldEncoding: 68
Width: 940
Flags: W
HStem: 0 115<194 525> 898 113<63 464>
VStem: 63 131<0 898>
Fore
525 -0 m 2
 63 -0 l 1
 63 1011 l 1
 454 1011 l 2
 562 1011 654 975 731 903 c 1
 808 827 852 726 861 599 c 0
 864 568 865 535 865 502 c 0
 865 355 830 238 759 150 c 0
 719 99 677 62 634 39 c 1
 589 13 553 -0 525 -0 c 2
441 898 m 2
 194 898 l 1
 194 115 l 1
 476 115 l 2
 510 115 545 122 580 137 c 0
 600 145 625 167 655 203 c 0
 681 236 698 267 706 296 c 0
 723 372 733 441 736 502 c 1
 739 613 720 702 680 768 c 0
 626 855 547 898 441 898 c 2
EndSplineSet
EndChar
StartChar: E
Encoding: 69 69 39
OldEncoding: 69
Width: 869
Flags: W
HStem: 0 115<198 796> 463 115<198 749> 898 113<69 772>
VStem: 69 129<0 463 0 898>
Fore
69 -0 m 1
 69 1011 l 1
 772 1011 l 1
 772 898 l 1
 198 898 l 1
 198 578 l 1
 749 578 l 1
 749 463 l 1
 198 463 l 1
 198 115 l 1
 796 115 l 1
 796 -0 l 1
 69 -0 l 1
EndSplineSet
EndChar
StartChar: F
Encoding: 70 70 40
OldEncoding: 70
Width: 795
Flags: W
HStem: -0 21G<72 201> 463 115<201 682> 898 113<72 750>
VStem: 72 129<0 463 0 898>
Fore
72 -0 m 1
 72 1011 l 1
 750 1011 l 1
 750 898 l 1
 201 898 l 1
 201 578 l 1
 682 578 l 1
 682 463 l 1
 201 463 l 1
 201 -0 l 1
 72 -0 l 1
EndSplineSet
EndChar
StartChar: G
Encoding: 71 71 41
OldEncoding: 71
Width: 1020
Flags: W
HStem: -32 114<454 492> -4 21G<841 923> 422 115<500 808> 913 118<490 513>
VStem: 0 132<496 525.142> 808 115<351 537>
Fore
500 422 m 1
 500 537 l 1
 923 537 l 1
 923 -4 l 1
 841 -4 l 1
 810 120 l 1
 754 71 701 32 653 5 c 0
 607 -20 541 -32 454 -32 c 0
 411 -32 361 -21 304 1 c 0
 252 20 210 42 178 65 c 1
 120 115 74 180 42 262 c 1
 12 347 -2 425 -0 496 c 0
 -0 539 7 589 21 648 c 0
 33 703 52 754 77 800 c 0
 99 843 133 885 178 926 c 0
 209 952 253 976 308 996 c 0
 372 1019 433 1031 490 1031 c 0
 580 1033 652 1018 706 988 c 1
 782 950 834 906 861 857 c 0
 888 810 905 760 912 707 c 1
 785 707 l 1
 781 758 754 805 702 848 c 0
 649 891 578 913 490 913 c 0
 445 913 400 904 355 887 c 0
 309 870 271 846 243 815 c 0
 210 781 184 735 163 676 c 0
 142 622 132 562 132 496 c 0
 132 433 142 375 163 320 c 0
 183 262 210 215 243 179 c 0
 305 114 388 82 490 82 c 0
 562 82 621 98 667 131 c 0
 701 153 729 179 752 209 c 0
 774 236 788 263 794 290 c 1
 803 316 808 339 808 359 c 2
 808 422 l 1
 500 422 l 1
EndSplineSet
EndChar
StartChar: H
Encoding: 72 72 42
OldEncoding: 72
Width: 943
Flags: W
HStem: 463 115<187 706> 991 20G<57 187 706 836>
VStem: 57 130<0 463 0 1011> 706 130<0 1011>
Fore
706 -0 m 1
 706 463 l 1
 187 463 l 1
 187 -0 l 1
 57 -0 l 1
 57 1011 l 5
 187 1011 l 1
 187 578 l 1
 706 578 l 1
 706 1011 l 1
 836 1011 l 1
 836 -0 l 1
 706 -0 l 1
EndSplineSet
EndChar
StartChar: I
Encoding: 73 73 43
OldEncoding: 73
Width: 362
Flags: W
HStem: -0 21G<116 246> 991 20G<116 246>
VStem: 116 130<0 1011>
Fore
116 -0 m 1
 116 1011 l 1
 246 1011 l 1
 246 -0 l 1
 116 -0 l 1
EndSplineSet
EndChar
StartChar: J
Encoding: 74 74 44
OldEncoding: 74
Width: 658
Flags: W
HStem: -31 114<234 281.066> 993 20G<426 557>
VStem: -13 132<208 324> 426 131<288 1013>
Fore
-13 324 m 1
 119 324 l 1
 119 222 l 2
 119 184 130 155 150 134 c 1
 168 110 193 94 223 88 c 1
 261 83 l 1
 314 83 358 103 391 143 c 0
 414 172 426 233 426 326 c 2
 426 1013 l 1
 557 1013 l 1
 557 212 l 1
 543 121 501 52 430 6 c 0
 387 -21 322 -33 234 -31 c 0
 149 -29 87 1 46 57 c 0
 7 112 -13 165 -13 216 c 2
 -13 324 l 1
EndSplineSet
EndChar
StartChar: K
Encoding: 75 75 45
OldEncoding: 75
Width: 866
Flags: W
HStem: -0 21G<50 182 701 851> 991 20G<50 182 684 855>
VStem: 50 132<0 344 0 1011>
DStem: 348 509 436 599 701 -0 851 -0 684 1011 855 1011 182 512 436 599
Fore
50 1011 m 1
 182 1011 l 1
 182 512 l 1
 684 1011 l 1
 855 1011 l 1
 436 599 l 1
 851 -0 l 1
 701 -0 l 1
 348 509 l 1
 182 344 l 1
 182 -0 l 1
 50 -0 l 1
 50 1011 l 1
EndSplineSet
EndChar
StartChar: L
Encoding: 76 76 46
OldEncoding: 76
Width: 723
Flags: W
HStem: 0 115<191 691> 991 20G<62 192>
VStem: 62 130<0 1011>
Fore
62 1011 m 1
 192 1011 l 1
 192 115 l 1
 691 115 l 1
 691 -0 l 1
 62 -0 l 1
 62 1011 l 1
EndSplineSet
EndChar
StartChar: M
Encoding: 77 77 47
OldEncoding: 77
Width: 1090
Flags: W
HStem: -0 21G<37 171 447 581 856 990> 991 20G<37 222 806 990>
VStem: 37 134<0 821> 856 134<0 1011>
DStem: 171 821 222 1011 447 -0 514 150 806 1011 856 821 514 150 581 -0
Fore
581 -0 m 1
 447 -0 l 1
 171 821 l 1
 171 -0 l 1
 37 -0 l 1
 37 1011 l 1
 222 1011 l 1
 514 150 l 1
 806 1011 l 1
 990 1011 l 1
 990 -0 l 1
 856 -0 l 1
 856 821 l 1
 581 -0 l 1
EndSplineSet
EndChar
StartChar: N
Encoding: 78 78 48
OldEncoding: 78
Width: 943
Flags: W
HStem: -0 21G<48 178 690 840> 991 20G<48 201 708 840>
VStem: 48 130<0 810> 708 132<192 1011>
Fore
840 -0 m 1
 690 -0 l 1
 178 810 l 1
 178 -0 l 1
 48 -0 l 1
 48 1011 l 1
 201 1011 l 1
 708 192 l 1
 708 1011 l 1
 840 1011 l 1
 840 -0 l 1
EndSplineSet
EndChar
StartChar: O
Encoding: 79 79 49
OldEncoding: 79
Width: 1018
Flags: W
HStem: -32 119<479 504> 913 118<479 504>
VStem: -9 132<498 529> 836 131<498 529>
Fore
479 1031 m 0
 537 1031 598 1019 662 996 c 0
 723 974 766 950 790 926 c 1
 849 873 894 809 923 732 c 0
 952 659 967 581 967 498 c 0
 967 417 952 340 923 267 c 1
 896 191 852 126 790 72 c 0
 766 52 723 29 662 3 c 0
 603 -20 542 -32 479 -32 c 0
 419 -32 359 -20 298 3 c 0
 244 22 201 45 169 72 c 0
 108 125 63 191 35 267 c 1
 6 340 -9 417 -9 498 c 0
 -9 543 -3 594 9 650 c 0
 22 708 42 760 68 804 c 0
 90 845 123 885 169 926 c 0
 198 952 241 975 298 996 c 0
 364 1019 424 1031 479 1031 c 0
479 913 m 0
 435 913 390 904 345 887 c 0
 299 870 262 846 234 815 c 1
 202 784 175 737 152 676 c 1
 133 616 123 557 123 498 c 0
 123 435 133 376 152 323 c 0
 172 268 199 221 234 184 c 0
 293 119 375 87 479 87 c 0
 583 87 665 119 724 184 c 1
 758 218 785 264 806 323 c 0
 826 385 836 444 836 498 c 0
 836 554 826 614 806 676 c 0
 784 736 757 782 724 815 c 0
 693 849 656 872 616 887 c 0
 571 904 525 913 479 913 c 0
EndSplineSet
EndChar
StartChar: P
Encoding: 80 80 50
OldEncoding: 80
Width: 868
Flags: W
HStem: -0 21G<71 200> 428 115<200 538> 898 113<71 504>
VStem: 71 129<0 428 0 898>
Fore
71 -0 m 1
 71 1011 l 1
 494 1011 l 2
 571 1011 638 993 696 956 c 0
 751 920 785 856 798 766 c 1
 800 715 l 1
 800 621 771 550 714 502 c 0
 656 453 597 428 536 428 c 2
 200 428 l 1
 200 -0 l 1
 71 -0 l 1
200 898 m 1
 200 543 l 1
 531 543 l 2
 553 543 582 559 619 590 c 1
 654 622 670 669 668 731 c 0
 665 789 645 832 606 861 c 0
 571 886 533 898 491 898 c 2
 200 898 l 1
EndSplineSet
EndChar
StartChar: Q
Encoding: 81 81 51
OldEncoding: 81
Width: 1018
Flags: W
HStem: -29 119<479 488> 915 118<479 504>
VStem: -9 132<501 531> 836 131<501 531>
DStem: 539 209 602 288 642 127 729 187 746 41 824 110 889 -78 956 3
Fore
824 110 m 1
 956 3 l 1
 889 -78 l 1
 746 41 l 1
 659 -4 570 -27 479 -29 c 0
 419 -29 359 -18 298 6 c 0
 244 25 201 48 169 75 c 0
 108 128 63 193 35 270 c 1
 6 343 -9 420 -9 501 c 0
 -9 546 -3 597 9 653 c 0
 22 711 42 762 68 807 c 0
 90 848 123 888 169 929 c 0
 198 955 241 978 298 999 c 0
 364 1022 424 1033 479 1033 c 0
 537 1033 598 1022 662 999 c 0
 723 976 766 953 790 929 c 1
 849 876 894 811 923 735 c 0
 952 662 967 584 967 501 c 0
 967 428 956 358 933 288 c 0
 910 219 873 159 824 110 c 1
642 127 m 1
 539 209 l 1
 602 288 l 1
 729 187 l 1
 749 208 768 236 785 272 c 0
 803 311 816 347 824 381 c 0
 832 422 836 462 836 501 c 0
 836 557 826 617 806 679 c 0
 784 739 757 785 724 818 c 0
 693 851 656 875 616 889 c 0
 571 907 525 915 479 915 c 0
 435 915 390 907 345 889 c 0
 299 873 262 849 234 818 c 1
 202 787 175 740 152 679 c 1
 133 619 123 559 123 501 c 0
 123 437 133 379 152 326 c 0
 172 271 199 224 234 187 c 0
 293 122 375 90 479 90 c 0
 541 90 595 102 642 127 c 1
EndSplineSet
EndChar
StartChar: R
Encoding: 82 82 52
OldEncoding: 82
Width: 939
Flags: W
HStem: -0 21G<68 197 725 881> 435 115<197 549> 898 113<68 549>
VStem: 68 129<0 435 0 898> 695 131<241 257>
Fore
68 -0 m 1
 68 1011 l 1
 519 1011 l 2
 620 1011 697 995 751 963 c 0
 808 929 839 859 843 755 c 0
 846 689 836 640 815 607 c 1
 799 578 764 542 709 499 c 1
 762 468 795 438 806 409 c 0
 817 380 824 323 826 241 c 0
 829 171 833 124 839 99 c 0
 846 70 860 48 881 33 c 1
 881 -0 l 1
 725 -0 l 1
 713 28 703 70 695 128 c 1
 695 245 l 2
 695 302 684 349 663 386 c 0
 642 419 598 435 530 435 c 2
 197 435 l 1
 197 -0 l 1
 68 -0 l 1
524 898 m 2
 197 898 l 1
 197 550 l 1
 524 550 l 2
 637 550 700 601 711 704 c 1
 711 833 649 898 524 898 c 2
EndSplineSet
EndChar
StartChar: S
Encoding: 83 83 53
OldEncoding: 83
Width: 871
Flags: W
HStem: -32 119<410 443.784> 919 111<364 430>
VStem: 48 121<702 751> 650 125<718 739.593> 673 137<270 297>
Fore
775 718 m 1
 650 718 l 1
 650 788 620 842 560 880 c 0
 531 897 504 908 479 913 c 0
 454 917 424 919 391 919 c 0
 319 919 265 902 229 869 c 0
 189 833 169 794 169 751 c 0
 169 728 174 708 185 690 c 0
 195 673 212 657 234 641 c 1
 255 629 302 614 375 594 c 2
 386 591 l 2
 472 570 555 548 636 524 c 1
 682 507 722 477 757 433 c 0
 792 389 810 343 810 297 c 0
 812 230 795 172 759 120 c 0
 724 71 676 34 615 7 c 1
 549 -19 481 -32 410 -32 c 0
 335 -30 273 -20 224 -2 c 0
 172 16 127 48 88 96 c 0
 58 131 38 166 28 200 c 1
 20 234 15 275 13 323 c 1
 134 323 l 1
 134 275 148 227 176 181 c 1
 203 133 255 102 331 91 c 0
 358 88 402 87 463 87 c 1
 528 93 576 110 606 135 c 0
 651 173 673 218 673 270 c 0
 673 316 649 355 602 389 c 1
 563 409 492 430 388 454 c 0
 330 467 288 478 264 489 c 1
 183 517 l 1
 102 542 57 604 48 702 c 1
 48 763 61 820 88 871 c 0
 113 920 151 960 201 988 c 0
 251 1016 314 1030 388 1030 c 0
 494 1030 576 1012 634 977 c 0
 728 917 775 831 775 718 c 1
EndSplineSet
EndChar
StartChar: T
Encoding: 84 84 54
OldEncoding: 84
Width: 799
Flags: W
HStem: -0 21G<315 444> 898 113<-19 315 -19 775>
VStem: 315 129<0 898>
Fore
315 -0 m 1
 315 898 l 1
 -19 898 l 1
 -19 1011 l 1
 775 1011 l 1
 775 898 l 1
 444 898 l 1
 444 -0 l 1
 315 -0 l 1
EndSplineSet
EndChar
StartChar: U
Encoding: 85 85 55
OldEncoding: 85
Width: 942
Flags: W
HStem: -31 112<449 476> 993 20G<59 189 708 838>
VStem: 59 130<272 1013> 708 130<272 1013>
Fore
59 1013 m 1
 189 1013 l 1
 189 291 l 2
 189 241 210 193 251 147 c 0
 294 103 359 81 449 81 c 0
 538 81 603 103 646 147 c 0
 687 193 708 241 708 291 c 2
 708 1013 l 1
 838 1013 l 1
 838 284 l 2
 838 259 831 227 819 187 c 0
 807 151 786 116 756 83 c 0
 728 50 687 23 633 2 c 0
 579 -20 518 -31 449 -31 c 0
 355 -31 279 -14 222 20 c 0
 165 54 124 97 97 147 c 0
 72 196 59 242 59 284 c 2
 59 1013 l 1
EndSplineSet
EndChar
StartChar: V
Encoding: 86 86 56
OldEncoding: 86
Width: 871
Flags: W
HStem: -0 21G<346 485> 991 20G<-12 127 703 842>
DStem: -12 1011 127 1011 346 -0 421 155
Fore
421 155 m 1
 703 1011 l 1
 842 1011 l 1
 485 -0 l 1
 346 -0 l 1
 -12 1011 l 1
 127 1011 l 1
 421 155 l 1
EndSplineSet
EndChar
StartChar: W
Encoding: 87 87 57
OldEncoding: 87
Width: 1233
Flags: W
HStem: -0 21G<211 352 812 956> 991 20G<-45 100 512 653 1070 1213>
DStem: 512 1011 582 824 288 196 352 -0 582 824 653 1011 812 -0 878 196
Fore
878 196 m 1
 1070 1011 l 1
 1213 1011 l 1
 956 -0 l 1
 812 -0 l 1
 582 824 l 1
 352 -0 l 1
 211 -0 l 1
 -45 1011 l 1
 100 1011 l 1
 288 196 l 1
 512 1011 l 1
 653 1011 l 1
 878 196 l 1
EndSplineSet
EndChar
StartChar: X
Encoding: 88 88 58
OldEncoding: 88
Width: 871
Flags: W
HStem: -0 21G<-23 139 687 847> 991 20G<2 159 675 832>
DStem: 2 1011 159 1011 333 518 417 625 333 518 417 412 -23 -0 139 -0 675 1011 832 1011 417 625 494 518
Fore
832 1011 m 1
 494 518 l 1
 847 -0 l 1
 687 -0 l 1
 417 412 l 1
 139 -0 l 1
 -23 -0 l 1
 333 518 l 1
 2 1011 l 1
 159 1011 l 1
 417 625 l 1
 675 1011 l 1
 832 1011 l 1
EndSplineSet
EndChar
StartChar: Y
Encoding: 89 89 59
OldEncoding: 89
Width: 871
Flags: W
HStem: -0 21G<351 483> 991 20G<-36 125 705 865>
VStem: 351 132<0 395>
Fore
-36 1011 m 1
 125 1011 l 1
 416 521 l 1
 705 1011 l 1
 865 1011 l 1
 483 395 l 1
 483 -0 l 1
 351 -0 l 1
 351 395 l 1
 -36 1011 l 1
EndSplineSet
EndChar
StartChar: Z
Encoding: 90 90 60
OldEncoding: 90
Width: 799
Flags: W
HStem: 0 115<155 761> 898 113<32 594>
DStem: 594 898 759 894 -9 111 155 115
Fore
32 898 m 1
 32 1011 l 1
 759 1011 l 1
 759 894 l 1
 155 115 l 1
 761 115 l 1
 761 -0 l 1
 -9 -0 l 1
 -9 111 l 1
 594 898 l 1
 32 898 l 1
EndSplineSet
EndChar
StartChar: bracketleft
Encoding: 91 91 61
OldEncoding: 91
Width: 361
Flags: W
HStem: -279 104<181 322> 924 104<63 322>
VStem: 63 118<-279 924>
Fore
63 1028 m 1
 322 1028 l 1
 322 924 l 1
 181 924 l 1
 181 -175 l 1
 322 -175 l 1
 322 -279 l 1
 63 -279 l 1
 63 1028 l 1
EndSplineSet
EndChar
StartChar: backslash
Encoding: 92 92 62
OldEncoding: 92
Width: 364
Flags: W
HStem: -27 21G<296 371> 993 20G<-33 42>
DStem: -33 1013 42 1013 296 -27 371 -27
Fore
296 -27 m 1
 -33 1013 l 1
 42 1013 l 1
 371 -27 l 1
 296 -27 l 1
EndSplineSet
EndChar
StartChar: bracketright
Encoding: 93 93 63
OldEncoding: 93
Width: 367
Flags: W
HStem: -281 104<14 271> 924 104<14 153>
VStem: 153 118<-177 1028>
Fore
14 924 m 1
 14 1028 l 1
 271 1028 l 1
 271 -281 l 1
 14 -281 l 1
 14 -177 l 1
 153 -177 l 1
 153 924 l 1
 14 924 l 1
EndSplineSet
EndChar
StartChar: asciicircum
Encoding: 94 94 64
OldEncoding: 94
Width: 612
Flags: W
DStem: 238 965 287 847 23 438 120 438 287 847 340 965 455 438 552 438
Fore
23 438 m 1
 238 965 l 1
 340 965 l 1
 552 438 l 1
 455 438 l 1
 287 847 l 1
 120 438 l 1
 23 438 l 1
EndSplineSet
EndChar
StartChar: underscore
Encoding: 95 95 65
OldEncoding: 95
Width: 728
Flags: W
HStem: -161 69<-75 759>
Fore
759 -92 m 1
 759 -161 l 1
 -75 -161 l 1
 -75 -92 l 1
 759 -92 l 1
EndSplineSet
EndChar
StartChar: grave
Encoding: 96 96 66
OldEncoding: 96
Width: 374
Flags: W
HStem: 828 183<58 304>
Fore
304 828 m 1
 209 828 l 1
 58 1011 l 5
 215 1011 l 1
 304 828 l 1
EndSplineSet
EndChar
StartChar: a
Encoding: 97 97 67
OldEncoding: 97
Width: 726
Flags: W
VStem: 12 121<209 225> 493 123<223 613>
Fore
616 613 m 2
 616 125 l 2
 616 115 623 105 637 96 c 0
 651 88 671 83 696 83 c 1
 696 -1 l 1
 599 -16 l 1
 536 4 502 39 498 91 c 1
 451 54 414 29 387 14 c 0
 348 -6 307 -16 266 -16 c 0
 189 -18 127 2 79 45 c 0
 32 86 9 143 12 213 c 0
 12 264 27 306 58 341 c 1
 88 370 123 390 164 403 c 0
 194 413 227 421 261 426 c 0
 295 432 329 436 363 438 c 2
 435 445 l 1
 474 456 493 475 493 500 c 2
 493 589 l 5
 488 614 467 633 431 644 c 0
 389 658 343 664 292 662 c 0
 207 660 162 615 155 529 c 1
 47 529 l 1
 49 591 l 1
 56 620 70 647 91 672 c 0
 113 699 140 720 172 734 c 1
 196 747 239 758 301 767 c 1
 351 767 399 763 444 755 c 0
 497 743 538 725 568 702 c 0
 600 677 616 647 616 613 c 2
493 227 m 2
 493 373 l 1
 468 362 437 355 400 350 c 2
 290 332 l 1
 257 325 228 317 201 308 c 1
 186 300 170 288 155 271 c 0
 140 256 133 235 133 209 c 0
 133 167 145 136 169 116 c 0
 197 94 227 83 259 83 c 0
 301 81 342 91 382 112 c 0
 416 129 443 150 464 174 c 0
 483 199 493 216 493 227 c 2
EndSplineSet
EndChar
StartChar: b
Encoding: 98 98 68
OldEncoding: 98
Width: 726
Flags: W
HStem: -31 112<333 358> 2 21G<28 130> 633 119<345 371> 993 20G<28 146>
VStem: 28 115<2 372> 28 118<2 1013> 548 133<366 401.297>
Fore
28 1013 m 1
 146 1013 l 1
 146 642 l 1
 156 663 178 685 213 708 c 1
 240 722 263 733 283 740 c 0
 313 748 342 752 371 752 c 0
 455 752 526 721 583 659 c 0
 606 635 624 609 636 580 c 1
 654 547 665 515 671 483 c 0
 677 452 681 415 681 370 c 1
 678 317 l 1
 676 251 658 187 625 127 c 0
 593 66 552 24 500 -1 c 0
 460 -21 412 -31 356 -31 c 0
 303 -31 261 -21 232 -1 c 0
 180 34 146 62 130 83 c 1
 130 2 l 1
 28 2 l 1
 28 1013 l 1
486 147 m 0
 528 205 548 277 548 366 c 0
 548 408 544 446 535 481 c 0
 529 511 516 538 497 562 c 1
 467 612 416 636 345 633 c 0
 283 633 235 610 201 564 c 1
 186 540 172 510 162 476 c 0
 150 432 143 389 143 349 c 0
 143 278 161 215 195 159 c 0
 224 114 270 88 334 81 c 1
 404 81 455 103 486 147 c 0
EndSplineSet
EndChar
StartChar: c
Encoding: 99 99 69
OldEncoding: 99
Width: 689
Flags: W
HStem: -16 112<307 337> 660 107<325 350.284>
Fore
510 269 m 1
 622 269 l 1
 619 208 606 159 582 121 c 0
 556 77 519 43 469 19 c 0
 414 -7 361 -18 309 -16 c 0
 262 -16 211 -1 156 28 c 0
 109 54 75 92 52 140 c 0
 20 208 3 290 3 387 c 0
 6 497 40 590 107 666 c 1
 162 731 235 765 325 767 c 0
 368 767 406 761 441 750 c 0
 478 739 508 723 531 702 c 1
 558 686 579 660 593 624 c 0
 610 587 619 546 622 500 c 1
 505 500 l 1
 498 543 489 573 480 591 c 0
 467 611 451 627 429 637 c 0
 396 652 363 660 330 660 c 0
 276 657 228 632 187 584 c 0
 150 543 131 482 129 403 c 1
 124 317 133 252 156 207 c 0
 194 130 254 94 337 96 c 0
 365 96 393 104 423 121 c 0
 450 138 467 156 476 174 c 0
 494 209 505 241 510 269 c 1
EndSplineSet
EndChar
StartChar: d
Encoding: 100 100 70
OldEncoding: 100
Width: 731
Flags: W
HStem: -31 112<319 349> -1 21G<544 645> 631 121<303 329> 993 20G<530 645>
VStem: -4 128<362 397.362> 544 101<-1 1013>
Fore
530 1013 m 1
 645 1013 l 1
 645 -1 l 1
 544 -1 l 1
 544 85 l 1
 512 48 479 18 444 -3 c 0
 416 -22 374 -31 319 -31 c 0
 264 -31 215 -21 173 -1 c 0
 124 24 84 65 53 125 c 0
 23 180 5 243 -2 314 c 1
 -4 372 l 1
 -4 425 4 478 20 532 c 0
 38 586 61 628 91 657 c 0
 154 720 225 752 303 752 c 0
 364 752 417 737 462 708 c 1
 496 684 519 662 530 642 c 1
 530 1013 l 1
188 145 m 0
 222 100 273 79 340 81 c 0
 367 81 395 88 424 103 c 0
 448 117 467 135 482 159 c 0
 514 214 530 276 530 346 c 0
 530 392 524 436 511 476 c 0
 500 513 488 542 475 562 c 1
 440 608 392 631 329 631 c 0
 259 631 208 608 176 562 c 0
 142 514 124 447 124 362 c 0
 124 276 146 203 188 145 c 0
EndSplineSet
EndChar
StartChar: e
Encoding: 101 101 71
OldEncoding: 101
Width: 728
Flags: W
HStem: -16 102<330 365> 334 104<141 669> 672 95<363 374>
VStem: 11 126<334 375>
Fore
669 334 m 1
 137 334 l 1
 137 300 139 273 143 253 c 0
 147 234 158 208 176 176 c 1
 219 116 274 86 340 86 c 0
 373 86 403 91 428 103 c 0
 451 114 471 128 486 144 c 0
 502 162 513 179 519 195 c 2
 534 239 l 1
 652 239 l 1
 639 178 618 129 587 94 c 0
 559 57 525 31 486 14 c 0
 441 -6 393 -16 342 -16 c 0
 291 -16 243 -6 199 14 c 0
 151 37 113 66 86 103 c 0
 36 166 11 257 11 375 c 0
 13 498 44 593 102 657 c 0
 171 733 261 769 371 767 c 0
 392 767 419 761 453 750 c 0
 482 741 508 729 532 713 c 1
 558 693 575 676 585 662 c 0
 611 629 629 596 641 563 c 0
 655 523 663 494 664 475 c 1
 669 334 l 1
141 438 m 1
 541 438 l 1
 541 467 535 500 523 538 c 0
 513 571 501 594 488 607 c 1
 481 624 466 638 442 648 c 0
 410 664 384 672 363 672 c 0
 290 674 237 653 203 607 c 1
 192 598 179 575 164 540 c 0
 152 511 144 477 141 438 c 1
EndSplineSet
EndChar
StartChar: f
Encoding: 102 102 72
OldEncoding: 102
Width: 364
Flags: W
HStem: -0 21G<101 219> 622 106<4 101 219 334> 914 102<274 336>
VStem: 101 118<0 622 728 852>
Fore
101 -0 m 1
 101 622 l 1
 4 622 l 1
 4 728 l 1
 101 728 l 1
 101 852 l 2
 101 899 117 938 147 969 c 0
 176 997 200 1011 219 1011 c 1
 234 1014 252 1016 274 1016 c 0
 297 1016 318 1014 336 1011 c 1
 336 914 l 1
 291 914 260 909 245 900 c 1
 227 887 219 866 219 835 c 2
 219 728 l 1
 334 728 l 1
 334 622 l 1
 219 622 l 1
 219 -0 l 1
 101 -0 l 1
EndSplineSet
EndChar
StartChar: g
Encoding: 103 103 73
OldEncoding: 103
Width: 731
Flags: W
HStem: -271 102<301 343> -1 112<283 310> 655 128<308 325> 741 20G<521 637>
VStem: 521 116<111 155 348 761>
Fore
521 761 m 1
 637 761 l 1
 637 155 l 2
 637 101 632 40 623 -28 c 1
 614 -77 597 -122 572 -162 c 0
 547 -200 511 -227 463 -243 c 0
 421 -256 381 -265 343 -271 c 1
 268 -271 213 -264 179 -250 c 0
 138 -234 106 -214 84 -193 c 0
 59 -168 44 -144 38 -120 c 0
 30 -99 25 -76 23 -51 c 1
 142 -51 l 1
 149 -74 l 1
 152 -88 155 -98 158 -102 c 0
 161 -111 168 -119 179 -125 c 1
 190 -136 205 -146 222 -153 c 0
 244 -164 274 -169 312 -169 c 0
 352 -169 387 -163 420 -151 c 1
 451 -133 471 -117 480 -102 c 0
 490 -86 498 -62 505 -32 c 0
 516 12 521 63 521 120 c 1
 450 38 370 -3 283 -1 c 0
 233 2 182 24 130 65 c 1
 90 91 58 129 36 180 c 0
 13 235 1 291 -2 350 c 1
 -2 411 5 470 19 527 c 0
 34 587 54 634 79 668 c 1
 97 691 127 716 169 743 c 1
 216 769 263 783 312 783 c 0
 395 780 464 744 521 673 c 1
 521 761 l 1
456 167 m 0
 500 213 521 284 521 381 c 0
 521 432 516 476 505 514 c 0
 494 552 477 583 454 606 c 1
 447 615 430 626 403 639 c 0
 379 650 353 655 325 655 c 0
 246 655 190 619 158 549 c 0
 137 503 125 448 123 384 c 0
 120 304 136 239 169 189 c 1
 207 137 254 111 310 111 c 0
 372 109 421 128 456 167 c 0
EndSplineSet
EndChar
StartChar: h
Encoding: 104 104 74
OldEncoding: 104
Width: 728
Flags: W
HStem: -0 21G<53 168 514 632> 643 107<328 393> 991 20G<53 168>
VStem: 53 115<0 481 0 1011> 514 118<0 552>
Fore
53 -0 m 1
 53 1011 l 1
 168 1011 l 1
 168 641 l 1
 206 680 247 711 293 731 c 1
 343 744 376 750 393 750 c 0
 421 750 459 742 507 725 c 2
 512 724 l 2
 559 706 590 680 605 645 c 0
 623 608 632 577 632 552 c 2
 632 -0 l 1
 514 -0 l 1
 514 497 l 2
 514 563 493 606 453 625 c 1
 414 637 373 643 328 643 c 1
 294 636 256 615 214 581 c 1
 183 551 168 516 168 474 c 2
 168 -0 l 1
 53 -0 l 1
EndSplineSet
EndChar
StartChar: i
Encoding: 105 105 75
OldEncoding: 105
Width: 290
Flags: W
HStem: -0 21G<75 190> 991 20G<75 190>
VStem: 75 115<0 729 868 1011>
Fore
190 729 m 1
 190 -0 l 1
 75 -0 l 1
 75 729 l 1
 190 729 l 1
190 1011 m 1
 190 868 l 1
 75 868 l 1
 75 1011 l 1
 190 1011 l 1
EndSplineSet
EndChar
StartChar: j
Encoding: 106 106 76
OldEncoding: 106
Width: 296
Flags: W
HStem: 726 20G<84 202> 1009 20G<84 202>
VStem: 84 118<-127 746 885 1029>
Fore
84 885 m 1
 84 1029 l 1
 202 1029 l 1
 202 885 l 1
 84 885 l 1
-37 -286 m 1
 -37 -184 l 1
 33 -177 l 2
 51 -175 65 -167 73 -155 c 0
 80 -141 84 -129 84 -117 c 2
 84 746 l 1
 202 746 l 1
 202 -142 l 2
 202 -168 194 -194 179 -221 c 1
 163 -247 135 -265 95 -277 c 0
 71 -283 27 -286 -37 -286 c 1
EndSplineSet
EndChar
StartChar: k
Encoding: 107 107 77
OldEncoding: 107
Width: 649
Flags: W
HStem: -0 21G<37 152 508 651> 991 20G<37 152>
VStem: 37 115<0 273 0 1011>
DStem: 271 389 355 477 508 -0 651 -0 459 729 611 729 152 426 355 477
Fore
37 1011 m 1
 152 1011 l 1
 152 426 l 1
 459 729 l 1
 611 729 l 1
 355 477 l 1
 651 -0 l 1
 508 -0 l 1
 271 389 l 1
 152 273 l 1
 152 -0 l 1
 37 -0 l 1
 37 1011 l 1
EndSplineSet
EndChar
StartChar: l
Encoding: 108 108 78
OldEncoding: 108
Width: 289
Flags: W
HStem: -0 21G<77 192> 991 20G<77 192>
VStem: 77 115<0 1011>
Fore
77 -0 m 1
 77 1011 l 1
 192 1011 l 1
 192 -0 l 1
 77 -0 l 1
EndSplineSet
EndChar
StartChar: m
Encoding: 109 109 79
OldEncoding: 109
Width: 1090
Flags: W
HStem: 658 107<320 362 737 764> 724 20G<33 148>
VStem: 33 115<15 485 15 744> 454 115<15 510> 876 118<15 584>
Fore
33 15 m 1
 33 744 l 1
 148 744 l 1
 148 651 l 1
 179 698 205 726 225 735 c 1
 263 755 308 765 362 765 c 0
 417 765 458 756 484 737 c 1
 516 716 542 689 560 656 c 1
 593 695 l 2
 599 703 608 712 620 723 c 0
 629 730 642 738 658 746 c 1
 692 759 728 765 764 765 c 0
 830 765 876 757 901 741 c 1
 916 734 930 721 945 704 c 1
 960 689 972 670 982 647 c 0
 989 624 994 603 994 584 c 2
 994 15 l 1
 876 15 l 1
 876 536 l 1
 863 617 817 658 737 658 c 0
 685 658 646 644 620 616 c 0
 593 589 576 553 569 510 c 1
 569 15 l 1
 454 15 l 1
 454 538 l 2
 454 604 421 643 356 654 c 0
 345 657 333 658 320 658 c 0
 273 658 234 642 202 609 c 0
 172 578 154 536 148 485 c 1
 148 15 l 1
 33 15 l 1
EndSplineSet
EndChar
StartChar: n
Encoding: 110 110 80
OldEncoding: 110
Width: 728
Flags: W
HStem: 658 107<370 397> 724 20G<53 168>
VStem: 53 115<15 432 15 744> 516 115<15 582>
Fore
53 744 m 1
 168 744 l 1
 168 651 l 1
 200 694 227 721 252 732 c 1
 288 756 336 767 397 765 c 0
 447 765 487 759 516 746 c 1
 542 732 568 712 592 688 c 1
 611 666 624 631 631 582 c 1
 631 15 l 1
 516 15 l 1
 516 522 l 2
 516 548 510 572 497 596 c 1
 482 618 463 634 441 642 c 1
 423 653 399 658 370 658 c 0
 313 658 265 638 227 598 c 0
 188 559 168 493 168 401 c 2
 168 15 l 1
 53 15 l 1
 53 744 l 1
EndSplineSet
EndChar
StartChar: o
Encoding: 111 111 81
OldEncoding: 111
Width: 729
Flags: W
HStem: -16 119<336 344> 651 116<336 344>
VStem: 7 119<375 385> 544 121<375 401>
Fore
63 127 m 0
 26 190 7 272 7 375 c 0
 7 478 26 561 63 624 c 0
 94 674 134 711 181 734 c 0
 228 756 280 767 336 767 c 0
 389 767 440 755 491 732 c 0
 538 709 576 673 606 624 c 0
 645 559 665 476 665 375 c 0
 665 277 645 195 606 127 c 0
 576 78 538 42 491 19 c 0
 440 -4 389 -16 336 -16 c 0
 283 -16 232 -4 181 19 c 0
 132 43 93 79 63 127 c 0
336 103 m 0
 374 103 408 112 438 130 c 0
 467 147 490 175 507 213 c 0
 531 271 544 325 544 375 c 0
 544 430 531 485 507 540 c 0
 491 577 468 605 438 624 c 1
 405 642 371 651 336 651 c 0
 300 651 265 642 232 626 c 0
 196 606 170 578 155 540 c 1
 135 447 l 1
 129 424 126 400 126 375 c 0
 126 327 138 274 162 213 c 0
 178 178 202 150 234 130 c 0
 264 112 298 103 336 103 c 0
EndSplineSet
EndChar
StartChar: p
Encoding: 112 112 82
OldEncoding: 112
Width: 726
Flags: W
HStem: -271 21G<28 146> -1 121<344 371> 673 110<331 354> 741 20G<28 130>
VStem: 28 102<-271 761> 28 115<-271 434> 28 118<-271 111> 548 133<352 386>
Fore
146 -271 m 1
 28 -271 l 1
 28 761 l 1
 130 761 l 1
 130 668 l 1
 147 695 180 723 230 754 c 0
 261 773 302 783 354 783 c 0
 407 783 455 772 500 752 c 0
 554 726 596 684 625 627 c 0
 658 563 676 500 678 437 c 1
 681 384 l 1
 681 328 672 273 656 220 c 0
 639 168 615 126 583 94 c 0
 522 31 451 -1 371 -1 c 0
 310 -1 257 14 213 44 c 1
 179 68 157 91 146 111 c 1
 146 -271 l 1
486 606 m 0
 451 653 401 675 334 673 c 0
 314 673 287 665 252 650 c 1
 226 632 207 613 195 593 c 0
 161 538 143 475 143 405 c 0
 143 365 150 324 162 282 c 0
 175 242 188 211 201 189 c 1
 221 166 242 149 266 138 c 0
 294 126 320 120 345 120 c 0
 415 120 466 143 497 189 c 0
 531 238 548 303 548 386 c 0
 548 476 528 549 486 606 c 0
EndSplineSet
EndChar
StartChar: q
Encoding: 113 113 83
OldEncoding: 113
Width: 731
Flags: W
HStem: -271 21G<530 645> -1 121<303 329> 673 110<319 342> 741 20G<544 645>
VStem: -4 128<352 384> 530 115<-271 761>
Fore
645 -271 m 1
 530 -271 l 1
 530 111 l 1
 520 89 497 66 462 44 c 0
 417 14 364 -1 303 -1 c 0
 225 -1 154 31 91 94 c 0
 27 160 -4 255 -4 379 c 1
 -2 437 l 1
 5 506 23 569 53 627 c 0
 83 685 123 726 173 752 c 0
 215 772 264 783 319 783 c 0
 371 783 413 773 444 754 c 0
 487 727 520 699 544 668 c 1
 544 761 l 1
 645 761 l 1
 645 -271 l 1
188 606 m 1
 143 548 122 474 124 384 c 0
 124 304 142 239 176 189 c 0
 208 143 259 120 329 120 c 0
 358 120 385 126 411 138 c 0
 433 148 454 165 475 189 c 1
 503 232 521 286 528 352 c 1
 530 403 l 1
 530 471 514 534 482 593 c 0
 467 616 449 635 426 648 c 0
 395 665 366 673 340 673 c 0
 270 675 219 653 188 606 c 1
EndSplineSet
EndChar
StartChar: r
Encoding: 114 114 84
OldEncoding: 114
Width: 431
Flags: W
HStem: 642 123<349 415> 724 20G<64 182>
VStem: 64 118<15 416 15 744>
Fore
64 15 m 1
 64 744 l 1
 182 744 l 1
 182 631 l 1
 203 669 230 702 263 728 c 0
 293 750 321 763 349 765 c 1
 415 765 l 1
 415 642 l 1
 370 642 333 637 304 626 c 1
 263 607 232 580 212 545 c 1
 191 505 182 455 182 395 c 2
 182 15 l 5
 64 15 l 1
EndSplineSet
EndChar
StartChar: s
Encoding: 115 115 85
OldEncoding: 115
Width: 654
Flags: W
HStem: 747 20G<258 384>
VStem: 27 112<540 561> 484 113<191 209>
Fore
7 231 m 1
 118 231 l 1
 125 202 130 181 135 167 c 0
 139 157 150 143 166 128 c 1
 182 115 208 103 243 91 c 1
 264 88 298 86 347 86 c 1
 392 94 422 104 438 116 c 0
 449 123 460 136 470 156 c 0
 479 172 484 188 484 204 c 0
 484 250 458 280 405 297 c 1
 340 313 l 1
 264 332 l 1
 195 350 l 2
 168 357 148 364 135 370 c 1
 63 396 27 456 27 549 c 0
 27 617 54 670 107 708 c 1
 157 747 220 767 296 767 c 0
 472 767 562 692 568 542 c 1
 451 542 l 1
 451 574 441 601 420 624 c 1
 398 644 353 655 285 657 c 1
 213 653 166 628 144 582 c 1
 141 573 139 561 139 547 c 0
 139 514 152 491 179 480 c 2
 222 461 l 1
 276 447 l 1
 349 426 l 1
 419 415 475 396 519 370 c 0
 571 342 597 282 597 191 c 1
 592 152 578 118 555 88 c 0
 531 54 501 30 465 15 c 0
 426 -4 382 -14 334 -16 c 0
 281 -18 234 -15 192 -6 c 0
 69 19 7 98 7 231 c 1
EndSplineSet
EndChar
StartChar: t
Encoding: 116 116 86
OldEncoding: 116
Width: 365
Flags: W
HStem: -26 107<206 277> 629 106<-3 99 218 330>
VStem: 99 119<78 629 735 932>
Fore
218 932 m 1
 218 735 l 1
 330 735 l 1
 330 629 l 1
 218 629 l 1
 218 122 l 2
 218 95 237 81 277 81 c 1
 330 86 l 1
 330 -16 l 1
 303 -23 262 -26 206 -26 c 1
 170 -22 143 -8 125 16 c 1
 107 41 99 62 99 78 c 2
 99 629 l 1
 -3 629 l 1
 -3 735 l 1
 99 735 l 1
 99 932 l 1
 218 932 l 1
EndSplineSet
EndChar
StartChar: u
Encoding: 117 117 87
OldEncoding: 117
Width: 729
Flags: W
HStem: -15 112<270 304> 727 20G<47 162 509 625>
VStem: 47 115<166 747> 509 116<18 747>
Fore
625 18 m 1
 509 18 l 1
 509 97 l 1
 481 58 454 31 426 16 c 1
 384 -5 335 -15 278 -15 c 0
 231 -15 192 -9 162 2 c 1
 96 37 58 91 47 166 c 1
 47 747 l 1
 162 747 l 1
 162 230 l 2
 162 180 180 142 217 115 c 1
 240 103 263 97 285 97 c 0
 318 97 345 99 365 104 c 1
 422 123 461 155 482 199 c 0
 500 238 509 289 509 351 c 2
 509 747 l 1
 625 747 l 1
 625 18 l 1
EndSplineSet
EndChar
StartChar: v
Encoding: 118 118 88
OldEncoding: 118
Width: 654
Flags: W
HStem: 725 20G<-26 104 504 636>
Fore
356 16 m 1
 229 16 l 1
 -26 745 l 1
 104 745 l 1
 294 155 l 1
 504 745 l 1
 636 745 l 1
 356 16 l 1
EndSplineSet
EndChar
StartChar: w
Encoding: 119 119 89
OldEncoding: 119
Width: 944
Flags: W
HStem: 725 20G<-48 82 367 510 795 926>
DStem: 367 745 431 569 225 178 292 16
Fore
161 16 m 1
 -48 745 l 1
 82 745 l 1
 225 178 l 1
 367 745 l 1
 510 745 l 1
 647 178 l 1
 795 745 l 1
 926 745 l 1
 711 16 l 1
 579 16 l 1
 431 569 l 1
 292 16 l 1
 161 16 l 1
EndSplineSet
EndChar
StartChar: x
Encoding: 120 120 90
OldEncoding: 120
Width: 654
Flags: W
HStem: 725 20G<0 133 484 616>
DStem: 0 745 133 745 241 389 308 488 241 389 303 290 -17 16 116 16 303 290 368 391 486 16 619 16 484 745 616 745 308 488 368 391
Fore
303 290 m 1
 116 16 l 1
 -17 16 l 1
 241 389 l 1
 0 745 l 1
 133 745 l 1
 308 488 l 1
 484 745 l 1
 616 745 l 1
 368 391 l 1
 619 16 l 1
 486 16 l 1
 303 290 l 1
EndSplineSet
EndChar
StartChar: y
Encoding: 121 121 91
OldEncoding: 121
Width: 653
Flags: W
HStem: -269 113<83 117> 742 20G<-12 110 499 625>
DStem: -12 762 110 762 227 22 296 212 227 22 625 762 185 -94 294 -136 499 762 625 762 296 212 294 -136
Fore
499 762 m 1
 625 762 l 1
 294 -136 l 2
 273 -191 239 -229 192 -251 c 0
 164 -263 132 -269 97 -269 c 0
 71 -269 49 -264 31 -254 c 1
 31 -145 l 1
 50 -153 79 -156 117 -156 c 1
 147 -151 170 -131 185 -94 c 1
 227 22 l 1
 -12 762 l 1
 110 762 l 1
 296 212 l 1
 499 762 l 1
EndSplineSet
EndChar
StartChar: z
Encoding: 122 122 92
OldEncoding: 122
Width: 654
Flags: W
HStem: 16 115<160 595> 630 115<36 431>
DStem: 431 630 579 643 5 111 160 131
Fore
579 745 m 1
 579 643 l 1
 160 131 l 1
 595 131 l 1
 595 16 l 1
 5 16 l 1
 5 111 l 1
 431 630 l 1
 36 630 l 1
 36 745 l 1
 579 745 l 1
EndSplineSet
EndChar
StartChar: braceleft
Encoding: 123 123 93
OldEncoding: 123
Width: 436
Flags: W
VStem: 144 104<-111 155 595 860>
Fore
34 326 m 1
 34 423 l 1
 80 434 109 454 122 484 c 0
 137 515 144 562 144 623 c 2
 144 858 l 2
 144 905 157 945 182 979 c 1
 210 1012 235 1028 257 1028 c 2
 359 1032 l 1
 359 940 l 1
 297 933 l 2
 278 931 266 923 259 910 c 0
 252 894 248 872 248 845 c 2
 248 597 l 2
 248 537 237 489 215 454 c 0
 198 426 175 400 146 375 c 1
 169 360 191 336 213 304 c 0
 236 267 248 217 248 153 c 2
 248 -92 l 2
 248 -121 252 -143 259 -160 c 0
 266 -172 278 -180 297 -182 c 2
 359 -189 l 1
 359 -279 l 1
 257 -277 l 2
 234 -277 209 -260 182 -226 c 0
 157 -195 144 -156 144 -109 c 2
 144 130 l 2
 144 191 137 238 122 269 c 0
 107 298 78 317 34 326 c 1
EndSplineSet
EndChar
StartChar: bar
Encoding: 124 124 94
OldEncoding: 124
Width: 339
Flags: W
HStem: 1008 20G<118 202>
VStem: 118 84<-281 1028>
Fore
202 1028 m 1
 202 -281 l 1
 118 -281 l 1
 118 1028 l 1
 202 1028 l 1
EndSplineSet
EndChar
StartChar: braceright
Encoding: 125 125 95
OldEncoding: 125
Width: 438
Flags: W
VStem: 127 104<-120 170 584 860>
Fore
341 423 m 1
 341 326 l 1
 295 317 265 298 253 269 c 0
 238 240 231 194 231 130 c 2
 231 -109 l 2
 231 -139 225 -167 213 -194 c 0
 204 -211 188 -231 167 -255 c 1
 152 -267 136 -275 118 -277 c 1
 16 -279 l 1
 16 -189 l 1
 78 -182 l 2
 98 -180 111 -172 118 -157 c 0
 124 -145 127 -123 127 -92 c 2
 127 153 l 2
 127 219 140 268 164 301 c 1
 188 337 209 361 229 375 c 1
 211 394 l 1
 194 408 181 424 171 443 c 1
 156 464 145 487 138 509 c 0
 131 538 127 567 127 597 c 2
 127 845 l 2
 127 876 124 898 118 910 c 0
 112 923 99 931 78 933 c 2
 16 940 l 1
 16 1032 l 1
 118 1028 l 1
 136 1026 152 1018 167 1004 c 0
 188 983 203 963 213 944 c 0
 225 918 231 889 231 858 c 2
 231 623 l 2
 231 559 238 513 253 484 c 0
 266 454 295 434 341 423 c 1
EndSplineSet
EndChar
StartChar: asciitilde
Encoding: 126 126 96
OldEncoding: 126
Width: 762
Flags: W
HStem: 372 95<504 522> 523 88<206 208>
DStem: 254 501 278 592 402 406 461 483
Fore
132 406 m 1
 57 406 l 1
 60 478 75 530 104 562 c 0
 135 595 169 611 206 611 c 0
 233 611 257 604 278 592 c 2
 461 483 l 2
 480 472 498 467 516 467 c 0
 533 467 548 472 560 481 c 1
 577 495 585 526 585 573 c 1
 658 573 l 1
 658 515 644 466 616 428 c 0
 590 391 555 372 512 372 c 0
 475 372 438 384 402 406 c 2
 254 501 l 1
 239 515 223 523 206 523 c 0
 184 523 166 512 152 490 c 0
 139 469 132 442 132 406 c 1
EndSplineSet
EndChar
StartChar: uni0E10.descless
Encoding: 128 63232 98
OldEncoding: 63232
Width: 698
Flags: W
HStem: 0 21G<464 579> 199 70<226.867 252> 412 71<227.289 252> 653 85<576 594> 723 79<304 336>
VStem: 100 70<340 353> 482 97<192 412>
Fore
241 483 m 0
 269 483 298 475 327 459 c 1
 354 440 374 417 387 391 c 2
 482 192 l 1
 482 382 l 2
 482 441 472 480 451 499 c 1
 434 520 399 539 347 556 c 1
 297 570 241 582 179 592 c 1
 123 604 80 611 49 614 c 1
 78 664 115 709 162 748 c 1
 208 783 258 802 312 802 c 0
 346 802 373 798 392 793 c 2
 471 768 l 1
 540 745 l 2
 556 740 573 738 590 738 c 0
 618 738 645 744 672 757 c 1
 690 676 l 1
 652 661 618 653 586 653 c 0
 565 653 546 655 531 660 c 2
 456 685 l 1
 378 713 l 2
 359 719 338 723 316 723 c 0
 295 723 271 716 244 704 c 1
 219 690 206 679 204 671 c 1
 250 660 l 1
 334 636 l 1
 411 618 l 2
 487 598 534 573 551 541 c 1
 570 512 579 460 579 386 c 2
 579 0 l 1
 464 0 l 1
 456 44 441 94 418 150 c 0
 391 210 372 249 361 269 c 1
 355 249 340 232 316 218 c 0
 294 205 269 199 241 199 c 0
 197 199 162 213 137 241 c 0
 112 270 100 303 100 340 c 0
 100 382 112 416 137 442 c 0
 162 470 197 483 241 483 c 0
241 269 m 0
 265 269 283 276 294 289 c 0
 306 306 312 323 312 340 c 0
 312 360 306 377 294 391 c 0
 282 405 265 412 241 412 c 0
 219 412 202 405 190 391 c 0
 177 377 170 360 170 340 c 0
 170 321 177 305 190 291 c 1
 201 276 218 269 241 269 c 0
EndSplineSet
EndChar
StartChar: uni0E34.left
Encoding: 129 63233 99
OldEncoding: 63233
Width: 0
Flags: W
HStem: 921 67<-699 -607> 1099 72<-550 -530>
DStem: -608 990 -608 990 -699 988 -530 988
Fore
-530 1171 m 1
 -428 1157 -354 1118 -310 1052 c 0
 -268 987 -238 917 -222 842 c 1
 -275 861 -316 874 -343 882 c 0
 -386 894 -444 905 -517 914 c 0
 -557 919 -600 921 -643 921 c 2
 -780 917 l 1
 -868 904 l 1
 -860 948 -840 992 -808 1036 c 1
 -775 1079 -735 1112 -687 1136 c 0
 -640 1159 -588 1171 -530 1171 c 1
-548 1099 m 1
 -597 1099 -640 1087 -678 1062 c 0
 -716 1038 -739 1012 -747 983 c 1
 -699 988 l 1
 -608 990 l 1
 -530 988 l 1
 -471 983 -424 974 -389 961 c 0
 -366 952 -344 942 -321 930 c 1
 -365 1027 -441 1083 -548 1099 c 1
EndSplineSet
EndChar
StartChar: uni0E35.left
Encoding: 130 63234 100
OldEncoding: 63234
Width: 0
Flags: W
HStem: 916 67<-702 -610> 1093 73<-553 -533>
VStem: -341 88<1075 1258>
DStem: -611 985 -611 985 -702 983 -533 983
Fore
-341 1075 m 1
 -341 1258 l 1
 -253 1258 l 5
 -253 936 l 1
 -253 936 l 1
 -252 936 -249 925 -242 901 c 1
 -225 837 l 1
 -278 856 -319 869 -346 876 c 0
 -389 889 -447 900 -520 909 c 0
 -560 914 -603 916 -646 916 c 2
 -783 911 l 1
 -871 899 l 1
 -863 943 -843 988 -811 1033 c 1
 -781 1073 -741 1105 -690 1131 c 0
 -644 1154 -592 1166 -533 1166 c 1
 -493 1161 -460 1152 -434 1137 c 1
 -415 1130 -393 1118 -368 1101 c 1
 -341 1075 l 1
-551 1093 m 1
 -585 1093 -615 1087 -644 1075 c 0
 -673 1064 -696 1049 -714 1031 c 0
 -730 1017 -742 999 -750 978 c 1
 -702 983 l 1
 -611 985 l 1
 -533 983 l 1
 -474 978 -427 969 -392 955 c 0
 -366 946 -344 936 -325 925 c 1
 -342 966 -366 1002 -399 1033 c 0
 -434 1067 -485 1086 -551 1093 c 1
EndSplineSet
EndChar
StartChar: uni0E36.left
Encoding: 131 63235 101
OldEncoding: 63235
Width: 0
Flags: W
HStem: 915 67<-693 -602> 1092 77<-567 -543> 1209 62<-339 -318>
VStem: -457 67<1149 1163> -273 68<1139 1163>
DStem: -603 984 -603 984 -693 982 -525 982
Fore
-205 1147 m 0
 -205 1115 -213 1089 -229 1068 c 0
 -245 1044 -265 1030 -291 1026 c 1
 -249 949 l 1
 -233 915 -222 877 -216 836 c 1
 -270 855 -310 868 -337 876 c 0
 -381 888 -439 899 -511 908 c 0
 -552 913 -594 915 -638 915 c 2
 -775 911 l 1
 -863 898 l 1
 -846 977 -809 1042 -752 1092 c 0
 -693 1144 -630 1169 -565 1169 c 0
 -540 1169 -518 1167 -499 1163 c 2
 -457 1149 l 1
 -457 1179 -446 1207 -423 1231 c 0
 -399 1258 -369 1271 -333 1271 c 0
 -291 1271 -260 1259 -240 1234 c 1
 -217 1211 -205 1182 -205 1147 c 0
-331 1209 m 0
 -351 1209 -366 1203 -375 1192 c 0
 -385 1181 -390 1168 -390 1151 c 0
 -390 1135 -385 1122 -375 1112 c 0
 -360 1099 -346 1092 -331 1092 c 0
 -316 1092 -302 1099 -289 1112 c 0
 -278 1122 -273 1135 -273 1151 c 0
 -273 1168 -278 1181 -289 1192 c 1
 -297 1203 -311 1209 -331 1209 c 0
-543 1092 m 1
 -576 1092 -607 1086 -636 1074 c 0
 -664 1063 -688 1048 -706 1030 c 0
 -722 1016 -734 998 -742 977 c 1
 -693 982 l 1
 -603 984 l 1
 -525 982 l 1
 -465 977 -418 968 -384 955 c 0
 -361 946 -339 936 -316 924 c 1
 -332 961 -356 996 -390 1030 c 0
 -425 1063 -476 1083 -543 1092 c 1
EndSplineSet
EndChar
StartChar: uni0E37.left
Encoding: 132 63236 102
OldEncoding: 63236
Width: 0
Flags: W
HStem: 916 67<-694 -602> 1093 77<-560 -543>
VStem: -506 87<1163 1258> -333 88<1073 1258>
DStem: -603 985 -603 985 -694 983 -525 983
Fore
-245 934 m 1
 -243 934 -234 902 -217 837 c 1
 -270 856 -311 869 -338 876 c 0
 -381 889 -439 900 -512 909 c 0
 -552 914 -595 916 -638 916 c 2
 -775 911 l 1
 -863 899 l 1
 -854 948 -834 993 -803 1036 c 0
 -773 1077 -735 1109 -689 1133 c 1
 -647 1158 -603 1170 -558 1170 c 0
 -540 1170 -523 1168 -506 1163 c 1
 -506 1258 l 1
 -419 1258 l 1
 -419 1135 l 1
 -382 1122 -354 1101 -333 1073 c 1
 -333 1258 l 1
 -245 1258 l 1
 -245 934 l 1
-543 1093 m 1
 -592 1093 -635 1081 -673 1057 c 0
 -711 1033 -734 1007 -742 978 c 1
 -694 983 l 1
 -603 985 l 1
 -525 983 l 1
 -466 978 -419 969 -384 955 c 0
 -358 946 -336 936 -317 925 c 1
 -360 1021 -436 1077 -543 1093 c 1
EndSplineSet
EndChar
StartChar: ellipsis
Encoding: 133 8230 103
OldEncoding: 8230
Width: 1074
Flags: W
HStem: -29 21G<107 167.5>
VStem: 47 181<56 68>
Fore
936 56 m 1
 936 5 906 -23 846 -29 c 1
 792 -29 762 -1 755 56 c 1
 755 117 785 148 846 148 c 0
 871 148 892 139 910 121 c 1
 924 105 932 83 936 56 c 1
582 56 m 1
 582 4 552 -24 492 -29 c 1
 438 -29 408 -1 402 56 c 1
 402 117 432 148 492 148 c 0
 517 148 538 139 556 121 c 1
 571 103 580 81 582 56 c 1
228 56 m 0
 228 -1 198 -29 137 -29 c 0
 77 -29 47 -1 47 56 c 0
 47 117 77 148 137 148 c 0
 198 148 228 117 228 56 c 0
EndSplineSet
EndChar
StartChar: uni0E48.low_left
Encoding: 134 63237 104
OldEncoding: 63237
Width: 0
Flags: W
VStem: -347 88<869 1219>
Fore
-347 869 m 5
 -347 1219 l 5
 -259 1219 l 5
 -259 869 l 5
 -347 869 l 5
EndSplineSet
EndChar
StartChar: uni0E49.low_left
Encoding: 135 63238 105
OldEncoding: 63238
Width: 0
Flags: W
HStem: 854 73<-558 -522.981> 971 62<-641 -627> 1159 67<-627 -618>
VStem: -764 71<1097 1099> -565 77<1090 1099>
Fore
-488 1092 m 4
 -488 1048 -495 1010 -509 980 c 5
 -529 949 -541 932 -547 927 c 5
 -519 927 -489 931 -456 938 c 4
 -428 945 -400 961 -373 985 c 4
 -320 1031 -293 1108 -293 1216 c 5
 -198 1216 l 5
 -198 1054 -255 946 -368 892 c 5
 -428 866 -491 854 -558 854 c 4
 -586 854 -614 856 -639 860 c 6
 -693 869 l 5
 -684 873 -669 884 -650 902 c 4
 -633 918 -619 943 -609 976 c 5
 -620 973 l 5
 -641 971 l 6
 -655 971 -666 973 -675 976 c 4
 -734 991 -764 1032 -764 1097 c 4
 -764 1132 -750 1163 -724 1189 c 4
 -700 1213 -667 1226 -627 1226 c 4
 -585 1226 -551 1212 -525 1186 c 4
 -500 1159 -488 1127 -488 1092 c 4
-627 1159 m 4
 -646 1159 -661 1153 -673 1141 c 4
 -686 1126 -693 1112 -693 1097 c 4
 -693 1079 -687 1065 -675 1055 c 5
 -664 1040 -648 1033 -627 1033 c 4
 -614 1033 -603 1037 -593 1043 c 4
 -583 1050 -576 1058 -571 1066 c 4
 -567 1075 -565 1085 -565 1097 c 4
 -565 1116 -570 1132 -580 1143 c 4
 -592 1153 -607 1159 -627 1159 c 4
EndSplineSet
EndChar
StartChar: uni0E4A.low_left
Encoding: 136 63239 106
OldEncoding: 63239
Width: 0
Flags: W
HStem: 849 42<-617 -606> 993 42<-617 -604.111> 1092 63<-619 -606 -463 -448>
VStem: -742 74<1014 1030> -566 42<935 946> -404 62<992 1026> -260 67<1071 1097>
Fore
-617 849 m 4
 -654 851 -684 868 -708 900 c 4
 -732 935 -744 973 -742 1014 c 4
 -742 1049 -729 1083 -705 1116 c 5
 -683 1142 -653 1155 -617 1155 c 4
 -601 1155 -586 1153 -573 1147 c 5
 -540 1127 l 5
 -529 1116 l 5
 -529 1116 l 5
 -524 1124 -514 1132 -501 1141 c 4
 -487 1150 -469 1155 -448 1155 c 4
 -410 1155 -383 1143 -367 1118 c 4
 -350 1092 -342 1057 -342 1014 c 4
 -342 973 -352 940 -372 915 c 5
 -330 940 l 6
 -315 949 -301 963 -288 981 c 5
 -270 1013 -260 1043 -260 1072 c 4
 -260 1090 -264 1111 -270 1134 c 5
 -202 1160 l 5
 -196 1141 -193 1120 -193 1097 c 4
 -193 1038 -209 986 -240 942 c 4
 -280 883 -358 854 -471 854 c 5
 -468 860 -458 873 -443 891 c 4
 -436 900 -427 915 -416 937 c 4
 -408 956 -404 977 -404 999 c 4
 -404 1027 -407 1050 -413 1067 c 5
 -421 1084 -437 1092 -461 1092 c 4
 -477 1092 -490 1087 -501 1076 c 4
 -514 1063 -522 1054 -524 1048 c 5
 -534 1060 l 5
 -539 1066 -549 1072 -564 1081 c 4
 -577 1088 -592 1092 -608 1092 c 4
 -625 1092 -639 1086 -651 1074 c 4
 -662 1062 -668 1044 -668 1021 c 5
 -664 1025 -656 1028 -647 1030 c 6
 -617 1035 l 5
 -589 1035 -566 1025 -549 1006 c 4
 -533 990 -524 967 -524 937 c 4
 -524 915 -534 895 -552 877 c 4
 -571 859 -592 849 -617 849 c 4
-617 993 m 4
 -635 993 -647 988 -653 979 c 4
 -663 969 -668 956 -668 942 c 4
 -668 930 -663 919 -653 907 c 4
 -645 896 -633 891 -617 891 c 4
 -601 891 -588 896 -580 907 c 4
 -571 917 -566 929 -566 942 c 4
 -566 955 -571 968 -580 979 c 4
 -587 988 -599 993 -617 993 c 4
EndSplineSet
EndChar
StartChar: uni0E4B.low_left
Encoding: 137 63240 107
OldEncoding: 63240
Width: 0
Flags: W
HStem: 1025 76<-625 -470 -384 -229>
VStem: -470 86<869 1025 1101 1255>
Fore
-470 1025 m 5
 -625 1025 l 5
 -625 1101 l 5
 -470 1101 l 5
 -470 1255 l 5
 -384 1255 l 5
 -384 1101 l 5
 -229 1101 l 5
 -229 1025 l 5
 -384 1025 l 5
 -384 869 l 5
 -470 869 l 5
 -470 1025 l 5
EndSplineSet
EndChar
StartChar: uni0E4C.low_left
Encoding: 138 63241 108
OldEncoding: 63241
Width: 0
Flags: W
HStem: 849 75<-369 -358.534> 1039 62<-382.814 -368>
VStem: -543 113<981 1014> -311 67<981 994> -119 82<1298.53 1316.97>
Fore
-466 1043 m 4
 -464 1053 -455 1065 -439 1078 c 4
 -422 1094 -398 1101 -369 1101 c 4
 -332 1103 -302 1092 -280 1067 c 4
 -256 1042 -244 1013 -244 981 c 4
 -244 947 -256 917 -278 891 c 5
 -303 863 -334 849 -369 849 c 4
 -420 847 -463 862 -497 895 c 4
 -528 926 -543 966 -543 1014 c 4
 -543 1103 -508 1162 -437 1191 c 5
 -406 1209 -358 1220 -293 1224 c 4
 -223 1230 -177 1236 -157 1242 c 4
 -132 1252 -119 1277 -119 1317 c 5
 -37 1317 l 5
 -37 1279 -47 1248 -69 1224 c 4
 -89 1200 -114 1183 -143 1173 c 4
 -179 1160 -225 1152 -280 1150 c 4
 -345 1145 -388 1138 -411 1127 c 4
 -439 1116 -457 1088 -466 1043 c 4
-369 1039 m 4
 -388 1039 -403 1034 -413 1023 c 4
 -424 1013 -430 999 -430 981 c 4
 -430 965 -424 952 -413 942 c 4
 -401 930 -386 924 -369 924 c 4
 -354 924 -340 930 -328 942 c 4
 -317 952 -311 965 -311 981 c 4
 -311 999 -316 1013 -326 1023 c 4
 -337 1034 -351 1039 -369 1039 c 4
EndSplineSet
EndChar
StartChar: uni0E48.low
Encoding: 139 63242 109
OldEncoding: 63242
Width: 0
Flags: W
VStem: -207 87<869 1219>
Fore
-207 869 m 5
 -207 1219 l 5
 -120 1219 l 5
 -120 869 l 5
 -207 869 l 5
EndSplineSet
EndChar
StartChar: uni0E49.low
Encoding: 140 63243 110
OldEncoding: 63243
Width: 0
Flags: W
HStem: 854 73<-365 -329.655> 973 60<-435 -426> 1159 67<-435 -426>
VStem: -572 72<1097 1099> -371 76<1090 1099>
Fore
-295 1092 m 4
 -295 1045 -303 1008 -316 980 c 5
 -339 947 -351 929 -353 927 c 5
 -325 927 -295 931 -263 938 c 4
 -234 946 -206 961 -181 985 c 4
 -128 1030 -101 1107 -101 1216 c 5
 -6 1216 l 5
 -6 1053 -63 945 -175 892 c 5
 -235 866 -298 854 -365 854 c 4
 -392 854 -418 856 -444 860 c 6
 -497 869 l 5
 -489 873 -475 884 -455 902 c 4
 -438 920 -425 944 -416 976 c 5
 -417 974 -421 973 -428 973 c 6
 -448 971 l 5
 -483 976 l 5
 -542 991 -572 1032 -572 1097 c 4
 -572 1133 -559 1164 -534 1189 c 4
 -509 1213 -476 1226 -435 1226 c 4
 -392 1226 -358 1212 -333 1186 c 4
 -308 1160 -295 1129 -295 1092 c 4
-435 1159 m 4
 -455 1159 -471 1153 -483 1141 c 4
 -494 1129 -500 1115 -500 1097 c 4
 -500 1079 -494 1065 -483 1055 c 5
 -472 1040 -456 1033 -435 1033 c 4
 -415 1033 -400 1040 -388 1055 c 5
 -377 1066 -371 1080 -371 1097 c 4
 -371 1113 -377 1128 -388 1141 c 4
 -400 1153 -416 1159 -435 1159 c 4
EndSplineSet
EndChar
StartChar: uni0E4A.low
Encoding: 141 63244 111
OldEncoding: 63244
Width: 0
Flags: W
HStem: 849 42<-435 -424> 993 42<-435 -422.111> 1092 63<-437 -424 -282 -266>
VStem: -560 74<1014 1030> -384 42<935 946> -222 62<992 1026> -80 69<1072 1097>
Fore
-435 849 m 4
 -471 851 -502 868 -526 900 c 4
 -550 933 -562 971 -560 1014 c 4
 -560 1049 -547 1083 -523 1116 c 5
 -501 1142 -471 1155 -435 1155 c 4
 -419 1155 -404 1153 -391 1147 c 5
 -358 1127 l 5
 -347 1116 l 5
 -347 1116 l 5
 -342 1124 -332 1132 -319 1141 c 4
 -305 1150 -287 1155 -266 1155 c 4
 -228 1155 -201 1143 -185 1118 c 4
 -168 1092 -160 1057 -160 1014 c 4
 -160 976 -169 943 -188 915 c 5
 -146 940 l 6
 -129 951 -116 965 -106 981 c 4
 -89 1014 -80 1045 -80 1074 c 4
 -80 1097 -83 1117 -88 1134 c 5
 -20 1160 l 5
 -14 1141 -11 1120 -11 1097 c 4
 -11 1038 -27 986 -58 942 c 4
 -98 883 -176 854 -289 854 c 5
 -286 860 -276 873 -261 891 c 4
 -254 900 -245 915 -234 937 c 4
 -226 956 -222 977 -222 999 c 4
 -222 1028 -225 1051 -232 1067 c 4
 -239 1084 -255 1092 -280 1092 c 4
 -297 1092 -311 1087 -321 1076 c 4
 -332 1066 -339 1056 -342 1048 c 5
 -352 1060 l 5
 -357 1066 -367 1072 -382 1081 c 4
 -395 1088 -410 1092 -426 1092 c 4
 -442 1092 -457 1086 -470 1074 c 5
 -481 1061 -486 1043 -486 1021 c 5
 -482 1025 -474 1028 -465 1030 c 6
 -435 1035 l 5
 -407 1035 -384 1025 -367 1006 c 4
 -351 990 -342 967 -342 937 c 4
 -342 915 -352 895 -370 877 c 4
 -389 859 -410 849 -435 849 c 4
-435 993 m 4
 -452 993 -465 988 -475 979 c 5
 -482 966 -486 954 -486 942 c 4
 -486 930 -482 919 -472 907 c 4
 -465 896 -453 891 -435 891 c 4
 -419 891 -406 896 -398 907 c 4
 -389 917 -384 929 -384 942 c 4
 -384 955 -389 968 -398 979 c 4
 -405 988 -417 993 -435 993 c 4
EndSplineSet
EndChar
StartChar: uni0E4B.low
Encoding: 142 63245 112
OldEncoding: 63245
Width: 0
Flags: W
HStem: 1025 76<-369 -214 -126 27>
VStem: -214 88<869 1025 1101 1255>
Fore
-214 1025 m 5
 -369 1025 l 5
 -369 1101 l 5
 -214 1101 l 5
 -214 1255 l 5
 -126 1255 l 5
 -126 1101 l 5
 27 1101 l 5
 27 1025 l 5
 -126 1025 l 5
 -126 869 l 5
 -214 869 l 5
 -214 1025 l 5
EndSplineSet
EndChar
StartChar: uni0E4C.low
Encoding: 143 63246 113
OldEncoding: 63246
Width: 0
Flags: W
HStem: 849 75<-239 -228.661>
VStem: -413 115<981 1014> -182 67<981 994> 13 81<1298.24 1316.97>
Fore
-336 1043 m 5
 -331 1054 -322 1066 -309 1078 c 5
 -290 1094 -267 1101 -239 1101 c 4
 -201 1103 -170 1092 -146 1067 c 5
 -125 1042 -115 1014 -115 981 c 4
 -115 948 -125 918 -146 891 c 5
 -173 863 -204 849 -239 849 c 4
 -293 847 -335 862 -367 893 c 4
 -398 924 -413 964 -413 1014 c 4
 -415 1100 -380 1159 -307 1191 c 4
 -269 1210 -220 1220 -159 1222 c 4
 -99 1224 -55 1230 -27 1240 c 4
 0 1251 13 1276 13 1317 c 5
 94 1317 l 5
 94 1279 83 1248 61 1224 c 4
 41 1200 16 1183 -13 1173 c 4
 -49 1160 -95 1152 -150 1150 c 4
 -213 1145 -256 1138 -279 1127 c 4
 -306 1117 -325 1089 -336 1043 c 5
-239 1039 m 4
 -259 1039 -273 1034 -281 1023 c 5
 -292 1012 -298 998 -298 981 c 4
 -298 965 -292 951 -281 940 c 4
 -270 929 -256 924 -239 924 c 4
 -224 924 -211 930 -198 942 c 4
 -187 952 -182 965 -182 981 c 4
 -182 998 -186 1012 -195 1023 c 5
 -206 1034 -221 1039 -239 1039 c 4
EndSplineSet
EndChar
StartChar: uni0E0D.descless
Encoding: 144 63247 114
OldEncoding: 63247
Width: 1039
Flags: W
HStem: -14 71<200 219> 0 84<413 775> 199 72<200 219> 730 72<309 356> 767 20G<822 919>
VStem: 71 71<116.414 133> 71 97<130 435> 286 68<116.414 133> 510 97<84 595> 822 97<150 787>
Fore
71 130 m 2
 71 410 l 2
 71 500 103 557 168 579 c 1
 103 619 l 1
 82 629 44 643 -10 658 c 1
 7 682 43 713 98 749 c 0
 154 784 227 802 318 802 c 0
 511 802 607 728 607 579 c 2
 607 84 l 1
 751 84 l 2
 783 84 802 88 809 97 c 1
 818 104 822 121 822 150 c 2
 822 787 l 1
 919 787 l 1
 919 150 l 2
 919 107 915 75 906 53 c 0
 897 32 881 18 857 11 c 0
 832 3 797 0 751 0 c 2
 413 0 l 1
 413 84 l 1
 510 84 l 1
 510 579 l 2
 510 629 494 667 462 692 c 0
 430 717 387 730 332 730 c 0
 261 730 193 710 128 672 c 1
 141 668 165 657 202 639 c 0
 235 624 267 603 297 575 c 1
 285 575 270 572 253 566 c 0
 236 560 217 545 195 522 c 1
 177 495 168 460 168 415 c 2
 168 261 l 1
 174 268 190 271 217 271 c 0
 258 271 292 257 318 229 c 1
 342 200 354 167 354 130 c 0
 354 91 342 58 318 30 c 0
 293 1 260 -14 217 -14 c 0
 175 -14 141 -1 113 26 c 0
 85 51 71 85 71 130 c 2
214 57 m 0
 238 57 256 64 267 79 c 0
 280 93 286 110 286 130 c 0
 286 146 280 162 267 178 c 1
 253 192 235 199 214 199 c 0
 192 199 175 192 164 178 c 1
 149 164 142 148 142 130 c 0
 142 110 148 93 161 79 c 0
 175 64 193 57 214 57 c 0
EndSplineSet
EndChar
StartChar: quoteleft
Encoding: 145 8216 115
OldEncoding: 8216
Width: 249
Flags: W
Fore
-12 837 m 0
 -14 902 4 952 41 986 c 0
 77 1019 118 1040 163 1048 c 1
 184 1049 195 1045 195 1037 c 0
 195 1034 192 1030 188 1026 c 1
 171 1020 147 1006 116 985 c 0
 86 967 70 943 66 913 c 1
 84 917 l 1
 110 923 l 1
 172 917 203 885 204 827 c 0
 204 800 196 777 179 758 c 0
 163 738 140 728 110 728 c 0
 32 727 -9 763 -12 837 c 0
EndSplineSet
EndChar
StartChar: quoteright
Encoding: 146 8217 116
OldEncoding: 8217
Width: 249
Flags: W
HStem: 1030 21G<96.5 150.5>
Fore
231 920 m 4
 231 855 213 806 176 772 c 4
 139 739 98 719 53 711 c 5
 32 711 21 715 21 723 c 4
 21 726 23 730 28 734 c 5
 45 740 70 754 101 774 c 4
 130 791 147 815 153 845 c 5
 134 841 l 5
 109 836 l 5
 48 843 17 875 17 933 c 4
 17 960 25 983 42 1002 c 4
 58 1021 81 1030 112 1030 c 4
 189 1030 229 993 231 920 c 4
EndSplineSet
EndChar
StartChar: quotedblleft
Encoding: 147 8220 117
OldEncoding: 8220
Width: 463
Flags: W
Fore
242 840 m 0
 241 904 258 954 295 989 c 0
 331 1023 372 1044 417 1053 c 1
 439 1053 450 1049 450 1040 c 1
 444 1030 l 1
 443 1029 l 2
 428 1024 403 1010 370 988 c 0
 341 971 324 947 320 916 c 1
 338 922 l 1
 363 926 l 1
 426 920 457 888 458 830 c 0
 458 803 450 780 433 761 c 0
 417 742 394 732 364 732 c 0
 286 730 245 766 242 840 c 0
-12 837 m 4
 -14 902 4 952 41 986 c 4
 77 1019 118 1040 163 1048 c 5
 184 1049 195 1045 195 1037 c 4
 195 1034 192 1030 188 1026 c 5
 171 1020 147 1006 116 985 c 4
 86 967 70 943 66 913 c 5
 84 917 l 5
 110 923 l 5
 172 917 203 885 204 827 c 4
 204 800 196 777 179 758 c 4
 163 738 140 728 110 728 c 4
 32 727 -9 763 -12 837 c 4
EndSplineSet
EndChar
StartChar: quotedblright
Encoding: 148 8221 118
OldEncoding: 8221
Width: 463
Flags: W
HStem: 1030 21G<96 150 350 404.5>
Fore
232 920 m 4
 232 856 213 806 176 772 c 4
 140 739 98 719 53 711 c 5
 31 711 21 715 21 723 c 4
 21 726 23 730 27 734 c 5
 43 740 68 753 102 774 c 4
 131 791 148 815 153 845 c 5
 135 841 l 5
 109 836 l 5
 47 843 16 875 16 933 c 4
 16 960 25 983 42 1002 c 4
 58 1021 81 1030 111 1030 c 4
 189 1030 230 993 232 920 c 4
486 920 m 4
 486 855 468 806 431 772 c 4
 394 739 353 719 308 711 c 5
 286 711 276 715 276 723 c 4
 276 726 278 730 283 734 c 5
 300 740 324 754 356 774 c 4
 386 791 402 815 407 845 c 5
 389 841 l 5
 363 836 l 5
 301 843 270 875 270 933 c 4
 270 960 279 983 296 1002 c 4
 312 1021 335 1030 365 1030 c 4
 444 1030 484 993 486 920 c 4
EndSplineSet
EndChar
StartChar: bullet
Encoding: 149 8226 119
OldEncoding: 8226
Width: 370
Flags: W
Fore
174 209 m 0
 113 209 64 229 28 269 c 0
 -6 308 -23 353 -23 406 c 0
 -23 441 -15 473 -0 501 c 0
 18 533 41 558 68 576 c 0
 97 594 133 603 174 603 c 0
 217 603 253 594 282 576 c 0
 311 557 334 533 350 503 c 1
 364 474 371 441 371 406 c 0
 371 352 354 305 320 267 c 0
 286 229 237 209 174 209 c 0
EndSplineSet
EndChar
StartChar: endash
Encoding: 150 8211 120
OldEncoding: 8211
Width: 1090
Flags: W
HStem: 350 58<-36 1062>
Fore
-36 350 m 1
 -36 408 l 1
 1062 408 l 1
 1062 350 l 1
 -36 350 l 1
EndSplineSet
EndChar
StartChar: emdash
Encoding: 151 8212 121
OldEncoding: 8212
Width: 2183
Flags: W
HStem: 350 58<-103 2153>
Fore
-103 350 m 1
 -103 408 l 1
 2153 408 l 1
 2153 350 l 1
 -103 350 l 1
EndSplineSet
EndChar
StartChar: uni0E31.left
Encoding: 152 63248 122
OldEncoding: 63248
Width: 0
Flags: W
HStem: 850 124<-478 -304> 1108 67<-478 -466>
VStem: -611 67<1022 1042> -410 71<1027.81 1043>
Fore
-611 1022 m 1
 -611 1067 -600 1103 -577 1131 c 0
 -554 1160 -521 1175 -478 1175 c 0
 -435 1175 -401 1161 -375 1135 c 0
 -351 1111 -339 1079 -339 1040 c 0
 -339 1001 -353 969 -380 943 c 1
 -341 936 l 1
 -299 932 l 1
 -233 934 -170 955 -111 996 c 0
 -53 1038 -16 1090 -1 1152 c 1
 83 1112 l 1
 69 1067 43 1024 6 985 c 0
 -31 947 -77 915 -132 888 c 0
 -186 863 -243 850 -304 850 c 0
 -381 850 -450 864 -511 890 c 1
 -571 919 -604 963 -611 1022 c 1
-478 974 m 0
 -456 974 -440 980 -429 994 c 0
 -416 1007 -410 1022 -410 1040 c 0
 -410 1061 -415 1077 -427 1089 c 0
 -440 1102 -456 1108 -478 1108 c 0
 -497 1108 -514 1102 -528 1089 c 1
 -539 1076 -544 1060 -544 1040 c 0
 -544 1025 -538 1010 -526 994 c 0
 -514 980 -498 974 -478 974 c 0
EndSplineSet
EndChar
StartChar: uni0E4D.left
Encoding: 153 63249 123
OldEncoding: 63249
Width: 0
Flags: W
HStem: 909 66<-426 -424> 1129 64<-440.668 -423>
VStem: -569 64<1039.03 1055> -347 62<1038.14 1055>
Fore
-426 909 m 4
 -470 909 -505 923 -530 953 c 4
 -556 981 -569 1014 -569 1052 c 4
 -569 1089 -556 1121 -530 1149 c 5
 -506 1179 -471 1193 -426 1193 c 4
 -381 1193 -347 1179 -322 1152 c 4
 -297 1126 -285 1093 -285 1052 c 4
 -285 1011 -297 978 -322 950 c 4
 -348 923 -382 909 -426 909 c 4
-426 1129 m 4
 -451 1129 -471 1121 -484 1105 c 4
 -498 1089 -505 1071 -505 1052 c 4
 -505 1032 -498 1013 -484 997 c 4
 -471 982 -451 975 -426 975 c 4
 -400 975 -381 982 -368 997 c 4
 -354 1012 -347 1030 -347 1052 c 4
 -347 1066 -350 1077 -357 1087 c 4
 -366 1102 -375 1112 -384 1118 c 4
 -397 1125 -411 1129 -426 1129 c 4
EndSplineSet
EndChar
StartChar: uni0E47.left
Encoding: 154 63250 124
OldEncoding: 63250
Width: 0
Flags: W
HStem: 849 53<-337.984 -323> 961 73<-544 -531.779> 1007 51<-336.67 -323> 1109 64<-429 -371> 1115 67<-553 -513>
VStem: -740 70<1025 1041> -275 53<956 967>
Fore
-326 849 m 4
 -348 849 -367 854 -383 866 c 5
 -404 877 -426 892 -449 910 c 5
 -502 948 l 6
 -514 956 -528 961 -544 961 c 4
 -578 958 -601 944 -613 917 c 4
 -624 886 -631 862 -633 844 c 5
 -666 862 -691 889 -710 923 c 4
 -730 960 -740 997 -740 1034 c 4
 -740 1059 -737 1078 -730 1092 c 4
 -705 1152 -646 1182 -551 1182 c 5
 -490 1180 l 5
 -456 1175 -423 1173 -392 1173 c 4
 -349 1173 -318 1181 -298 1196 c 4
 -278 1210 -268 1236 -268 1275 c 5
 -194 1275 l 5
 -194 1214 -210 1171 -242 1145 c 5
 -276 1121 -331 1109 -407 1109 c 4
 -439 1109 -474 1111 -513 1115 c 5
 -569 1115 -608 1110 -631 1098 c 4
 -657 1087 -670 1067 -670 1039 c 4
 -670 1019 -664 995 -650 965 c 5
 -648 970 -637 985 -617 1009 c 5
 -601 1026 -576 1034 -544 1034 c 4
 -517 1034 -493 1028 -472 1016 c 5
 -450 1000 -435 988 -427 981 c 5
 -412 1032 -378 1058 -326 1058 c 4
 -294 1058 -268 1048 -249 1027 c 4
 -231 1007 -222 983 -222 956 c 4
 -222 927 -231 902 -249 882 c 4
 -269 860 -295 849 -326 849 c 4
-326 902 m 4
 -308 902 -294 908 -286 919 c 4
 -279 929 -275 941 -275 956 c 4
 -275 970 -279 982 -286 992 c 5
 -296 1002 -309 1007 -326 1007 c 4
 -340 1007 -353 1002 -365 992 c 5
 -374 981 -379 969 -379 956 c 4
 -379 943 -374 930 -365 919 c 4
 -357 908 -344 902 -326 902 c 4
EndSplineSet
EndChar
StartChar: uni0E48.left
Encoding: 155 63251 125
OldEncoding: 63251
Width: 0
Flags: W
VStem: -339 88<1298 1569>
Fore
-339 1298 m 1
 -339 1569 l 1
 -251 1569 l 1
 -251 1298 l 5
 -339 1298 l 1
EndSplineSet
EndChar
StartChar: uni0E49.left
Encoding: 156 63252 126
OldEncoding: 63252
Width: 0
Flags: W
HStem: 1570 60<-461 -449>
VStem: -582 64<1515 1520> -404 69<1507 1520>
Fore
-335 1508 m 4
 -333 1474 -338 1442 -353 1411 c 4
 -365 1387 -377 1371 -388 1362 c 5
 -335 1367 l 6
 -313 1370 -297 1374 -286 1378 c 4
 -269 1385 -250 1397 -231 1413 c 4
 -203 1438 -184 1468 -175 1501 c 4
 -167 1537 -163 1577 -163 1621 c 5
 -77 1621 l 5
 -77 1477 -127 1381 -226 1332 c 4
 -274 1307 -332 1295 -399 1295 c 5
 -474 1299 l 5
 -518 1309 l 5
 -510 1313 -498 1322 -480 1336 c 5
 -462 1355 -449 1378 -443 1404 c 5
 -452 1401 l 5
 -474 1399 l 5
 -503 1404 l 5
 -556 1420 -582 1457 -582 1515 c 4
 -582 1538 -578 1557 -568 1573 c 4
 -555 1592 -540 1607 -524 1617 c 5
 -505 1626 -484 1630 -461 1630 c 4
 -420 1630 -390 1619 -370 1596 c 4
 -346 1568 -335 1538 -335 1508 c 4
-461 1570 m 4
 -478 1570 -492 1565 -503 1555 c 4
 -513 1543 -518 1529 -518 1515 c 4
 -518 1498 -513 1485 -503 1476 c 4
 -491 1463 -477 1457 -461 1457 c 4
 -445 1457 -430 1463 -418 1476 c 4
 -408 1486 -404 1499 -404 1515 c 4
 -404 1529 -408 1543 -418 1555 c 4
 -429 1565 -443 1570 -461 1570 c 4
EndSplineSet
EndChar
StartChar: uni0E4A.left
Encoding: 157 63253 127
OldEncoding: 63253
Width: 0
Flags: W
HStem: 1288 42<-499 -485.743> 1432 42<-499 -486.218> 1531 62<-501 -487 -345 -330>
VStem: -624 74<1452 1470> -448 42<1374 1385> -286 62<1432 1465> -142 67<1512 1540>
Fore
-499 1288 m 4
 -536 1290 -566 1308 -588 1341 c 5
 -614 1375 -626 1412 -624 1452 c 4
 -624 1490 -611 1523 -586 1551 c 5
 -566 1579 -537 1593 -499 1593 c 4
 -483 1593 -469 1591 -457 1587 c 4
 -442 1580 -431 1573 -422 1565 c 6
 -411 1554 l 5
 -407 1560 -398 1568 -383 1580 c 4
 -369 1589 -352 1593 -330 1593 c 4
 -259 1593 -224 1546 -224 1452 c 4
 -224 1419 -233 1386 -251 1353 c 5
 -240 1356 -227 1365 -210 1379 c 4
 -193 1391 -179 1404 -170 1419 c 4
 -152 1447 -142 1478 -142 1512 c 4
 -142 1527 -145 1548 -151 1575 c 5
 -82 1598 l 5
 -78 1584 -75 1565 -75 1540 c 4
 -75 1478 -91 1425 -122 1381 c 4
 -160 1324 -237 1295 -353 1295 c 5
 -325 1330 l 6
 -315 1342 -307 1357 -299 1376 c 4
 -290 1394 -286 1415 -286 1438 c 4
 -286 1469 -289 1491 -295 1505 c 4
 -303 1522 -319 1531 -343 1531 c 4
 -359 1531 -372 1525 -383 1514 c 4
 -398 1500 -405 1491 -406 1487 c 5
 -431 1514 l 6
 -442 1525 -461 1531 -489 1531 c 4
 -507 1531 -522 1525 -533 1512 c 4
 -544 1501 -550 1484 -550 1459 c 5
 -531 1468 l 5
 -499 1474 l 5
 -471 1474 -448 1465 -429 1448 c 4
 -414 1432 -406 1409 -406 1376 c 4
 -406 1354 -416 1334 -434 1315 c 4
 -453 1297 -474 1288 -499 1288 c 4
-499 1432 m 4
 -515 1432 -527 1426 -535 1415 c 4
 -545 1404 -550 1393 -550 1381 c 4
 -550 1367 -545 1355 -535 1346 c 5
 -527 1335 -515 1330 -499 1330 c 4
 -480 1330 -468 1335 -462 1346 c 5
 -453 1353 -448 1364 -448 1381 c 4
 -448 1394 -453 1406 -462 1417 c 4
 -469 1427 -481 1432 -499 1432 c 4
EndSplineSet
EndChar
StartChar: uni0E4B.left
Encoding: 158 63254 128
OldEncoding: 63254
Width: 0
Flags: W
HStem: 1422 79<-485 -341 -253 -107>
VStem: -341 88<1309 1422 1501 1617>
Fore
-341 1422 m 5
 -485 1422 l 5
 -485 1501 l 5
 -341 1501 l 5
 -341 1617 l 5
 -253 1617 l 5
 -253 1501 l 5
 -107 1501 l 5
 -107 1422 l 5
 -253 1422 l 5
 -253 1309 l 5
 -341 1309 l 5
 -341 1422 l 5
EndSplineSet
EndChar
StartChar: uni0E4C.left
Encoding: 159 63255 129
OldEncoding: 63255
Width: 0
Flags: W
HStem: 1237 62<-332 -320.275>
VStem: -480 99<1348 1378> -281 56<1343 1350>
Fore
-412 1403 m 5
 -410 1411 -402 1421 -389 1434 c 4
 -380 1443 -360 1449 -332 1452 c 5
 -298 1449 -272 1439 -253 1420 c 5
 -234 1397 -225 1373 -225 1345 c 4
 -225 1318 -234 1293 -253 1272 c 4
 -272 1249 -299 1237 -332 1237 c 4
 -376 1235 -412 1248 -440 1277 c 4
 -467 1303 -480 1337 -480 1378 c 4
 -480 1451 -450 1502 -389 1531 c 4
 -363 1544 -322 1551 -266 1553 c 4
 -216 1556 -177 1562 -151 1573 c 5
 -128 1579 -116 1601 -116 1637 c 5
 -47 1637 l 5
 -47 1605 -56 1578 -74 1556 c 5
 -94 1535 -115 1522 -138 1515 c 5
 -166 1503 -205 1496 -255 1494 c 4
 -302 1491 -339 1485 -364 1475 c 4
 -389 1466 -405 1442 -412 1403 c 5
-332 1396 m 4
 -364 1396 -381 1380 -381 1348 c 4
 -381 1337 -376 1326 -366 1315 c 5
 -360 1304 -348 1299 -332 1299 c 4
 -316 1299 -304 1304 -295 1313 c 5
 -286 1325 -281 1336 -281 1348 c 4
 -281 1362 -286 1374 -295 1383 c 5
 -301 1392 -314 1396 -332 1396 c 4
EndSplineSet
EndChar
StartChar: uni0E01
Encoding: 161 3585 131
OldEncoding: 3585
Width: 795
Flags: W
HStem: 0 21G<86 183 578 675> 717 84<339 389>
VStem: 86 97<0 417> 578 97<0 561>
Fore
4 618 m 5
 25 649 67 687 128 733 c 4
 189 778 267 801 360 801 c 4
 417 801 470 792 521 773 c 4
 568 756 605 727 634 687 c 4
 662 648 675 601 675 546 c 6
 675 0 l 5
 578 0 l 5
 578 546 l 6
 578 583 568 613 548 636 c 5
 530 662 505 682 472 696 c 4
 441 710 404 717 363 717 c 4
 280 717 208 692 148 641 c 5
 160 638 183 630 217 616 c 4
 249 601 279 581 307 556 c 5
 285 550 259 536 232 514 c 4
 199 491 183 451 183 395 c 6
 183 0 l 5
 86 0 l 5
 86 391 l 6
 86 435 94 471 111 497 c 5
 130 521 153 539 178 550 c 5
 166 561 145 573 117 588 c 4
 86 606 48 616 4 618 c 5
EndSplineSet
EndChar
StartChar: uni0E02
Encoding: 162 3586 132
OldEncoding: 3586
Width: 808
Flags: W
HStem: 0 84<200 533> 464 73<134 156> 728 74<235 261> 767 20G<591 688>
VStem: 4 79<610 637> 297 97<84 369> 381 90<593 613> 591 97<127.616 787>
Fore
235 802 m 4
 283 802 324 793 360 774 c 0
 395 753 423 728 443 697 c 0
 462 668 471 636 471 600 c 0
 471 568 468 545 462 531 c 1
 434 478 l 1
 418 452 408 434 404 425 c 0
 398 410 394 384 394 348 c 2
 394 84 l 1
 520 84 l 2
 551 84 571 88 580 97 c 0
 587 105 591 122 591 150 c 2
 591 787 l 1
 688 787 l 1
 688 150 l 2
 688 88 678 47 657 28 c 0
 633 9 588 0 520 0 c 2
 200 0 l 1
 200 84 l 1
 297 84 l 1
 297 361 l 2
 297 392 300 415 306 429 c 0
 310 440 320 457 335 480 c 0
 350 500 361 517 367 531 c 0
 374 547 379 567 381 593 c 1
 381 634 369 666 344 690 c 0
 320 715 289 728 251 728 c 1
 216 723 l 1
 229 721 246 710 267 690 c 0
 290 671 300 639 297 593 c 0
 297 553 282 521 251 498 c 0
 222 476 183 464 134 464 c 1
 47 476 4 533 4 637 c 1
 10 687 38 727 87 758 c 0
 136 787 186 802 235 802 c 4
154 681 m 0
 130 681 112 674 101 661 c 0
 89 645 83 628 83 610 c 0
 83 592 89 576 101 561 c 1
 111 546 129 537 154 537 c 0
 179 537 196 546 207 561 c 1
 220 576 226 593 226 610 c 0
 226 627 220 644 207 661 c 0
 196 674 178 681 154 681 c 0
EndSplineSet
EndChar
StartChar: uni0E03
Encoding: 163 3587 133
OldEncoding: 3587
Width: 860
Flags: W
HStem: 0 84<252 593> 352 72<133 145> 568 67<127 135> 767 20G<643 740>
VStem: -32 93<496 547> 204 75<492 510> 349 97<84 513> 435 84<652 667> 643 97<127.912 787>
Fore
519 654 m 0
 519 636 516 623 510 615 c 2
 484 584 l 1
 474 576 465 565 456 551 c 0
 450 541 446 525 446 503 c 2
 446 84 l 1
 572 84 l 2
 604 84 623 88 630 97 c 1
 639 104 643 122 643 150 c 2
 643 787 l 1
 740 787 l 1
 740 150 l 2
 740 88 730 47 709 28 c 0
 688 9 642 0 572 0 c 2
 252 0 l 1
 252 84 l 1
 349 84 l 1
 349 508 l 2
 349 537 352 558 359 573 c 0
 365 584 374 596 385 608 c 1
 422 635 l 2
 431 642 435 650 435 661 c 0
 435 674 428 689 413 705 c 1
 395 720 380 728 369 730 c 1
 274 665 l 1
 162 730 l 1
 130 723 105 706 88 679 c 1
 70 655 61 632 61 610 c 1
 63 612 70 618 84 626 c 0
 94 632 111 635 135 635 c 0
 175 633 209 621 236 600 c 0
 264 576 279 541 279 494 c 0
 279 451 263 417 232 390 c 0
 202 365 169 352 133 352 c 0
 85 352 46 370 14 405 c 0
 -17 442 -32 489 -32 547 c 0
 -32 587 -27 620 -16 646 c 1
 -4 691 23 729 65 760 c 0
 105 788 141 802 172 802 c 1
 274 739 l 1
 363 802 l 1
 403 789 439 770 470 746 c 0
 503 720 519 689 519 654 c 0
133 568 m 0
 110 568 93 561 82 547 c 1
 67 533 61 516 61 496 c 0
 61 478 67 462 82 447 c 1
 92 432 109 424 133 424 c 0
 157 424 174 431 186 445 c 1
 198 463 204 480 204 496 c 0
 204 515 198 532 186 547 c 0
 174 561 157 568 133 568 c 0
EndSplineSet
EndChar
StartChar: uni0E04
Encoding: 164 3588 134
OldEncoding: 3588
Width: 803
Flags: W
HStem: 0 21G<154 249 586 683> 328 69<337 348> 541 72<337 348> 728 79<331 365>
VStem: 12 95<511 543> 154 95<0 355> 408 70<470 481> 586 97<0 545>
Fore
107 520 m 4
 107 493 116 462 133 426 c 4
 148 393 158 365 163 342 c 5
 163 416 l 6
 163 473 177 520 207 558 c 4
 238 595 281 613 337 613 c 4
 380 613 415 599 441 571 c 4
 466 544 478 510 478 470 c 4
 478 429 466 396 441 370 c 4
 416 342 381 328 337 328 c 4
 296 328 267 337 249 355 c 5
 249 0 l 5
 154 0 l 5
 154 141 l 6
 154 176 148 207 138 233 c 4
 128 255 110 288 82 331 c 4
 60 365 42 398 29 430 c 5
 18 453 12 484 12 525 c 4
 12 584 29 635 61 678 c 4
 94 723 137 755 189 775 c 5
 241 797 295 807 353 807 c 4
 440 807 517 783 584 735 c 4
 650 687 683 620 683 534 c 6
 683 0 l 5
 586 0 l 5
 586 525 l 6
 586 591 563 641 515 675 c 4
 466 711 410 728 346 728 c 4
 280 728 224 711 177 675 c 4
 131 640 107 588 107 520 c 4
337 541 m 4
 313 541 295 534 284 520 c 4
 271 505 264 488 264 470 c 4
 264 452 271 436 284 421 c 5
 294 405 312 397 337 397 c 4
 362 397 379 405 390 421 c 5
 402 435 408 452 408 470 c 4
 408 489 402 506 390 520 c 4
 379 534 361 541 337 541 c 4
EndSplineSet
EndChar
StartChar: uni0E05
Encoding: 165 3589 135
OldEncoding: 3589
Width: 803
Flags: W
HStem: 0 21G<154 249 586 683> 329 69<337 349> 541 72<337 349>
VStem: 12 95<511 525> 154 95<0 356> 408 70<470 481> 586 97<0 560>
DStem: 244 720 235 801 323 669 369 711 501 801 496 720 369 711 369 636
Fore
12 525 m 4
 12 580 34 632 78 682 c 4
 121 734 173 773 235 801 c 5
 369 711 l 5
 501 801 l 5
 623 743 683 654 683 534 c 6
 683 0 l 5
 586 0 l 5
 586 525 l 6
 586 561 584 590 580 613 c 5
 571 639 563 658 556 667 c 4
 551 674 542 684 527 696 c 6
 496 720 l 5
 369 636 l 5
 323 669 l 5
 244 720 l 5
 197 696 163 668 142 636 c 4
 121 601 110 563 107 521 c 4
 107 494 116 462 133 426 c 4
 148 394 158 366 163 342 c 5
 163 417 l 6
 163 473 177 520 207 558 c 4
 238 595 281 613 337 613 c 4
 380 613 415 600 441 572 c 4
 466 545 478 511 478 470 c 4
 478 429 466 396 441 371 c 4
 416 343 381 329 337 329 c 4
 296 329 267 338 249 356 c 5
 249 0 l 5
 154 0 l 5
 154 141 l 6
 154 177 148 207 138 234 c 4
 128 256 110 288 82 331 c 4
 60 366 42 399 29 430 c 5
 18 453 12 485 12 525 c 4
337 541 m 4
 313 541 295 534 284 521 c 4
 271 506 264 489 264 470 c 4
 264 453 271 436 284 421 c 5
 294 406 312 398 337 398 c 4
 362 398 379 406 390 421 c 5
 402 436 408 452 408 470 c 4
 408 490 402 507 390 521 c 4
 379 534 361 541 337 541 c 4
EndSplineSet
EndChar
StartChar: uni0E06
Encoding: 166 3590 136
OldEncoding: 3590
Width: 1005
Flags: W
HStem: -14 80<314 332> 0 21G<789 886> 352 72<143 156> 767 20G<789 886>
VStem: -21 93<496 546> 178 81<145 167> 215 71<491 510> 358 97<102 266 341 515> 445 81<652 667> 789 97<0 13.7463 164 787>
Fore
358 342 m 1
 358 508 l 2
 358 534 362 555 370 572 c 0
 377 588 385 601 395 610 c 1
 432 635 l 2
 441 642 445 650 445 661 c 0
 445 674 438 689 423 705 c 1
 406 719 392 727 379 730 c 1
 282 665 l 1
 171 730 l 1
 145 724 120 707 96 679 c 1
 78 654 69 631 69 610 c 1
 92 626 l 2
 102 632 119 635 143 635 c 0
 185 633 219 620 244 597 c 1
 272 577 286 542 286 493 c 0
 286 450 271 416 240 389 c 0
 210 365 178 352 143 352 c 0
 95 352 56 370 25 405 c 0
 -6 443 -21 490 -21 546 c 0
 -21 579 -17 612 -8 646 c 0
 5 690 32 728 74 760 c 1
 114 788 150 802 180 802 c 1
 282 739 l 1
 374 802 l 1
 412 789 447 770 478 745 c 0
 511 721 526 690 526 654 c 0
 526 636 524 623 518 614 c 0
 507 600 499 590 492 584 c 0
 478 570 469 559 465 551 c 0
 459 541 455 525 455 502 c 2
 455 342 l 1
 509 338 558 325 601 305 c 1
 641 288 680 266 717 238 c 1
 745 214 769 189 789 164 c 1
 789 787 l 1
 886 787 l 1
 886 0 l 1
 789 0 l 1
 789 30 774 64 745 104 c 0
 712 147 670 182 620 210 c 1
 571 239 515 258 455 266 c 1
 455 119 l 2
 455 80 445 48 423 22 c 1
 400 -2 367 -14 326 -14 c 4
 278 -14 241 3 217 37 c 1
 191 69 178 109 178 155 c 0
 178 204 194 248 226 284 c 0
 256 321 300 340 358 342 c 1
282 88 m 1
 294 74 308 66 323 66 c 0
 347 66 358 80 358 106 c 2
 358 271 l 1
 326 271 301 260 284 238 c 1
 267 213 259 187 259 159 c 0
 259 127 267 103 282 88 c 1
143 568 m 0
 119 568 101 561 90 546 c 1
 77 534 72 517 72 496 c 0
 72 480 77 463 90 445 c 1
 101 431 119 424 143 424 c 0
 167 424 184 431 196 445 c 0
 209 461 215 478 215 496 c 0
 215 517 209 534 196 546 c 1
 184 561 167 568 143 568 c 0
EndSplineSet
EndChar
StartChar: uni0E07
Encoding: 167 3591 137
OldEncoding: 3591
Width: 632
Flags: W
HStem: -15 87<379 390> 513 71<356.004 383> 725 72<354.966 383>
VStem: 228 70<656 658> 415 97<98 522> 443 69<652 658>
DStem: 2 494 77 536 260 54 339 98
Fore
415 110 m 2
 415 522 l 1
 405 516 390 513 369 513 c 0
 324 513 290 528 265 557 c 0
 240 584 228 617 228 656 c 0
 228 696 240 730 265 758 c 1
 293 785 327 797 369 797 c 0
 397 797 422 791 446 779 c 0
 468 766 485 749 497 728 c 0
 507 709 512 684 512 654 c 2
 512 103 l 2
 512 65 501 36 478 15 c 0
 456 -5 426 -15 390 -15 c 4
 364 -15 340 -9 318 1 c 0
 291 16 272 34 260 54 c 2
 2 494 l 1
 77 536 l 1
 339 98 l 2
 349 81 363 72 381 72 c 0
 391 72 399 76 406 82 c 0
 412 88 415 98 415 110 c 2
369 725 m 0
 348 725 331 719 318 705 c 1
 304 688 298 672 298 656 c 0
 298 638 304 622 316 608 c 0
 329 592 347 584 369 584 c 0
 393 584 412 592 425 608 c 0
 437 622 443 638 443 656 c 0
 443 672 436 689 422 705 c 0
 408 719 391 725 369 725 c 0
EndSplineSet
EndChar
StartChar: uni0E08
Encoding: 168 3592 138
OldEncoding: 3592
Width: 749
Flags: W
HStem: 0 21G<533 630> 497 77<292 296> 727 75<290 343>
VStem: 151 69<426 437> 533 97<0 34.3622 320 561>
Fore
292 574 m 4
 340 574 380 558 412 525 c 4
 442 495 469 454 493 402 c 6
 533 320 l 5
 533 541 l 6
 533 599 513 644 473 676 c 4
 430 710 378 727 317 727 c 4
 214 729 131 686 69 599 c 5
 7 647 l 5
 29 686 68 722 125 755 c 5
 184 786 249 802 319 802 c 4
 377 802 431 791 480 771 c 4
 528 749 565 720 588 682 c 5
 616 643 630 596 630 541 c 6
 630 0 l 5
 533 0 l 5
 533 48 527 96 517 143 c 4
 506 185 492 230 473 280 c 5
 456 316 438 347 420 373 c 5
 414 359 403 342 385 322 c 5
 364 301 333 289 292 287 c 5
 251 287 217 301 193 329 c 5
 165 356 151 391 151 435 c 4
 151 476 164 510 190 534 c 5
 215 561 249 574 292 574 c 4
292 497 m 4
 268 497 250 490 239 477 c 4
 226 462 220 446 220 428 c 4
 220 410 227 394 241 380 c 5
 252 364 269 356 292 356 c 4
 314 356 331 363 343 377 c 4
 355 392 361 409 361 428 c 4
 361 448 356 464 345 477 c 4
 334 490 316 497 292 497 c 4
EndSplineSet
EndChar
StartChar: uni0E09
Encoding: 169 3593 139
OldEncoding: 3593
Width: 852
Flags: W
HStem: -14 76<679 699> 0 21G<182 279> 266 69<123.133 141> 479 71<123.133 141> 725 77<381 396>
VStem: -5 71<401 419> 182 97<0 14.716 0 404> 209 70<401 419> 587 97<77 261 337 563> 761 73<155 171>
Fore
279 404 m 2
 279 169 l 1
 311 214 358 253 418 284 c 0
 478 314 534 332 587 338 c 1
 587 542 l 2
 587 601 568 646 531 676 c 1
 495 709 444 725 381 725 c 0
 328 725 280 712 235 685 c 0
 195 661 162 630 138 593 c 1
 76 641 l 1
 108 689 148 727 198 756 c 0
 254 786 315 802 381 802 c 0
 471 802 544 779 602 732 c 0
 657 688 684 625 684 542 c 2
 684 338 l 1
 733 329 771 309 798 278 c 1
 822 246 834 205 834 155 c 0
 834 103 820 63 791 35 c 0
 761 2 724 -14 679 -14 c 0
 652 -14 629 -6 613 11 c 0
 595 28 587 51 587 79 c 2
 587 261 l 1
 529 249 476 230 430 203 c 0
 380 173 343 140 319 104 c 0
 293 66 279 31 279 0 c 1
 182 0 l 1
 182 275 l 1
 174 269 159 266 138 266 c 0
 93 266 58 281 34 309 c 0
 8 338 -5 371 -5 409 c 0
 -5 449 7 482 32 509 c 0
 57 536 92 550 138 550 c 0
 181 550 215 536 240 509 c 0
 266 481 279 446 279 404 c 2
138 479 m 0
 114 479 96 472 85 458 c 0
 72 442 66 425 66 406 c 0
 66 389 72 372 85 356 c 0
 96 342 114 335 138 335 c 0
 162 335 180 342 191 356 c 1
 203 374 209 391 209 406 c 0
 209 425 203 443 191 458 c 0
 180 472 162 479 138 479 c 0
761 155 m 0
 761 182 755 206 743 229 c 1
 727 248 707 258 684 261 c 1
 684 83 l 2
 684 69 689 62 699 62 c 0
 716 62 731 71 743 90 c 0
 755 110 761 131 761 155 c 0
EndSplineSet
EndChar
StartChar: uni0E0A
Encoding: 170 3594 140
OldEncoding: 3594
Width: 803
Flags: W
HStem: 0 84<195 528> 464 73<128 151> 593 70<452 466> 727 75<230 248>
VStem: -1 79<609 637> 292 97<84 369> 586 97<151 477>
Fore
573 632 m 5
 582 632 595 629 610 623 c 4
 626 616 642 601 658 577 c 4
 675 550 683 515 683 473 c 6
 683 151 l 6
 683 88 673 47 652 29 c 4
 628 10 583 0 515 0 c 6
 195 0 l 5
 195 84 l 5
 292 84 l 5
 292 361 l 6
 292 392 295 414 301 429 c 4
 305 440 315 457 330 479 c 4
 345 499 356 516 362 530 c 4
 369 546 374 567 376 593 c 5
 376 633 364 666 339 690 c 4
 315 715 284 727 246 727 c 5
 211 722 l 5
 224 720 241 709 262 690 c 4
 284 671 295 638 292 593 c 4
 292 553 277 521 246 498 c 4
 217 475 177 464 128 464 c 5
 42 475 -1 533 -1 637 c 5
 5 686 33 727 82 757 c 4
 131 787 180 802 230 802 c 4
 263 802 297 795 332 782 c 4
 360 772 385 755 409 731 c 4
 428 713 442 690 452 663 c 5
 477 663 514 675 561 699 c 4
 613 724 660 773 703 846 c 5
 771 802 l 5
 745 746 712 705 672 681 c 5
 625 654 591 638 573 632 c 5
464 593 m 5
 464 563 461 542 454 528 c 4
 443 502 434 485 429 477 c 4
 412 452 402 433 399 422 c 4
 393 405 389 380 389 347 c 6
 389 84 l 5
 515 84 l 6
 546 84 566 89 575 98 c 4
 582 105 586 123 586 151 c 6
 586 454 l 6
 586 546 545 593 464 593 c 5
149 681 m 4
 125 681 107 674 96 660 c 4
 84 644 78 628 78 609 c 4
 78 591 84 575 96 561 c 5
 106 545 124 537 149 537 c 4
 174 537 191 545 202 561 c 5
 215 576 221 592 221 609 c 4
 221 627 215 644 202 660 c 4
 191 674 173 681 149 681 c 4
EndSplineSet
EndChar
StartChar: uni0E0B
Encoding: 171 3595 141
OldEncoding: 3595
Width: 855
Flags: W
HStem: -1 84<247 587> 351 72<127 139> 566 67<121 130>
VStem: -38 93<494 545> 199 75<490 506> 344 97<83 512> 638 97<126.912 494>
Fore
514 675 m 5
 547 684 585 702 627 728 c 4
 677 757 720 804 754 867 c 5
 826 821 l 5
 807 784 782 752 752 726 c 4
 727 704 699 685 669 670 c 4
 637 654 619 645 615 644 c 5
 634 642 660 630 691 608 c 5
 721 586 735 540 735 471 c 6
 735 149 l 6
 735 87 725 46 704 27 c 4
 683 8 637 -1 567 -1 c 6
 247 -1 l 5
 247 83 l 5
 344 83 l 5
 344 506 l 6
 344 542 351 568 363 584 c 4
 376 601 393 617 417 633 c 4
 426 640 430 648 430 659 c 4
 430 673 423 687 408 703 c 5
 389 718 375 726 363 728 c 5
 269 664 l 5
 157 728 l 5
 124 721 100 704 83 677 c 5
 64 653 55 630 55 608 c 5
 57 610 64 616 79 624 c 4
 89 630 105 633 130 633 c 4
 170 631 203 619 231 598 c 4
 259 575 274 539 274 492 c 4
 274 450 258 415 227 388 c 4
 197 363 163 351 127 351 c 4
 80 351 40 368 9 404 c 4
 -22 440 -38 487 -38 545 c 4
 -38 585 -32 618 -21 644 c 5
 -9 690 17 728 60 758 c 4
 100 786 136 800 167 800 c 5
 269 737 l 5
 358 800 l 5
 395 792 422 780 441 763 c 4
 467 743 485 723 495 705 c 5
 514 675 l 5
 514 675 l 5
505 608 m 5
 479 582 l 5
 465 573 456 563 450 552 c 4
 444 542 441 525 441 501 c 6
 441 83 l 5
 567 83 l 6
 599 83 618 87 625 96 c 5
 634 103 638 121 638 149 c 6
 638 471 l 6
 638 563 594 608 505 608 c 5
127 566 m 4
 105 566 88 559 76 545 c 5
 62 531 55 514 55 494 c 4
 55 476 62 460 76 445 c 5
 87 430 104 423 127 423 c 4
 151 423 169 430 180 443 c 5
 192 461 199 478 199 494 c 4
 199 514 192 531 180 545 c 4
 169 559 151 566 127 566 c 4
EndSplineSet
EndChar
StartChar: uni0E0C
Encoding: 172 3596 142
OldEncoding: 3596
Width: 1039
Flags: W
HStem: -14 71<200 219> 0 21G<822 919> 199 72<200 219> 730 72<309 356> 767 20G<822 919>
VStem: 71 71<116.414 141> 71 97<130 435> 286 68<116.414 141> 390 68<128 151> 510 97<91 210 288 595> 822 97<141 787>
Fore
168 415 m 2
 168 261 l 1
 174 268 190 271 217 271 c 0
 258 271 292 257 318 229 c 1
 342 200 354 167 354 130 c 0
 354 91 342 58 318 30 c 0
 293 1 260 -14 217 -14 c 0
 175 -14 141 -1 113 26 c 0
 85 51 71 85 71 130 c 2
 71 410 l 2
 71 500 103 557 168 579 c 1
 103 619 l 1
 82 629 44 643 -10 658 c 1
 7 682 43 713 98 749 c 0
 154 784 227 802 318 802 c 0
 511 802 607 728 607 579 c 2
 607 287 l 1
 640 280 679 264 723 238 c 1
 767 209 800 177 822 141 c 1
 822 787 l 1
 919 787 l 1
 919 0 l 1
 822 0 l 1
 813 22 802 46 788 71 c 1
 772 94 748 120 718 148 c 0
 690 173 652 193 607 210 c 1
 607 88 l 2
 607 20 577 -14 515 -14 c 0
 476 -14 445 2 422 32 c 0
 400 64 390 101 390 143 c 0
 390 182 400 216 422 245 c 0
 442 272 471 287 510 289 c 1
 510 579 l 2
 510 629 494 667 462 692 c 4
 430 717 387 730 332 730 c 0
 261 730 193 710 128 672 c 1
 141 668 165 657 202 639 c 0
 235 624 267 603 297 575 c 1
 285 575 270 572 253 566 c 0
 236 560 217 545 195 522 c 1
 177 495 168 460 168 415 c 2
510 92 m 1
 510 222 l 1
 475 214 458 185 458 134 c 0
 458 118 462 104 471 92 c 0
 478 80 486 74 493 74 c 0
 503 74 508 80 510 92 c 1
214 57 m 0
 238 57 256 64 267 79 c 0
 280 93 286 110 286 130 c 0
 286 146 280 162 267 178 c 1
 253 192 235 199 214 199 c 0
 192 199 175 192 164 178 c 1
 149 164 142 148 142 130 c 0
 142 110 148 93 161 79 c 0
 175 64 193 57 214 57 c 0
EndSplineSet
EndChar
StartChar: uni0E0D
Encoding: 173 3597 143
OldEncoding: 3597
Width: 1039
Flags: W
HStem: -394 69<617 639> -151 73<540 551> -14 71<200 219> 0 84<413 775> 198 72<200 219> 730 72<309 356> 767 20G<822 919>
VStem: 71 71<129 135> 71 97<129 423> 286 68<129 135> 404 71<-221 -201> 510 97<84 599> 603 73<-213 -201> 822 97<-82 -82 150 787>
Fore
919 -82 m 1
 919 -150 906 -208 880 -255 c 1
 855 -304 820 -338 776 -359 c 1
 732 -382 687 -394 639 -394 c 0
 578 -394 523 -377 475 -343 c 0
 428 -309 404 -268 404 -219 c 0
 404 -182 416 -148 438 -118 c 0
 461 -89 497 -76 545 -78 c 0
 587 -78 619 -91 643 -118 c 0
 665 -144 676 -175 676 -213 c 0
 676 -236 671 -258 661 -278 c 0
 651 -296 636 -311 617 -325 c 1
 665 -325 712 -309 758 -278 c 0
 801 -249 822 -184 822 -82 c 1
 919 -82 l 1
71 129 m 2
 71 410 l 2
 71 500 103 556 168 579 c 1
 103 619 l 1
 82 629 44 642 -10 658 c 1
 7 682 43 712 98 749 c 0
 154 784 227 802 318 802 c 0
 511 802 607 728 607 579 c 2
 607 84 l 1
 751 84 l 2
 783 84 802 88 809 97 c 1
 818 103 822 121 822 150 c 2
 822 787 l 1
 919 787 l 1
 919 150 l 2
 919 107 915 74 906 53 c 0
 897 32 881 18 857 11 c 0
 832 3 797 0 751 0 c 2
 413 0 l 1
 413 84 l 1
 510 84 l 1
 510 579 l 2
 510 629 494 666 462 692 c 0
 430 717 387 730 332 730 c 4
 261 730 193 710 128 672 c 1
 141 668 165 657 202 639 c 0
 235 624 267 602 297 575 c 1
 285 575 270 572 253 566 c 0
 236 560 217 545 195 521 c 1
 177 495 168 460 168 415 c 2
 168 261 l 1
 174 267 190 270 217 270 c 0
 258 270 292 257 318 229 c 1
 342 200 354 166 354 129 c 0
 354 91 342 58 318 30 c 0
 293 1 260 -14 217 -14 c 0
 175 -14 141 -1 113 26 c 0
 85 50 71 85 71 129 c 2
540 -276 m 0
 559 -276 575 -270 586 -257 c 0
 597 -246 603 -232 603 -213 c 0
 603 -196 597 -182 586 -170 c 0
 575 -157 559 -151 540 -151 c 0
 522 -151 506 -157 493 -170 c 0
 481 -182 475 -196 475 -213 c 0
 475 -230 481 -245 493 -257 c 0
 506 -270 522 -276 540 -276 c 0
214 57 m 0
 238 57 256 64 267 79 c 0
 280 93 286 110 286 129 c 0
 286 146 280 162 267 178 c 1
 253 192 235 198 214 198 c 0
 192 198 175 192 164 178 c 1
 149 164 142 148 142 129 c 0
 142 110 148 93 161 79 c 0
 175 64 193 57 214 57 c 0
EndSplineSet
EndChar
StartChar: uni0E0E
Encoding: 174 3598 144
OldEncoding: 3598
Width: 885
Flags: W
HStem: -400 90<237 256> -164 85<268 278> -14 71<132 138> 199 72<132 138> 718 84<430 472>
VStem: -10 69<130 132> 178 97<261 401> 205 70<123 132> 671 95<-267 561>
Fore
178 261 m 1
 178 391 l 2
 178 421 183 448 192 472 c 0
 199 496 210 513 224 523 c 0
 238 534 253 543 271 550 c 1
 261 559 240 571 207 588 c 0
 176 606 138 616 94 618 c 1
 116 650 158 688 220 733 c 0
 284 779 361 802 453 802 c 0
 545 802 620 779 677 736 c 0
 736 690 766 627 766 546 c 2
 766 -396 l 5
 671 -396 l 1
 641 -356 604 -319 562 -285 c 0
 537 -264 506 -245 470 -225 c 1
 459 -266 432 -306 388 -345 c 0
 344 -384 295 -402 240 -400 c 0
 193 -400 154 -385 125 -354 c 0
 96 -325 81 -286 81 -236 c 0
 83 -185 102 -145 136 -118 c 1
 172 -92 216 -79 268 -79 c 0
 310 -79 358 -87 412 -104 c 1
 423 -64 l 2
 426 -53 429 -32 432 0 c 1
 520 -18 l 1
 517 -52 514 -77 509 -93 c 1
 497 -141 l 1
 531 -158 567 -179 604 -206 c 0
 639 -233 662 -253 671 -267 c 1
 671 546 l 2
 671 583 660 613 640 636 c 1
 622 662 597 682 564 696 c 0
 533 710 496 718 455 718 c 0
 372 718 300 692 240 641 c 1
 252 638 275 630 309 616 c 0
 341 601 372 582 399 556 c 1
 377 550 352 536 324 514 c 0
 291 491 275 451 275 395 c 2
 275 125 l 2
 275 85 263 53 238 28 c 0
 212 0 177 -14 132 -14 c 0
 89 -14 55 0 30 28 c 0
 4 56 -10 90 -10 130 c 0
 -10 169 3 202 28 229 c 0
 53 257 88 271 132 271 c 0
 152 271 167 268 178 261 c 1
302 -298 m 0
 326 -287 344 -269 358 -243 c 0
 371 -220 381 -200 386 -185 c 1
 339 -171 300 -164 268 -164 c 0
 204 -164 171 -188 171 -236 c 0
 171 -248 173 -259 178 -271 c 0
 189 -297 215 -310 256 -310 c 0
 270 -310 285 -306 302 -298 c 0
132 57 m 0
 155 57 173 65 187 79 c 0
 199 93 205 110 205 130 c 0
 205 146 199 163 187 178 c 1
 173 192 155 199 132 199 c 0
 109 199 92 192 81 178 c 0
 66 162 59 146 59 130 c 0
 59 111 66 95 81 81 c 1
 91 65 108 57 132 57 c 0
EndSplineSet
EndChar
StartChar: uni0E0F
Encoding: 175 3599 145
OldEncoding: 3599
Width: 885
Flags: W
HStem: -400 76<203 222> -201 76<203 231> -14 71<118.178 135> 199 72<132 134> 718 84<432 471>
VStem: -10 69<130 132> 71 83<-257 -243> 178 97<261 401> 205 70<123 132> 671 95<-280 561>
Fore
178 261 m 1
 178 391 l 2
 178 421 183 448 192 472 c 0
 199 496 210 513 224 523 c 0
 238 534 253 543 271 550 c 1
 261 559 240 571 207 588 c 0
 176 606 138 616 94 618 c 1
 116 650 158 688 220 733 c 0
 284 778 361 802 453 802 c 0
 545 802 620 779 677 736 c 0
 736 690 766 627 766 546 c 2
 766 -396 l 1
 671 -396 l 1
 564 -267 l 1
 448 -400 l 1
 434 -376 421 -355 406 -338 c 0
 387 -315 374 -298 366 -289 c 1
 354 -309 336 -332 311 -358 c 0
 284 -386 248 -400 203 -400 c 0
 163 -400 131 -386 108 -358 c 1
 83 -333 71 -296 71 -245 c 1
 77 -205 91 -175 115 -155 c 0
 140 -135 172 -125 212 -125 c 0
 253 -125 294 -138 335 -164 c 1
 355 -95 l 1
 366 -63 372 -32 375 0 c 1
 458 -18 l 1
 456 -35 448 -71 434 -123 c 0
 423 -167 412 -199 402 -218 c 1
 405 -218 424 -237 458 -276 c 1
 560 -170 l 1
 671 -280 l 1
 671 546 l 2
 671 583 660 613 640 636 c 1
 622 662 597 682 564 696 c 0
 533 710 496 718 455 718 c 0
 372 718 300 692 240 641 c 1
 252 638 275 630 309 616 c 0
 341 601 372 581 399 556 c 1
 377 550 352 536 324 514 c 0
 291 491 275 451 275 395 c 2
 275 125 l 2
 275 85 263 53 238 28 c 0
 212 0 177 -14 132 -14 c 0
 89 -14 55 0 30 28 c 0
 4 56 -10 90 -10 130 c 0
 -10 169 3 202 28 229 c 0
 53 257 88 271 132 271 c 0
 152 271 167 268 178 261 c 1
245 -312 m 0
 257 -304 270 -289 284 -269 c 0
 295 -253 302 -241 305 -232 c 1
 279 -211 251 -201 220 -201 c 0
 183 -201 161 -215 154 -243 c 1
 154 -295 173 -322 212 -324 c 0
 224 -324 235 -320 245 -312 c 0
132 57 m 0
 155 57 173 65 187 79 c 0
 199 93 205 110 205 130 c 0
 205 146 199 163 187 178 c 1
 173 192 155 199 132 199 c 0
 109 199 92 192 81 178 c 0
 66 162 59 146 59 130 c 0
 59 111 66 95 81 81 c 1
 91 65 108 57 132 57 c 0
EndSplineSet
EndChar
StartChar: uni0E10
Encoding: 176 3600 146
OldEncoding: 3600
Width: 702
Flags: W
HStem: -288 20G<488 497> -245 63<95 117> -104 59<472 476> 0 21G<468 583> 199 70<230.867 261> 412 71<231.289 256> 653 85<574 596> 723 79<307 340>
VStem: -12 62<-310 -288> 104 70<340 346> 358 59<-168 -150> 486 97<192 410> 527 56<-168 -150>
Fore
245 483 m 0
 273 483 301 475 331 458 c 1
 358 440 378 417 391 391 c 2
 486 192 l 1
 486 382 l 2
 486 440 475 480 455 499 c 1
 438 520 403 538 351 556 c 1
 301 570 245 582 183 592 c 1
 127 604 84 611 53 613 c 1
 81 664 119 709 166 748 c 1
 212 783 262 802 316 802 c 0
 350 802 376 798 395 793 c 2
 474 768 l 1
 543 744 l 2
 560 740 577 738 594 738 c 0
 621 738 648 744 675 757 c 1
 694 675 l 1
 656 660 621 653 590 653 c 0
 569 653 550 655 534 660 c 2
 460 684 l 1
 382 713 l 2
 363 719 342 723 320 723 c 0
 299 723 275 716 247 704 c 1
 223 689 210 678 208 671 c 1
 254 660 l 1
 338 636 l 1
 414 618 l 2
 491 598 537 573 555 541 c 1
 573 512 583 460 583 386 c 2
 583 0 l 1
 468 0 l 1
 460 44 445 94 421 150 c 0
 395 210 376 249 365 269 c 1
 359 249 344 232 320 218 c 0
 298 205 273 199 245 199 c 0
 201 199 166 213 141 240 c 0
 116 270 104 303 104 340 c 0
 104 382 116 416 141 442 c 0
 166 469 201 483 245 483 c 0
488 -317 m 1
 495 -294 l 1
 497 -268 l 1
 488 -268 l 1
 472 -270 l 1
 437 -270 409 -259 388 -238 c 0
 368 -217 358 -192 358 -162 c 0
 358 -135 369 -108 391 -80 c 1
 412 -57 439 -45 472 -45 c 0
 505 -45 532 -56 552 -76 c 0
 573 -96 583 -125 583 -162 c 2
 583 -299 l 2
 583 -314 581 -328 576 -338 c 1
 569 -348 561 -355 550 -361 c 1
 516 -383 l 1
 448 -423 l 1
 360 -365 l 1
 268 -418 l 1
 222 -335 l 1
 197 -387 155 -412 97 -409 c 0
 30 -407 -6 -374 -12 -310 c 0
 -12 -290 l 0
 -12 -260 0 -235 25 -213 c 0
 48 -192 76 -182 108 -182 c 0
 135 -182 165 -192 196 -210 c 1
 199 -201 203 -184 210 -160 c 1
 214 -134 217 -99 217 -56 c 1
 289 -56 l 1
 289 -136 277 -206 252 -266 c 1
 289 -321 l 1
 316 -308 l 1
 360 -282 l 1
 453 -340 l 1
 488 -317 l 1
472 -215 m 0
 489 -215 503 -210 514 -199 c 1
 523 -186 527 -173 527 -160 c 0
 527 -145 523 -131 514 -120 c 1
 503 -110 489 -104 472 -104 c 0
 452 -104 439 -110 433 -120 c 1
 422 -131 417 -144 417 -160 c 0
 417 -175 422 -188 433 -199 c 1
 439 -210 452 -215 472 -215 c 0
245 269 m 0
 269 269 287 275 298 289 c 0
 310 306 316 323 316 340 c 0
 316 359 310 376 298 391 c 0
 286 405 268 412 245 412 c 0
 223 412 206 405 194 391 c 0
 181 377 174 360 174 340 c 0
 174 321 181 305 194 291 c 1
 205 276 222 269 245 269 c 0
106 -245 m 0
 86 -245 72 -251 64 -261 c 0
 55 -273 50 -285 50 -299 c 0
 50 -311 55 -321 64 -330 c 1
 72 -342 86 -347 106 -347 c 0
 120 -347 133 -342 143 -332 c 0
 152 -325 161 -315 168 -303 c 1
 178 -282 l 1
 177 -279 168 -272 152 -259 c 0
 141 -250 126 -245 106 -245 c 0
EndSplineSet
EndChar
StartChar: uni0E11
Encoding: 177 3601 147
OldEncoding: 3601
Width: 1032
Flags: W
HStem: 0 21G<339 436 816 913> 351 72<122 134> 567 67<116 124> 698 88<756 767>
VStem: -43 93<495 546> 193 75<491 509> 339 97<0 33.0404 0 518> 425 84<651 666> 816 97<0 629>
Fore
339 0 m 5
 339 507 l 6
 339 536 342 557 348 572 c 4
 355 583 363 595 374 607 c 5
 411 634 l 6
 420 641 425 649 425 660 c 4
 425 673 417 688 402 704 c 5
 384 719 369 727 358 729 c 5
 263 664 l 5
 151 729 l 5
 119 722 94 705 78 678 c 5
 59 654 50 631 50 609 c 5
 52 611 59 617 73 625 c 4
 83 631 100 634 124 634 c 4
 164 632 198 620 226 599 c 4
 254 575 268 540 268 493 c 4
 268 450 252 416 221 389 c 4
 191 364 158 351 122 351 c 4
 75 351 35 369 3 404 c 4
 -28 441 -43 488 -43 546 c 4
 -43 586 -37 619 -26 645 c 5
 -15 690 12 728 54 759 c 4
 95 787 131 801 162 801 c 5
 263 738 l 5
 353 801 l 5
 392 788 428 769 460 745 c 4
 492 719 509 688 509 653 c 4
 509 635 505 622 499 614 c 6
 473 583 l 5
 464 575 454 564 445 550 c 4
 439 540 436 524 436 502 c 6
 436 377 l 5
 447 407 467 453 494 516 c 4
 518 570 557 630 610 696 c 4
 658 756 710 786 765 786 c 4
 814 786 851 769 876 733 c 4
 901 700 913 659 913 609 c 6
 913 0 l 5
 816 0 l 5
 816 609 l 6
 816 668 797 698 758 698 c 4
 730 698 699 675 666 627 c 4
 624 570 589 509 559 444 c 5
 519 363 490 286 471 212 c 5
 448 136 436 65 436 0 c 5
 339 0 l 5
122 567 m 4
 99 567 82 560 71 546 c 5
 57 532 50 515 50 495 c 4
 50 477 57 461 71 446 c 5
 82 431 99 423 122 423 c 4
 146 423 164 430 175 444 c 5
 187 462 193 479 193 495 c 4
 193 514 187 531 175 546 c 4
 164 560 146 567 122 567 c 4
EndSplineSet
EndChar
StartChar: uni0E12
Encoding: 178 3602 148
OldEncoding: 3602
Width: 1098
Flags: W
HStem: -14 88<553 573> 0 21G<124 222 884 979> 527 71<332 345> 767 20G<884 979>
VStem: -8 86<497 516> 189 72<449 467> 405 69<449 467> 449 67<129 147> 569 97<91 210 288 558> 884 95<141 787>
DStem: 226 720 217 801 305 669 352 710 483 801 478 720 352 710 352 636
Fore
569 289 m 1
 569 521 l 2
 569 575 563 615 553 640 c 0
 543 665 518 692 478 720 c 1
 352 636 l 1
 305 669 l 1
 226 720 l 1
 127 669 78 596 78 501 c 0
 78 436 102 364 149 284 c 0
 180 231 196 196 196 178 c 1
 212 211 230 242 249 269 c 0
 268 293 282 310 293 319 c 1
 260 329 235 346 217 373 c 1
 198 397 189 425 189 458 c 0
 189 498 201 531 226 558 c 0
 252 585 287 598 332 598 c 0
 378 598 412 584 436 556 c 0
 461 526 474 492 474 453 c 0
 474 433 470 414 462 395 c 0
 456 379 445 365 432 351 c 2
 392 309 l 1
 361 273 335 241 317 212 c 0
 292 179 273 147 259 115 c 0
 241 78 228 40 222 0 c 1
 124 0 l 1
 135 16 140 37 140 62 c 0
 140 81 132 117 115 169 c 0
 112 178 98 209 74 261 c 1
 46 310 26 352 14 388 c 0
 -1 427 -8 469 -8 516 c 0
 -5 579 17 635 60 684 c 0
 101 733 153 771 217 801 c 1
 352 710 l 1
 483 801 l 1
 537 774 576 749 601 724 c 0
 626 698 643 670 652 640 c 0
 661 611 666 571 666 521 c 2
 666 287 l 1
 699 281 738 264 784 238 c 1
 827 209 860 177 884 141 c 1
 884 787 l 1
 979 787 l 1
 979 0 l 1
 884 0 l 1
 830 110 758 180 666 210 c 1
 666 88 l 2
 666 20 635 -14 573 -14 c 0
 535 -14 505 2 483 32 c 0
 460 62 449 99 449 143 c 0
 449 183 459 217 480 245 c 0
 501 272 530 287 569 289 c 1
332 527 m 0
 311 527 293 521 279 507 c 1
 267 489 261 472 261 455 c 0
 261 439 267 422 279 406 c 0
 292 391 310 384 332 384 c 0
 356 384 374 391 385 404 c 0
 398 419 405 436 405 455 c 0
 405 475 398 492 385 507 c 0
 374 521 356 527 332 527 c 0
569 92 m 1
 569 222 l 1
 533 214 516 185 516 134 c 0
 516 119 519 105 527 92 c 1
 537 80 545 74 553 74 c 0
 561 74 566 80 569 92 c 1
EndSplineSet
EndChar
StartChar: uni0E13
Encoding: 179 3603 149
OldEncoding: 3603
Width: 1066
Flags: W
HStem: -16 78<898 916> -14 71<193 211> 0 21G<503 600> 199 72<192 211> 730 72<301 348> 767 20G<801 898>
VStem: 63 71<117.082 141> 63 97<130 433> 278 68<116.238 141> 503 97<0 593> 801 97<71 254 333 787> 977 71<159 179>
Fore
63 130 m 2
 63 410 l 2
 63 500 95 557 160 579 c 1
 95 619 l 1
 74 629 37 643 -18 658 c 1
 -1 683 35 713 90 749 c 0
 146 784 219 802 310 802 c 0
 503 802 600 728 600 579 c 2
 600 169 l 1
 653 253 720 308 801 333 c 1
 801 787 l 1
 898 787 l 1
 898 340 l 1
 947 333 984 315 1009 287 c 0
 1035 256 1048 213 1048 159 c 0
 1048 103 1033 60 1002 30 c 1
 973 -1 938 -16 898 -16 c 0
 869 -16 846 -8 829 7 c 0
 810 22 801 44 801 71 c 2
 801 254 l 1
 745 234 700 195 664 139 c 1
 629 86 608 40 600 0 c 1
 503 0 l 1
 503 579 l 2
 503 629 486 667 454 692 c 0
 422 717 379 730 324 730 c 0
 253 730 185 710 121 672 c 1
 133 668 157 657 194 639 c 0
 227 624 259 603 289 575 c 1
 277 575 262 572 245 566 c 0
 228 560 209 545 187 522 c 1
 169 495 160 460 160 416 c 2
 160 261 l 1
 166 268 182 271 209 271 c 0
 250 271 284 257 310 229 c 1
 334 200 346 167 346 130 c 0
 346 91 334 58 310 30 c 0
 286 1 252 -14 209 -14 c 4
 167 -14 133 -1 105 26 c 0
 77 51 63 85 63 130 c 2
898 88 m 2
 898 71 904 62 916 62 c 0
 931 62 944 71 956 90 c 1
 970 105 977 128 977 159 c 0
 977 223 951 259 898 267 c 1
 898 88 l 2
207 57 m 0
 231 57 248 65 260 79 c 0
 272 93 278 110 278 130 c 0
 278 146 272 163 260 178 c 1
 245 192 228 199 207 199 c 0
 184 199 167 192 156 178 c 1
 141 164 134 148 134 130 c 0
 134 110 141 93 153 79 c 0
 167 65 185 57 207 57 c 0
EndSplineSet
EndChar
StartChar: uni0E14
Encoding: 180 3604 150
OldEncoding: 3604
Width: 803
Flags: W
HStem: 0 21G<142 240 586 683> 527 71<350 365> 730 72<369 403>
VStem: 207 72<447 465> 423 69<447 465> 586 97<0 545>
Fore
98 512 m 0
 96 445 119 371 167 289 c 0
 195 241 209 201 209 169 c 1
 232 214 252 245 267 263 c 2
 311 319 l 1
 278 328 253 346 235 373 c 1
 216 397 207 425 207 458 c 0
 207 498 219 531 244 558 c 0
 270 585 305 598 350 598 c 0
 395 598 430 584 454 556 c 0
 479 526 492 492 492 453 c 0
 492 433 488 414 480 395 c 0
 473 379 463 365 450 351 c 2
 410 309 l 1
 379 273 353 241 334 212 c 0
 310 179 291 147 277 115 c 0
 259 78 246 40 240 0 c 1
 142 0 l 1
 153 16 158 37 158 62 c 0
 158 81 150 117 133 169 c 0
 124 193 110 224 89 263 c 0
 64 309 45 351 34 391 c 1
 17 434 10 476 12 516 c 0
 15 593 47 658 110 719 c 0
 168 774 254 802 369 802 c 0
 579 802 683 710 683 521 c 2
 683 0 l 1
 586 0 l 1
 586 525 l 2
 586 586 573 633 545 672 c 0
 518 711 460 730 369 730 c 0
 292 730 228 709 177 668 c 0
 125 624 98 574 98 512 c 0
350 527 m 0
 328 527 311 521 297 507 c 1
 285 489 279 472 279 455 c 0
 279 438 285 422 297 406 c 0
 310 391 328 384 350 384 c 0
 374 384 392 391 403 404 c 0
 416 419 423 436 423 455 c 0
 423 475 416 492 403 507 c 0
 392 521 374 527 350 527 c 0
EndSplineSet
EndChar
StartChar: uni0E15
Encoding: 181 3605 151
OldEncoding: 3605
Width: 803
Flags: W
HStem: 0 21G<142 240 587 684> 528 71<350 363>
VStem: 10 86<495 516> 207 72<447 465> 423 69<447 465> 587 97<0 558>
DStem: 244 720 235 801 323 669 370 711 501 801 496 720 370 711 370 636
Fore
214 178 m 5
 230 212 248 242 267 269 c 4
 286 294 300 311 311 320 c 5
 278 329 253 346 235 373 c 5
 216 397 207 426 207 459 c 4
 207 498 219 531 244 558 c 4
 270 585 305 599 350 599 c 4
 396 599 430 585 454 556 c 4
 479 526 492 492 492 453 c 4
 492 433 488 414 480 395 c 4
 474 380 463 365 450 351 c 6
 410 310 l 5
 379 273 353 241 335 212 c 4
 310 179 291 147 277 115 c 4
 259 78 246 40 240 0 c 5
 142 0 l 5
 153 16 158 37 158 62 c 4
 158 82 150 117 133 169 c 4
 130 178 116 209 92 261 c 5
 64 310 44 352 32 389 c 4
 17 427 10 470 10 516 c 4
 13 579 35 635 78 685 c 4
 119 733 171 772 235 801 c 5
 370 711 l 5
 501 801 l 5
 555 775 594 749 619 724 c 4
 644 698 661 670 670 641 c 4
 679 611 684 571 684 521 c 6
 684 0 l 5
 587 0 l 5
 587 521 l 6
 587 575 581 615 571 641 c 4
 561 665 536 692 496 720 c 5
 370 636 l 5
 323 669 l 5
 244 720 l 5
 145 669 96 597 96 502 c 4
 96 436 120 364 167 285 c 4
 198 231 214 196 214 178 c 5
350 528 m 4
 329 528 311 521 297 507 c 5
 285 489 279 472 279 455 c 4
 279 439 285 423 297 407 c 4
 310 392 328 384 350 384 c 4
 374 384 392 391 404 404 c 4
 416 420 423 436 423 455 c 4
 423 475 416 492 404 507 c 4
 392 521 374 528 350 528 c 4
EndSplineSet
EndChar
StartChar: uni0E16
Encoding: 182 3606 152
OldEncoding: 3606
Width: 795
Flags: W
HStem: -14 71<215 234> 0 21G<578 675> 199 72<215 234> 718 84<334 389>
VStem: 86 71<116.414 133> 86 97<130 403> 300 68<116.334 133> 578 97<0 563>
Fore
86 130 m 2
 86 392 l 2
 86 436 94 472 111 498 c 1
 130 522 153 540 178 551 c 1
 166 562 145 574 117 588 c 0
 86 606 48 617 4 619 c 1
 25 650 67 688 128 734 c 0
 189 779 267 802 360 802 c 0
 417 802 470 792 521 774 c 0
 568 756 605 728 634 688 c 0
 662 649 675 601 675 546 c 2
 675 0 l 1
 578 0 l 1
 578 546 l 2
 578 583 568 614 548 637 c 1
 530 663 505 683 472 697 c 0
 441 711 404 718 363 718 c 0
 280 718 208 693 148 641 c 1
 160 639 183 631 217 617 c 0
 249 602 279 582 307 557 c 1
 285 551 259 537 232 515 c 0
 199 491 183 452 183 396 c 2
 183 261 l 1
 189 268 205 271 232 271 c 0
 273 271 307 257 333 229 c 1
 357 200 368 167 368 130 c 0
 368 91 357 58 333 30 c 0
 308 1 274 -14 232 -14 c 0
 190 -14 155 -1 128 26 c 0
 100 51 86 85 86 130 c 2
229 57 m 0
 253 57 271 64 282 79 c 0
 294 93 300 110 300 130 c 0
 300 146 294 162 282 178 c 1
 268 192 250 199 229 199 c 0
 207 199 190 192 178 178 c 1
 164 164 157 148 157 130 c 0
 157 110 163 93 176 79 c 0
 190 64 207 57 229 57 c 0
EndSplineSet
EndChar
StartChar: uni0E17
Encoding: 183 3607 153
OldEncoding: 3607
Width: 874
Flags: W
HStem: 0 21G<187 284 664 761> 512 69<128.572 146> 699 88<606 615> 725 72<128.133 146>
VStem: -1 71<641.915 658> 187 97<0 33.0451 0 653> 214 70<640.584 658> 664 97<0 629>
Fore
187 0 m 1
 187 519 l 1
 175 514 161 512 143 512 c 0
 98 512 63 527 39 556 c 1
 12 584 -1 617 -1 656 c 0
 -1 693 12 726 39 755 c 0
 64 783 99 797 143 797 c 4
 168 797 193 790 217 778 c 0
 238 766 255 749 268 727 c 0
 279 708 284 683 284 653 c 2
 284 378 l 1
 337 493 l 1
 358 544 383 591 412 634 c 0
 443 681 475 718 507 745 c 0
 537 773 573 787 613 787 c 0
 647 787 674 778 695 762 c 1
 716 743 733 720 744 694 c 0
 755 671 761 643 761 609 c 2
 761 0 l 1
 664 0 l 1
 664 609 l 2
 664 669 645 699 608 699 c 0
 582 699 551 675 516 627 c 0
 475 575 438 514 406 444 c 0
 366 361 337 284 319 213 c 1
 296 136 284 65 284 0 c 1
 187 0 l 1
143 725 m 0
 119 725 101 718 90 704 c 0
 77 688 70 671 70 653 c 0
 70 636 77 620 90 605 c 1
 100 589 118 581 143 581 c 0
 168 581 185 589 196 605 c 1
 208 619 214 635 214 653 c 0
 214 671 208 688 196 704 c 0
 185 718 167 725 143 725 c 0
EndSplineSet
EndChar
StartChar: uni0E18
Encoding: 184 3608 154
OldEncoding: 3608
Width: 707
Flags: W
HStem: 0 84<62 428> 658 78<548 574> 730 72<268 280>
VStem: 159 95<84 502> 477 97<127.616 417>
Fore
144 662 m 1
 176 661 235 651 320 634 c 0
 395 618 461 587 517 541 c 1
 541 524 557 503 565 479 c 0
 571 458 574 426 574 384 c 2
 574 150 l 2
 574 87 563 46 541 28 c 0
 520 9 474 0 405 0 c 2
 62 0 l 1
 62 84 l 1
 159 84 l 1
 159 502 l 1
 254 502 l 1
 254 84 l 1
 405 84 l 2
 436 84 456 88 466 97 c 0
 473 105 477 122 477 150 c 2
 477 386 l 2
 477 415 475 437 470 453 c 0
 464 470 450 487 428 504 c 0
 391 535 341 558 278 574 c 0
 216 589 149 597 79 597 c 1
 5 592 l 1
 15 624 42 668 86 724 c 0
 128 775 189 802 268 802 c 0
 315 802 371 790 435 768 c 0
 499 746 539 736 555 736 c 0
 585 736 612 743 636 757 c 1
 671 689 l 1
 633 668 597 658 563 658 c 0
 543 658 517 662 486 671 c 2
 407 698 l 1
 340 720 l 2
 319 726 295 730 268 730 c 0
 229 730 200 720 181 704 c 0
 161 688 148 674 144 662 c 1
EndSplineSet
EndChar
StartChar: uni0E19
Encoding: 185 3609 155
OldEncoding: 3609
Width: 856
Flags: W
HStem: -16 78<688 710> 0 21G<182 279> 513 71<123.226 141> 725 72<122.9 141> 767 20G<591 688>
VStem: -6 71<656 658> 182 97<0 654> 209 70<652 658> 591 97<71 267 341 787> 767 72<159 177>
Fore
182 0 m 1
 182 520 l 1
 171 515 156 513 138 513 c 0
 93 513 58 528 34 557 c 1
 8 585 -6 618 -6 656 c 0
 -6 694 8 727 34 756 c 0
 60 784 94 797 138 797 c 0
 164 797 188 791 212 779 c 0
 234 766 251 750 263 728 c 0
 274 709 279 684 279 654 c 2
 279 150 l 1
 356 256 460 320 591 342 c 1
 591 787 l 1
 688 787 l 1
 688 340 l 1
 738 333 776 316 800 287 c 0
 826 255 839 212 839 159 c 0
 839 103 825 60 796 31 c 0
 765 0 729 -16 688 -16 c 0
 659 -16 637 -8 619 7 c 0
 600 23 591 45 591 71 c 2
 591 267 l 1
 535 256 484 234 441 199 c 0
 400 167 365 131 337 93 c 0
 307 51 287 20 279 0 c 1
 182 0 l 1
138 725 m 0
 115 725 98 719 87 705 c 0
 73 689 65 673 65 656 c 0
 65 638 72 621 85 606 c 0
 96 591 114 584 138 584 c 0
 162 584 180 591 191 606 c 0
 203 622 209 639 209 656 c 0
 209 675 202 691 189 705 c 0
 177 719 160 725 138 725 c 0
688 88 m 2
 688 71 695 62 710 62 c 0
 722 62 735 72 749 90 c 1
 761 110 767 133 767 159 c 0
 767 223 741 259 688 267 c 1
 688 88 l 2
EndSplineSet
EndChar
StartChar: uni0E1A
Encoding: 186 3610 156
OldEncoding: 3610
Width: 858
Flags: W
HStem: 0 84<93 594> 512 69<129.671 147> 725 72<129.133 147> 767 20G<641 738>
VStem: 1 71<641.203 658> 188 97<84 653> 215 70<640.584 658> 641 97<127.912 787>
Fore
188 84 m 5
 188 519 l 5
 177 514 162 512 144 512 c 4
 99 512 64 527 40 556 c 5
 14 584 1 617 1 656 c 4
 1 693 14 726 40 755 c 4
 66 783 100 797 144 797 c 4
 170 797 195 790 219 778 c 4
 240 766 257 749 269 727 c 4
 280 708 285 683 285 653 c 6
 285 84 l 5
 570 84 l 6
 602 84 621 88 628 97 c 5
 637 104 641 122 641 150 c 6
 641 787 l 5
 738 787 l 5
 738 150 l 6
 738 88 728 47 707 28 c 4
 686 10 640 0 570 0 c 6
 93 0 l 5
 93 84 l 5
 188 84 l 5
144 725 m 4
 120 725 102 718 91 704 c 4
 78 688 72 671 72 653 c 4
 72 636 78 620 91 605 c 5
 102 589 119 581 144 581 c 4
 169 581 187 589 197 605 c 5
 209 619 215 635 215 653 c 4
 215 671 209 688 197 704 c 4
 186 718 168 725 144 725 c 4
EndSplineSet
EndChar
StartChar: uni0E1B
Encoding: 187 3611 157
OldEncoding: 3611
Width: 858
Flags: W
HStem: 0 84<93 578> 512 71<129.937 147> 725 72<129.89 147>
VStem: 1 71<656 658> 188 97<84 654> 215 70<652 658> 641 97<128.122 1072>
Fore
188 84 m 5
 188 519 l 5
 177 515 162 512 144 512 c 4
 99 512 64 527 40 556 c 5
 14 584 1 617 1 656 c 4
 1 693 14 727 40 755 c 4
 66 783 100 797 144 797 c 4
 170 797 195 791 219 778 c 4
 240 766 257 749 269 727 c 4
 280 708 285 684 285 654 c 6
 285 84 l 5
 570 84 l 6
 602 84 621 89 628 98 c 5
 637 104 641 122 641 151 c 6
 641 1072 l 5
 738 1072 l 5
 738 151 l 6
 738 88 728 47 707 29 c 4
 686 10 640 0 570 0 c 6
 93 0 l 5
 93 84 l 5
 188 84 l 5
144 725 m 4
 121 725 105 718 93 704 c 4
 79 689 72 672 72 656 c 4
 72 637 78 620 91 605 c 4
 102 591 120 583 144 583 c 4
 168 583 186 591 197 605 c 4
 209 622 215 638 215 656 c 4
 215 674 208 690 195 704 c 4
 184 718 167 725 144 725 c 4
EndSplineSet
EndChar
StartChar: uni0E1C
Encoding: 188 3612 158
OldEncoding: 3612
Width: 817
Flags: W
HStem: 0 21G<70 168 600 698> 512 69<198.104 219> 725 72<198.168 219> 767 20G<600 698>
VStem: 70 70<0 658> 70 98<0 25.5208 0 521> 286 69<641.65 658> 600 98<0 25.9875 204 787>
DStem: 385 334 385 440 555 144 600 204 385 440 385 334 168 204 217 144 385 334 385 440 555 144 600 204 385 440 385 334 168 204 217 144 385 334 385 440 555 144 600 204 385 440 385 334 168 204 217 144 385 334 385 440 555 144 600 204 385 440 385 334 168 204 217 144 385 334 385 440 555 144 600 204 385 440 385 334 168 204 217 144 385 334 385 440 555 144 600 204 385 440 385 334 168 204 217 144 385 334 385 440 555 144 600 204 385 440 385 334 168 204 217 144 385 334 385 440 555 144 600 204 385 440 385 334 168 204 217 144 385 334 385 440 555 144 600 204 385 440 385 334 168 204 217 144 385 334 385 440 555 144 600 204 385 440 385 334 168 204 217 144 385 334 385 440 555 144 600 204 385 440 385 334 168 204 217 144
Fore
168 521 m 5
 168 204 l 5
 385 440 l 5
 600 204 l 5
 600 787 l 5
 698 787 l 5
 698 0 l 5
 600 0 l 5
 600 60 585 108 555 144 c 5
 385 334 l 5
 217 144 l 5
 184 109 168 61 168 0 c 5
 70 0 l 5
 70 653 l 6
 70 694 82 729 107 757 c 5
 135 784 170 797 211 797 c 4
 256 797 292 783 318 755 c 4
 343 728 355 695 355 656 c 4
 355 614 343 580 318 553 c 4
 293 526 257 512 211 512 c 4
 197 512 182 515 168 521 c 5
211 581 m 4
 235 581 254 589 268 605 c 4
 280 621 286 637 286 653 c 4
 286 671 280 688 268 704 c 5
 253 718 234 725 211 725 c 4
 191 725 173 718 158 704 c 5
 146 686 140 669 140 653 c 4
 140 637 146 621 158 605 c 4
 172 589 189 581 211 581 c 4
EndSplineSet
EndChar
StartChar: uni0E1D
Encoding: 189 3613 159
OldEncoding: 3613
Width: 817
Flags: W
HStem: 0 21G<70 168 600 698> 512 71<198.104 219> 725 72<211 219>
VStem: 70 70<0 658> 70 98<0 25.5208 0 521> 286 69<656 658> 600 98<0 25.9875 204 1072>
DStem: 385 334 385 440 555 144 600 204 385 440 385 334 168 204 217 144 385 334 385 440 555 144 600 204 385 440 385 334 168 204 217 144 385 334 385 440 555 144 600 204 385 440 385 334 168 204 217 144 385 334 385 440 555 144 600 204 385 440 385 334 168 204 217 144 385 334 385 440 555 144 600 204 385 440 385 334 168 204 217 144 385 334 385 440 555 144 600 204 385 440 385 334 168 204 217 144 385 334 385 440 555 144 600 204 385 440 385 334 168 204 217 144 385 334 385 440 555 144 600 204 385 440 385 334 168 204 217 144 385 334 385 440 555 144 600 204 385 440 385 334 168 204 217 144 385 334 385 440 555 144 600 204 385 440 385 334 168 204 217 144 385 334 385 440 555 144 600 204 385 440 385 334 168 204 217 144
Fore
168 521 m 5
 168 204 l 5
 385 440 l 5
 600 204 l 5
 600 1072 l 5
 698 1072 l 5
 698 0 l 5
 600 0 l 5
 600 60 585 108 555 144 c 5
 385 334 l 5
 217 144 l 5
 184 109 168 61 168 0 c 5
 70 0 l 5
 70 654 l 6
 70 694 82 729 107 757 c 5
 135 784 170 797 211 797 c 4
 256 797 292 783 318 755 c 4
 343 728 355 695 355 656 c 4
 355 614 343 580 318 553 c 4
 293 526 257 512 211 512 c 4
 197 512 182 515 168 521 c 5
211 583 m 4
 235 583 254 591 268 607 c 4
 280 622 286 638 286 656 c 4
 286 671 279 687 265 704 c 5
 251 718 233 725 211 725 c 4
 189 725 172 718 160 704 c 4
 147 687 140 671 140 656 c 4
 140 638 146 622 158 607 c 4
 172 591 189 583 211 583 c 4
EndSplineSet
EndChar
StartChar: uni0E1E
Encoding: 190 3614 160
OldEncoding: 3614
Width: 948
Flags: W
HStem: 0 21G<182 279 747 844> 512 71<123.226 141> 725 72<123.778 141> 767 20G<747 844>
VStem: -6 71<656 658> 182 97<0 653> 209 70<651 658> 747 97<252 787>
DStem: 513 599 513 787 727 97 747 252 513 787 513 599 279 254 297 97 513 599 513 787 727 97 747 252 513 787 513 599 279 254 297 97 513 599 513 787 727 97 747 252 513 787 513 599 279 254 297 97 513 599 513 787 727 97 747 252 513 787 513 599 279 254 297 97 513 599 513 787 727 97 747 252 513 787 513 599 279 254 297 97 513 599 513 787 727 97 747 252 513 787 513 599 279 254 297 97 513 599 513 787 727 97 747 252 513 787 513 599 279 254 297 97 513 599 513 787 727 97 747 252 513 787 513 599 279 254 297 97 513 599 513 787 727 97 747 252 513 787 513 599 279 254 297 97 513 599 513 787 727 97 747 252 513 787 513 599 279 254 297 97 513 599 513 787 727 97 747 252 513 787 513 599 279 254 297 97 513 599 513 787 727 97 747 252 513 787 513 599 279 254 297 97 513 599 513 787 727 97 747 252 513 787 513 599 279 254 297 97 513 599 513 787 727 97 747 252 513 787 513 599 279 254 297 97 513 599 513 787 727 97 747 252 513 787 513 599 279 254 297 97 513 599 513 787 727 97 747 252 513 787 513 599 279 254 297 97 513 599 513 787 727 97 747 252 513 787 513 599 279 254 297 97 513 599 513 787 727 97 747 252 513 787 513 599 279 254 297 97 513 599 513 787 727 97 747 252 513 787 513 599 279 254 297 97 513 599 513 787 727 97 747 252 513 787 513 599 279 254 297 97 513 599 513 787 727 97 747 252 513 787 513 599 279 254 297 97 513 599 513 787 727 97 747 252 513 787 513 599 279 254 297 97 513 599 513 787 727 97 747 252 513 787 513 599 279 254 297 97 513 599 513 787 727 97 747 252 513 787 513 599 279 254 297 97 513 599 513 787 727 97 747 252 513 787 513 599 279 254 297 97 513 599 513 787 727 97 747 252 513 787 513 599 279 254 297 97 513 599 513 787 727 97 747 252 513 787 513 599 279 254 297 97 513 599 513 787 727 97 747 252 513 787 513 599 279 254 297 97 513 599 513 787 727 97 747 252 513 787 513 599 279 254 297 97 513 599 513 787 727 97 747 252 513 787 513 599 279 254 297 97 513 599 513 787 727 97 747 252 513 787 513 599 279 254 297 97 513 599 513 787 727 97 747 252 513 787 513 599 279 254 297 97 513 599 513 787 727 97 747 252 513 787 513 599 279 254 297 97 513 599 513 787 727 97 747 252 513 787 513 599 279 254 297 97 513 599 513 787 727 97 747 252 513 787 513 599 279 254 297 97 513 599 513 787 727 97 747 252 513 787 513 599 279 254 297 97 513 599 513 787 727 97 747 252 513 787 513 599 279 254 297 97 513 599 513 787 727 97 747 252 513 787 513 599 279 254 297 97 513 599 513 787 727 97 747 252
Fore
182 0 m 5
 182 519 l 5
 170 514 156 512 138 512 c 4
 92 512 58 527 34 556 c 5
 7 584 -6 617 -6 656 c 4
 -6 693 7 726 34 755 c 4
 59 783 94 797 138 797 c 4
 163 797 188 790 212 778 c 4
 233 766 250 749 263 727 c 4
 274 708 279 683 279 653 c 6
 279 254 l 5
 513 787 l 5
 747 252 l 5
 747 787 l 5
 844 787 l 5
 844 0 l 5
 747 0 l 5
 744 44 l 5
 743 56 737 74 727 97 c 6
 513 599 l 5
 297 97 l 6
 290 82 286 65 283 44 c 5
 279 0 l 5
 182 0 l 5
138 725 m 4
 115 725 98 718 87 704 c 4
 72 688 65 672 65 656 c 4
 65 637 72 620 85 605 c 4
 96 590 114 583 138 583 c 4
 162 583 179 590 191 605 c 4
 203 621 209 638 209 656 c 4
 209 674 202 690 188 704 c 4
 177 718 160 725 138 725 c 4
EndSplineSet
EndChar
StartChar: uni0E1F
Encoding: 191 3615 161
OldEncoding: 3615
Width: 948
Flags: W
HStem: 0 21G<182 279 747 844> 512 69<123.572 141> 725 72<123.133 141>
VStem: -6 71<642.409 659> 182 97<0 654> 209 70<641.019 659> 747 97<252 1072>
DStem: 513 599 513 787 727 98 747 252 513 787 513 599 279 255 297 98 513 599 513 787 727 98 747 252 513 787 513 599 279 255 297 98 513 599 513 787 727 98 747 252 513 787 513 599 279 255 297 98 513 599 513 787 727 98 747 252 513 787 513 599 279 255 297 98 513 599 513 787 727 98 747 252 513 787 513 599 279 255 297 98 513 599 513 787 727 98 747 252 513 787 513 599 279 255 297 98 513 599 513 787 727 98 747 252 513 787 513 599 279 255 297 98 513 599 513 787 727 98 747 252 513 787 513 599 279 255 297 98 513 599 513 787 727 98 747 252 513 787 513 599 279 255 297 98 513 599 513 787 727 98 747 252 513 787 513 599 279 255 297 98 513 599 513 787 727 98 747 252 513 787 513 599 279 255 297 98 513 599 513 787 727 98 747 252 513 787 513 599 279 255 297 98 513 599 513 787 727 98 747 252 513 787 513 599 279 255 297 98 513 599 513 787 727 98 747 252 513 787 513 599 279 255 297 98 513 599 513 787 727 98 747 252 513 787 513 599 279 255 297 98 513 599 513 787 727 98 747 252 513 787 513 599 279 255 297 98 513 599 513 787 727 98 747 252 513 787 513 599 279 255 297 98 513 599 513 787 727 98 747 252 513 787 513 599 279 255 297 98 513 599 513 787 727 98 747 252 513 787 513 599 279 255 297 98 513 599 513 787 727 98 747 252 513 787 513 599 279 255 297 98 513 599 513 787 727 98 747 252 513 787 513 599 279 255 297 98 513 599 513 787 727 98 747 252 513 787 513 599 279 255 297 98 513 599 513 787 727 98 747 252 513 787 513 599 279 255 297 98 513 599 513 787 727 98 747 252 513 787 513 599 279 255 297 98 513 599 513 787 727 98 747 252 513 787 513 599 279 255 297 98 513 599 513 787 727 98 747 252 513 787 513 599 279 255 297 98 513 599 513 787 727 98 747 252 513 787 513 599 279 255 297 98 513 599 513 787 727 98 747 252 513 787 513 599 279 255 297 98 513 599 513 787 727 98 747 252 513 787 513 599 279 255 297 98 513 599 513 787 727 98 747 252 513 787 513 599 279 255 297 98 513 599 513 787 727 98 747 252 513 787 513 599 279 255 297 98 513 599 513 787 727 98 747 252 513 787 513 599 279 255 297 98 513 599 513 787 727 98 747 252 513 787 513 599 279 255 297 98 513 599 513 787 727 98 747 252 513 787 513 599 279 255 297 98 513 599 513 787 727 98 747 252 513 787 513 599 279 255 297 98 513 599 513 787 727 98 747 252 513 787 513 599 279 255 297 98 513 599 513 787 727 98 747 252 513 787 513 599 279 255 297 98 513 599 513 787 727 98 747 252 513 787 513 599 279 255 297 98 513 599 513 787 727 98 747 252
Fore
182 0 m 5
 182 519 l 5
 170 515 156 512 138 512 c 4
 92 512 58 527 34 556 c 5
 7 584 -6 617 -6 656 c 4
 -6 693 7 727 34 755 c 4
 59 783 94 797 138 797 c 4
 163 797 188 791 212 778 c 4
 233 766 250 749 263 727 c 4
 274 708 279 684 279 654 c 6
 279 255 l 5
 513 787 l 5
 747 252 l 5
 747 1072 l 5
 844 1072 l 5
 844 0 l 5
 747 0 l 5
 744 44 l 5
 743 57 737 74 727 98 c 6
 513 599 l 5
 297 98 l 6
 290 82 286 65 283 44 c 5
 279 0 l 5
 182 0 l 5
138 725 m 4
 114 725 96 718 85 704 c 4
 72 688 65 671 65 654 c 4
 65 636 72 620 85 605 c 5
 95 589 113 581 138 581 c 4
 162 581 180 589 191 605 c 5
 203 619 209 635 209 654 c 4
 209 672 203 689 191 704 c 4
 179 718 162 725 138 725 c 4
EndSplineSet
EndChar
StartChar: uni0E20
Encoding: 192 3616 162
OldEncoding: 3616
Width: 885
Flags: W
HStem: -14 71<118.178 135> 0 21G<671 766> 199 72<132 134> 718 84<437 471>
VStem: -10 69<130 132> 178 97<261 403> 205 70<123 132> 671 95<0 563>
Fore
178 261 m 1
 178 392 l 2
 178 422 183 449 192 473 c 0
 199 496 210 513 224 524 c 0
 238 535 253 544 271 551 c 1
 261 559 240 572 207 588 c 0
 176 606 138 617 94 619 c 1
 116 650 158 689 220 734 c 0
 284 779 361 802 453 802 c 0
 545 802 620 780 677 736 c 0
 736 691 766 628 766 546 c 2
 766 0 l 1
 671 0 l 1
 671 546 l 2
 671 583 660 614 640 637 c 1
 622 663 597 683 564 697 c 0
 533 711 496 718 455 718 c 0
 372 718 300 693 240 641 c 1
 252 639 275 631 309 617 c 0
 341 602 372 582 399 557 c 1
 377 551 352 537 324 515 c 0
 291 491 275 452 275 396 c 2
 275 125 l 2
 275 85 263 53 238 28 c 0
 212 0 177 -14 132 -14 c 0
 89 -14 55 0 30 28 c 0
 4 56 -10 90 -10 130 c 0
 -10 169 3 202 28 229 c 0
 53 257 88 271 132 271 c 0
 152 271 167 268 178 261 c 1
132 57 m 0
 155 57 173 64 187 79 c 0
 199 93 205 110 205 130 c 0
 205 146 199 162 187 178 c 1
 173 192 155 199 132 199 c 0
 109 199 92 192 81 178 c 0
 66 162 59 145 59 130 c 0
 59 111 66 95 81 81 c 1
 91 65 108 57 132 57 c 0
EndSplineSet
EndChar
StartChar: uni0E21
Encoding: 193 3617 163
OldEncoding: 3617
Width: 852
Flags: W
HStem: -14 80<161 181> 0 21G<636 733> 513 69<148.104 175> 725 72<161 177> 767 20G<636 733>
VStem: 20 70<642.65 659> 26 80<145 167> 205 97<102 267 341 654> 234 68<642.419 659> 636 97<0 13.0067 164 787>
Fore
205 342 m 1
 205 520 l 1
 194 515 179 513 161 513 c 0
 118 513 83 526 57 554 c 0
 32 581 20 616 20 656 c 0
 20 694 32 727 57 756 c 0
 84 784 118 797 161 797 c 0
 187 797 212 791 236 778 c 0
 258 766 275 749 287 728 c 0
 297 709 302 684 302 654 c 2
 302 342 l 1
 350 338 399 325 446 305 c 0
 495 284 535 262 565 238 c 1
 596 211 620 186 636 164 c 1
 636 787 l 5
 733 787 l 1
 733 0 l 1
 636 0 l 1
 636 29 620 64 590 104 c 0
 559 145 518 181 467 210 c 0
 418 240 363 258 302 267 c 1
 302 120 l 2
 302 80 292 47 271 23 c 1
 247 -2 215 -14 174 -14 c 0
 125 -14 89 3 64 37 c 0
 38 70 26 109 26 155 c 0
 26 203 41 246 71 285 c 1
 102 321 147 340 205 342 c 1
130 88 m 1
 142 74 156 66 171 66 c 0
 194 66 205 80 205 106 c 2
 205 271 l 1
 174 271 149 260 132 238 c 0
 115 214 106 188 106 159 c 0
 106 127 114 103 130 88 c 1
161 725 m 0
 140 725 122 719 108 705 c 1
 96 687 90 670 90 654 c 0
 90 638 96 622 108 606 c 0
 122 590 139 582 161 582 c 0
 186 582 204 590 214 606 c 1
 227 620 234 636 234 654 c 0
 234 673 227 690 214 705 c 0
 203 719 185 725 161 725 c 0
EndSplineSet
EndChar
StartChar: uni0E22
Encoding: 194 3618 164
OldEncoding: 3618
Width: 760
Flags: W
HStem: 0 84<154 491> 734 68<240 251> 767 20G<543 640>
VStem: 57 97<0 209> 307 70<655 673> 543 97<151 787>
Fore
187 374 m 1
 140 389 104 415 79 452 c 0
 54 487 42 528 42 575 c 0
 42 634 61 687 99 732 c 0
 137 779 184 802 240 802 c 4
 280 802 314 789 342 763 c 1
 365 733 377 701 377 665 c 0
 377 628 365 596 342 570 c 1
 316 544 282 531 240 531 c 0
 210 531 186 536 170 547 c 0
 152 561 142 570 139 575 c 1
 139 520 157 480 194 454 c 0
 230 428 269 416 312 416 c 1
 312 330 l 1
 260 330 221 317 196 292 c 1
 168 268 154 234 154 193 c 2
 154 84 l 1
 472 84 l 2
 503 84 523 88 532 97 c 0
 540 105 543 123 543 151 c 2
 543 787 l 1
 640 787 l 1
 640 151 l 2
 640 89 630 47 609 28 c 0
 585 9 540 0 472 0 c 2
 57 0 l 1
 57 193 l 2
 57 228 63 260 75 288 c 1
 88 312 103 330 120 341 c 2
 161 367 l 1
 187 374 l 1
240 600 m 0
 285 602 307 625 307 668 c 0
 307 687 302 703 291 716 c 0
 279 728 262 734 240 734 c 0
 220 734 204 728 192 716 c 0
 180 702 174 686 174 668 c 0
 174 651 180 636 192 621 c 0
 204 607 220 600 240 600 c 0
EndSplineSet
EndChar
StartChar: uni0E23
Encoding: 195 3619 165
OldEncoding: 3619
Width: 681
Flags: W
HStem: -14 71<395 407> 199 72<384 407> 653 85<533 551> 725 77<269 279>
VStem: 251 72<123 132> 439 97<263 403> 467 69<123 132>
Fore
536 386 m 2
 536 125 l 2
 536 84 522 50 494 22 c 0
 470 -2 437 -14 395 -14 c 0
 350 -14 315 1 291 30 c 1
 265 58 251 90 251 127 c 0
 251 164 265 198 291 229 c 0
 317 257 350 271 393 271 c 0
 405 271 420 268 439 263 c 1
 439 382 l 2
 439 419 435 450 428 477 c 1
 419 498 405 515 386 527 c 1
 368 536 341 545 304 556 c 0
 251 570 194 582 134 592 c 2
 6 613 l 1
 35 664 72 709 119 748 c 1
 165 783 215 802 269 802 c 0
 303 802 330 798 349 793 c 2
 428 768 l 1
 497 744 l 1
 514 740 531 738 547 738 c 0
 575 738 602 744 629 757 c 1
 647 675 l 1
 609 660 575 653 543 653 c 0
 520 653 501 655 488 660 c 2
 413 687 l 1
 333 715 l 2
 314 721 293 725 269 725 c 0
 245 725 220 718 194 706 c 1
 167 690 152 678 150 671 c 1
 150 671 l 1
 367 618 l 1
 441 601 488 576 508 541 c 0
 527 508 536 456 536 386 c 2
395 57 m 0
 419 57 437 64 448 79 c 0
 461 94 467 111 467 130 c 0
 467 145 461 162 448 178 c 0
 437 192 419 199 395 199 c 0
 372 199 355 192 344 178 c 0
 330 162 323 145 323 130 c 0
 323 111 330 95 344 81 c 1
 355 65 372 57 395 57 c 0
EndSplineSet
EndChar
StartChar: uni0E24
Encoding: 196 3620 166
OldEncoding: 3620
Width: 795
Flags: W
HStem: -14 71<215 234> 198 72<215 234> 718 84<339 389>
VStem: 86 71<129 135> 86 97<129 407> 300 68<129 135> 578 97<-410 558>
Fore
86 129 m 2
 86 391 l 2
 86 436 94 471 111 498 c 1
 130 522 153 539 178 551 c 1
 166 561 145 574 117 588 c 0
 86 606 48 616 4 619 c 1
 25 649 67 688 128 734 c 0
 189 779 267 802 360 802 c 0
 417 802 470 792 521 773 c 0
 568 756 605 727 634 687 c 0
 662 648 675 601 675 546 c 2
 675 -410 l 1
 578 -410 l 1
 578 546 l 2
 578 583 568 613 548 637 c 1
 530 663 505 683 472 697 c 0
 441 711 404 718 363 718 c 0
 280 718 208 692 148 641 c 1
 160 639 183 631 217 616 c 0
 249 602 279 582 307 556 c 1
 285 550 259 536 232 515 c 0
 199 491 183 452 183 396 c 2
 183 260 l 1
 189 267 205 270 232 270 c 0
 273 270 307 257 333 229 c 1
 357 199 368 166 368 129 c 0
 368 91 357 58 333 30 c 0
 308 1 274 -14 232 -14 c 0
 190 -14 155 -1 128 25 c 0
 100 50 86 85 86 129 c 2
229 57 m 0
 253 57 271 64 282 79 c 0
 294 93 300 110 300 129 c 0
 300 146 294 162 282 178 c 1
 268 192 250 198 229 198 c 0
 207 198 190 192 178 178 c 1
 164 164 157 147 157 129 c 0
 157 110 163 93 176 79 c 0
 190 64 207 57 229 57 c 0
EndSplineSet
EndChar
StartChar: uni0E25
Encoding: 197 3621 167
OldEncoding: 3621
Width: 765
Flags: W
HStem: -14 69<228 241> 0 21G<549 646> 199 72<228 241> 497 81<241 264> 725 77<310 360>
VStem: 67 88<324 355.08> 299 70<123 134> 549 97<0 16.0243 271 563>
Fore
255 497 m 1
 189 490 155 432 155 324 c 1
 160 252 l 1
 164 255 171 259 181 263 c 0
 192 268 207 271 228 271 c 0
 271 271 305 257 332 229 c 0
 357 201 369 168 369 130 c 0
 369 87 357 53 332 28 c 0
 306 0 271 -14 228 -14 c 0
 183 -14 147 1 123 30 c 0
 97 60 82 94 76 132 c 0
 68 195 65 261 67 329 c 0
 67 392 83 449 114 499 c 0
 144 545 186 571 241 578 c 1
 302 578 354 558 398 518 c 1
 443 476 477 428 502 375 c 1
 549 271 l 1
 549 541 l 2
 549 597 529 642 489 675 c 0
 450 708 398 725 334 725 c 0
 228 725 146 682 86 599 c 1
 23 647 l 1
 47 686 87 722 144 755 c 0
 202 785 267 802 338 802 c 0
 427 802 501 778 561 733 c 0
 618 690 646 626 646 541 c 2
 646 0 l 1
 549 0 l 1
 549 24 540 66 524 125 c 0
 506 182 483 239 456 293 c 0
 430 348 399 397 361 439 c 0
 328 478 293 497 255 497 c 1
228 199 m 0
 206 199 188 192 175 178 c 0
 162 163 155 146 155 127 c 0
 155 109 162 93 175 79 c 0
 187 63 205 55 228 55 c 0
 252 55 270 63 281 79 c 0
 293 93 299 109 299 127 c 0
 299 145 293 162 281 178 c 1
 268 192 250 199 228 199 c 0
EndSplineSet
EndChar
StartChar: uni0E26
Encoding: 198 3622 168
OldEncoding: 3622
Width: 885
Flags: W
HStem: -14 71<118.178 135> 198 72<132 134> 718 84<437 471>
VStem: -10 69<129 135> 178 97<260 407> 205 70<117 135> 671 95<-410 558>
Fore
178 260 m 1
 178 391 l 2
 178 422 183 449 192 473 c 0
 199 496 210 513 224 524 c 0
 238 535 253 544 271 551 c 1
 261 559 240 571 207 588 c 0
 176 606 138 616 94 619 c 1
 116 650 158 689 220 734 c 0
 284 779 361 802 453 802 c 0
 545 802 620 780 677 736 c 0
 736 691 766 628 766 546 c 2
 766 -410 l 1
 671 -410 l 1
 671 546 l 2
 671 583 660 613 640 637 c 1
 622 663 597 683 564 697 c 0
 533 711 496 718 455 718 c 0
 372 718 300 692 240 641 c 1
 252 639 275 631 309 616 c 0
 341 602 372 582 399 556 c 1
 377 550 352 536 324 515 c 0
 291 491 275 452 275 396 c 2
 275 125 l 2
 275 85 263 53 238 28 c 0
 212 0 177 -14 132 -14 c 0
 89 -14 55 0 30 28 c 0
 4 56 -10 89 -10 129 c 0
 -10 169 3 202 28 229 c 0
 53 257 88 270 132 270 c 0
 152 270 167 267 178 260 c 1
132 57 m 0
 155 57 173 64 187 79 c 0
 199 93 205 110 205 129 c 0
 205 146 199 162 187 178 c 1
 173 192 155 198 132 198 c 0
 109 198 92 192 81 178 c 0
 66 161 59 145 59 129 c 0
 59 111 66 94 81 81 c 1
 91 65 108 57 132 57 c 0
EndSplineSet
EndChar
StartChar: uni0E27
Encoding: 199 3623 169
OldEncoding: 3623
Width: 727
Flags: W
HStem: -14 71<454 470> 199 72<465 471> 725 77<303 326>
VStem: 324 69<117.443 133> 511 95<263 563> 537 69<116.334 133>
Fore
606 542 m 2
 606 130 l 2
 606 91 595 58 574 30 c 0
 554 1 518 -14 468 -14 c 0
 424 -14 389 0 363 28 c 0
 337 56 324 90 324 130 c 0
 324 169 337 202 361 229 c 0
 385 257 419 271 465 271 c 0
 480 271 496 268 511 263 c 1
 511 542 l 2
 511 603 492 649 456 679 c 0
 419 710 368 725 303 725 c 0
 250 725 202 712 157 685 c 0
 119 663 86 632 60 593 c 1
 0 641 l 1
 14 666 37 692 69 721 c 0
 97 743 132 762 173 778 c 0
 215 794 259 802 303 802 c 4
 394 802 468 779 523 732 c 1
 578 688 606 625 606 542 c 2
465 199 m 0
 443 199 427 192 414 178 c 0
 400 162 393 145 393 130 c 0
 393 112 399 95 411 81 c 0
 425 65 443 57 465 57 c 0
 489 57 507 64 519 79 c 0
 531 93 537 110 537 130 c 0
 537 146 531 162 519 178 c 0
 507 192 489 199 465 199 c 0
EndSplineSet
EndChar
StartChar: uni0E28
Encoding: 200 3624 170
OldEncoding: 3624
Width: 799
Flags: W
HStem: 0 21G<149 244 582 679> 329 69<333 347> 541 72<333 347> 729 77<346 361>
VStem: 8 95<511 545> 149 95<0 356> 404 70<461 470> 582 97<0 534>
Fore
608 715 m 5
 616 725 625 741 635 764 c 4
 647 784 657 808 666 835 c 5
 752 791 l 5
 740 755 725 726 708 704 c 4
 692 684 675 663 657 643 c 5
 672 613 679 577 679 534 c 6
 679 0 l 5
 582 0 l 5
 582 525 l 5
 578 576 l 5
 525 543 l 6
 500 529 481 520 467 516 c 5
 472 495 l 5
 474 463 l 5
 474 425 460 393 432 368 c 5
 406 342 372 329 333 329 c 4
 292 329 262 338 244 356 c 5
 244 0 l 5
 149 0 l 5
 149 141 l 6
 149 177 144 208 134 234 c 4
 124 256 105 288 78 331 c 4
 56 366 38 399 25 430 c 5
 14 453 8 485 8 525 c 4
 8 583 24 634 55 678 c 4
 86 721 129 753 182 773 c 4
 237 795 292 806 346 806 c 4
 455 806 542 776 608 715 c 5
543 641 m 5
 531 658 510 676 478 696 c 4
 445 718 401 729 346 729 c 4
 313 729 278 723 240 711 c 5
 200 695 168 672 143 643 c 4
 116 614 103 573 103 521 c 4
 103 494 112 462 129 426 c 4
 144 394 154 366 159 342 c 5
 159 417 l 6
 159 473 173 521 203 558 c 4
 233 595 277 613 333 613 c 4
 354 613 372 611 386 607 c 5
 404 596 415 588 421 583 c 6
 434 572 l 5
 452 576 470 585 490 599 c 4
 514 615 531 629 543 641 c 5
333 541 m 4
 308 541 291 534 279 521 c 4
 267 506 260 489 260 470 c 4
 260 453 267 437 279 421 c 5
 290 406 308 398 333 398 c 4
 357 398 375 406 386 421 c 5
 398 436 404 452 404 470 c 4
 404 490 398 507 386 521 c 4
 374 534 357 541 333 541 c 4
EndSplineSet
EndChar
StartChar: uni0E29
Encoding: 201 3625 171
OldEncoding: 3625
Width: 873
Flags: W
HStem: 0 84<85 585> 285 71<571 608.123> 504 61<460 462> 512 69<121.564 139> 725 72<120.719 139> 767 20G<633 730>
VStem: -8 71<641.868 658> 180 97<84 653> 207 70<640.584 658> 334 62<439 453> 522 67<442 453> 633 97<150 289 358 787>
Fore
730 320 m 5
 730 150 l 6
 730 88 719 47 698 28 c 4
 677 10 632 0 562 0 c 6
 85 0 l 5
 85 84 l 5
 180 84 l 5
 180 519 l 5
 168 514 154 512 136 512 c 4
 90 512 56 527 32 556 c 5
 5 584 -8 617 -8 656 c 4
 -8 693 5 726 32 755 c 4
 57 783 92 797 136 797 c 4
 161 797 186 790 210 778 c 4
 231 766 248 749 261 727 c 4
 272 708 277 683 277 653 c 6
 277 84 l 5
 562 84 l 6
 593 84 612 88 619 97 c 5
 628 104 633 122 633 150 c 6
 633 289 l 5
 618 286 597 285 571 285 c 4
 509 287 455 300 409 322 c 4
 362 344 337 383 334 440 c 4
 334 472 345 501 365 526 c 4
 387 552 418 565 460 565 c 4
 503 565 535 553 557 530 c 5
 578 503 589 474 589 442 c 4
 589 404 577 375 553 356 c 5
 633 358 l 5
 633 787 l 5
 730 787 l 5
 730 396 l 5
 743 404 758 422 776 451 c 4
 791 472 800 507 802 556 c 5
 878 556 l 5
 878 485 864 435 837 405 c 5
 806 372 770 344 730 320 c 5
460 380 m 4
 473 380 484 383 494 389 c 4
 504 396 511 404 515 413 c 4
 520 422 522 431 522 442 c 4
 522 461 517 476 506 486 c 4
 493 498 477 504 460 504 c 4
 441 504 426 498 414 486 c 4
 402 475 396 460 396 442 c 4
 396 428 402 413 414 398 c 5
 426 386 441 380 460 380 c 4
136 725 m 4
 111 725 94 718 82 704 c 4
 70 688 63 671 63 653 c 4
 63 636 70 620 82 605 c 5
 93 589 111 581 136 581 c 4
 160 581 178 589 189 605 c 5
 201 619 207 635 207 653 c 4
 207 671 201 688 189 704 c 4
 177 718 160 725 136 725 c 4
EndSplineSet
EndChar
StartChar: uni0E2A
Encoding: 202 3626 172
OldEncoding: 3626
Width: 763
Flags: W
HStem: -14 69<226 239> 0 21G<546 643> 199 72<226 239> 497 82<239 262> 724 77<308 362>
VStem: 65 88<324 355.704> 297 70<123 134> 546 97<0 16.969 271 560>
Fore
226 199 m 4
 204 199 186 192 172 179 c 4
 160 163 153 147 153 128 c 4
 153 110 160 93 172 79 c 4
 185 63 203 55 226 55 c 4
 250 55 267 63 279 79 c 4
 291 93 297 110 297 128 c 4
 297 146 291 163 279 179 c 5
 266 192 248 199 226 199 c 4
522 636 m 5
 522 631 507 607 478 565 c 5
 447 525 431 501 431 493 c 5
 450 472 468 446 484 415 c 5
 524 331 l 5
 546 271 l 5
 546 541 l 6
 546 574 538 605 522 636 c 5
389 548 m 6
 390 548 406 571 438 616 c 6
 482 680 l 5
 448 710 398 724 332 724 c 4
 226 724 144 683 84 599 c 5
 21 647 l 5
 44 687 85 722 142 755 c 4
 200 786 265 801 336 801 c 4
 404 801 465 787 519 759 c 5
 523 759 537 777 561 812 c 4
 584 848 599 866 608 866 c 5
 630 852 l 5
 667 826 l 6
 676 819 681 812 681 806 c 5
 628 742 l 5
 603 718 591 705 591 702 c 5
 626 660 643 606 643 541 c 6
 643 0 l 5
 546 0 l 5
 546 24 538 66 522 125 c 4
 504 183 481 239 454 294 c 4
 428 349 397 397 359 440 c 4
 326 478 290 497 253 497 c 5
 186 490 153 433 153 324 c 5
 158 252 l 5
 162 256 169 260 179 263 c 4
 190 269 205 271 226 271 c 4
 269 271 303 257 330 229 c 4
 354 202 367 168 367 130 c 4
 367 87 354 53 330 28 c 4
 304 0 269 -14 226 -14 c 4
 180 -14 145 1 120 31 c 4
 95 61 79 95 74 132 c 4
 66 195 63 261 65 329 c 4
 65 392 81 449 111 499 c 4
 142 545 184 572 239 579 c 5
 287 579 321 573 343 560 c 5
 354 558 l 5
 378 553 l 5
 389 548 l 6
EndSplineSet
EndChar
StartChar: uni0E2B
Encoding: 203 3627 173
OldEncoding: 3627
Width: 880
Flags: W
HStem: 0 21G<187 284 666 761> 512 69<128.564 146> 725 72<127.719 146 619 624>
VStem: -1 71<641.868 658> 187 97<0 49 0 653> 214 70<640.584 658> 474 73<651 658> 666 95<0 385> 691 72<656 658>
Fore
187 0 m 5
 187 519 l 5
 175 514 161 512 143 512 c 4
 97 512 63 527 39 556 c 5
 12 584 -1 617 -1 656 c 4
 -1 693 12 726 39 755 c 4
 64 783 99 797 143 797 c 4
 168 797 193 790 217 778 c 4
 238 766 255 749 268 727 c 4
 279 708 284 683 284 653 c 6
 284 294 l 5
 310 358 350 412 404 456 c 4
 460 502 500 531 525 541 c 5
 491 566 474 604 474 653 c 4
 474 690 487 724 513 755 c 4
 539 783 574 797 619 797 c 4
 665 797 700 783 726 755 c 4
 751 728 763 695 763 656 c 4
 763 631 757 607 744 583 c 4
 729 558 710 541 688 530 c 5
 703 525 718 510 732 486 c 5
 751 464 761 427 761 373 c 6
 761 0 l 5
 666 0 l 5
 666 373 l 6
 666 417 658 448 642 466 c 5
 624 484 611 494 604 497 c 5
 503 447 425 376 370 285 c 5
 312 197 284 112 284 31 c 6
 284 0 l 5
 187 0 l 5
619 727 m 4
 597 727 580 720 569 706 c 4
 554 691 547 674 547 656 c 4
 547 637 554 621 569 607 c 5
 579 591 596 583 619 583 c 4
 644 583 662 591 673 607 c 5
 685 621 691 637 691 656 c 4
 691 674 685 691 673 706 c 4
 661 720 644 727 619 727 c 4
143 725 m 4
 118 725 101 718 89 704 c 4
 77 688 70 671 70 653 c 4
 70 636 77 620 89 605 c 5
 100 589 118 581 143 581 c 4
 167 581 185 589 196 605 c 5
 208 619 214 635 214 653 c 4
 214 671 208 688 196 704 c 4
 184 718 167 725 143 725 c 4
EndSplineSet
EndChar
StartChar: uni0E2C
Encoding: 204 3628 174
OldEncoding: 3628
Width: 940
Flags: W
HStem: 0 21G<173 270 723 820> 513 69<114.608 132> 657 67<701 723> 725 72<114.072 132> 845 62<701 717>
VStem: -14 71<642.065 659> 173 97<0 654> 200 70<641.571 659> 578 68<771 797> 721 99<2.12864 19 252 676> 763 68<773 788>
DStem: 502 556 502 752 710 97 723 252 502 752 502 556 270 252 288 97 502 556 502 752 710 97 723 252 502 752 502 556 270 252 288 97 502 556 502 752 710 97 723 252 502 752 502 556 270 252 288 97 502 556 502 752 710 97 723 252 502 752 502 556 270 252 288 97 502 556 502 752 710 97 723 252 502 752 502 556 270 252 288 97 502 556 502 752 710 97 723 252 502 752 502 556 270 252 288 97 502 556 502 752 710 97 723 252 502 752 502 556 270 252 288 97 502 556 502 752 710 97 723 252 502 752 502 556 270 252 288 97 502 556 502 752 710 97 723 252 502 752 502 556 270 252 288 97 502 556 502 752 710 97 723 252 502 752 502 556 270 252 288 97 502 556 502 752 710 97 723 252 502 752 502 556 270 252 288 97 502 556 502 752 710 97 723 252 502 752 502 556 270 252 288 97 502 556 502 752 710 97 723 252 502 752 502 556 270 252 288 97 502 556 502 752 710 97 723 252 502 752 502 556 270 252 288 97 502 556 502 752 710 97 723 252 502 752 502 556 270 252 288 97 502 556 502 752 710 97 723 252 502 752 502 556 270 252 288 97 502 556 502 752 710 97 723 252 502 752 502 556 270 252 288 97 502 556 502 752 710 97 723 252 502 752 502 556 270 252 288 97 502 556 502 752 710 97 723 252 502 752 502 556 270 252 288 97 502 556 502 752 710 97 723 252 502 752 502 556 270 252 288 97 502 556 502 752 710 97 723 252 502 752 502 556 270 252 288 97 502 556 502 752 710 97 723 252 502 752 502 556 270 252 288 97 502 556 502 752 710 97 723 252 502 752 502 556 270 252 288 97 502 556 502 752 710 97 723 252 502 752 502 556 270 252 288 97 502 556 502 752 710 97 723 252 502 752 502 556 270 252 288 97 502 556 502 752 710 97 723 252 502 752 502 556 270 252 288 97 502 556 502 752 710 97 723 252 502 752 502 556 270 252 288 97 502 556 502 752 710 97 723 252 502 752 502 556 270 252 288 97
Fore
173 0 m 1
 173 519 l 1
 162 515 147 513 129 513 c 0
 84 513 49 527 25 557 c 1
 -1 585 -14 618 -14 656 c 0
 -14 694 -1 727 25 756 c 0
 51 784 85 797 129 797 c 0
 155 797 180 791 204 778 c 0
 225 766 242 749 255 727 c 0
 265 709 270 684 270 654 c 2
 270 252 l 1
 502 752 l 1
 723 252 l 1
 723 657 l 1
 675 657 638 670 613 694 c 0
 589 718 578 749 578 786 c 0
 578 821 590 850 615 872 c 0
 641 896 672 907 710 907 c 0
 745 907 773 895 796 870 c 0
 819 844 831 812 831 773 c 1
 842 777 856 789 874 808 c 0
 892 825 906 850 916 883 c 1
 983 845 l 1
 969 801 945 765 911 735 c 0
 873 703 842 683 820 676 c 1
 820 0 l 1
 723 0 l 2
 722 0 721 6 721 18 c 1
 717 60 l 1
 710 97 l 1
 502 556 l 1
 288 97 l 1
 282 81 277 64 275 46 c 1
 270 0 l 1
 173 0 l 1
129 725 m 0
 105 725 87 718 76 705 c 0
 63 688 57 671 57 654 c 0
 57 637 63 620 76 605 c 1
 87 590 104 582 129 582 c 0
 154 582 172 590 182 605 c 1
 194 620 200 636 200 654 c 0
 200 672 194 689 182 705 c 0
 171 718 153 725 129 725 c 0
703 724 m 0
 722 724 737 730 749 742 c 1
 759 755 763 769 763 784 c 0
 763 802 759 817 749 828 c 1
 738 839 723 845 703 845 c 0
 686 845 672 839 661 826 c 0
 651 815 646 801 646 784 c 0
 646 767 651 754 661 742 c 0
 671 730 685 724 703 724 c 0
EndSplineSet
EndChar
StartChar: uni0E2D
Encoding: 205 3629 175
OldEncoding: 3629
Width: 784
Flags: W
HStem: 0 84<252 517> 280 71<217 235> 493 72<217 235> 727 75<329 373>
VStem: 84 71<150 433> 84 97<150 289> 299 72<415 433> 568 97<150 561>
Fore
181 289 m 5
 181 150 l 6
 181 122 186 104 195 97 c 5
 202 88 221 84 252 84 c 6
 495 84 l 6
 526 84 546 88 555 97 c 4
 563 104 568 122 568 150 c 6
 568 541 l 6
 568 599 547 644 507 676 c 4
 464 710 412 727 350 727 c 4
 248 729 165 686 102 599 c 5
 42 647 l 5
 64 686 103 722 160 755 c 5
 218 786 282 802 354 802 c 4
 413 802 466 791 515 771 c 4
 561 750 598 721 625 682 c 5
 652 640 665 593 665 541 c 6
 665 150 l 6
 665 88 654 48 632 28 c 4
 610 9 565 0 495 0 c 6
 252 0 l 6
 206 0 171 4 146 11 c 4
 122 19 107 33 100 53 c 5
 89 73 84 106 84 150 c 6
 84 421 l 6
 84 441 89 461 98 481 c 5
 105 504 120 523 142 539 c 4
 163 556 192 565 230 565 c 4
 273 565 307 551 334 523 c 4
 359 495 371 462 371 424 c 4
 371 383 359 349 334 322 c 4
 308 294 273 280 230 280 c 4
 219 280 203 283 181 289 c 5
228 351 m 4
 249 351 267 359 281 375 c 4
 293 387 299 403 299 421 c 4
 299 441 293 458 281 472 c 4
 269 486 252 493 228 493 c 4
 204 493 186 487 174 475 c 4
 162 460 155 443 155 424 c 4
 155 404 162 387 174 373 c 4
 188 359 206 351 228 351 c 4
EndSplineSet
EndChar
StartChar: uni0E2E
Encoding: 206 3630 176
OldEncoding: 3630
Width: 778
Flags: W
HStem: 0 84<246 513> 203 70<209 226> 417 71<209 226> 526 79<325 339> 730 72<325 355>
VStem: 50 97<655 665> 78 71<150 353> 78 97<127.499 212> 292 72<335 353> 561 97<150 584>
Fore
78 150 m 2
 78 342 l 2
 78 373 88 405 109 439 c 0
 130 472 169 488 224 488 c 0
 267 488 302 474 327 446 c 0
 352 419 364 386 364 347 c 0
 364 310 352 276 327 245 c 1
 301 217 266 203 224 203 c 0
 205 203 189 206 175 212 c 1
 175 150 l 2
 175 121 179 104 188 97 c 1
 195 88 214 84 246 84 c 2
 489 84 l 2
 520 84 540 88 549 97 c 0
 557 104 561 121 561 150 c 2
 561 584 l 1
 543 569 511 556 464 544 c 0
 410 532 364 526 325 526 c 0
 255 526 192 538 135 561 c 0
 78 584 50 616 50 658 c 0
 50 692 64 719 94 739 c 0
 124 760 161 777 202 787 c 0
 244 797 285 802 325 802 c 0
 381 802 431 795 476 783 c 0
 511 773 543 758 573 739 c 2
 605 716 l 1
 605 716 l 1
 639 750 666 780 686 806 c 1
 753 753 l 1
 727 716 707 691 692 679 c 0
 674 661 658 649 646 641 c 1
 652 637 656 628 658 614 c 1
 658 150 l 2
 658 88 648 47 626 28 c 0
 604 9 558 0 489 0 c 2
 246 0 l 2
 200 0 165 3 140 11 c 0
 116 18 100 32 94 53 c 1
 83 73 78 105 78 150 c 2
325 605 m 0
 364 605 401 610 434 619 c 1
 467 626 493 633 513 641 c 0
 531 650 540 656 540 658 c 1
 526 673 503 688 473 705 c 1
 436 721 387 730 325 730 c 0
 278 730 237 724 202 714 c 0
 165 702 147 685 147 663 c 0
 147 624 206 605 325 605 c 0
221 273 m 0
 245 273 263 280 274 293 c 0
 286 310 292 327 292 344 c 0
 292 364 286 381 274 395 c 0
 262 409 245 417 221 417 c 0
 200 417 182 409 168 395 c 0
 155 384 149 367 149 344 c 0
 149 325 155 308 168 293 c 0
 182 280 199 273 221 273 c 0
EndSplineSet
EndChar
StartChar: uni0E2F
Encoding: 207 3631 177
OldEncoding: 3631
Width: 730
Flags: W
HStem: 354 86<268 292> 522 67<184 212> 730 72<184 212> 767 20G<514 611>
VStem: 35 95<600 661> 270 66<657 665> 514 97<225 517 787 787>
Fore
194 802 m 4
 239 802 274 789 298 762 c 4
 323 735 336 702 336 663 c 4
 336 627 323 594 298 566 c 4
 274 536 242 522 203 522 c 4
 181 522 164 525 152 531 c 6
 128 542 l 5
 139 514 157 490 183 471 c 5
 206 450 238 440 278 440 c 4
 321 440 361 456 395 489 c 4
 431 522 460 565 483 617 c 5
 504 670 514 727 514 787 c 5
 611 787 l 5
 611 246 l 6
 611 167 592 107 552 65 c 4
 514 24 451 -8 363 -30 c 5
 340 58 l 5
 407 75 454 97 481 124 c 5
 503 150 514 194 514 255 c 6
 514 517 l 5
 491 461 460 421 421 396 c 4
 376 368 330 354 282 354 c 4
 230 354 183 369 139 398 c 4
 93 429 62 468 46 517 c 4
 39 545 35 572 35 600 c 4
 35 658 47 706 71 743 c 4
 97 782 138 802 194 802 c 4
199 589 m 4
 223 589 241 595 252 610 c 4
 264 624 270 641 270 661 c 4
 270 679 263 695 250 709 c 4
 238 723 221 730 199 730 c 4
 176 730 159 723 148 709 c 4
 136 693 130 677 130 661 c 4
 130 641 136 624 148 610 c 4
 159 595 176 589 199 589 c 4
EndSplineSet
EndChar
StartChar: uni0E30
Encoding: 208 3632 178
OldEncoding: 3632
Width: 605
Flags: W
HStem: -0 77<226 264> 223 62<151 159> 516 76<226 264> 738 63<151 159> 766 20G<424 521>
VStem: 14 71<146 161 662 675> 217 75<143 161 662 675>
Fore
226 516 m 0
 154 516 101 531 67 560 c 1
 32 588 14 622 14 664 c 0
 14 701 27 733 53 762 c 0
 80 788 112 801 151 801 c 0
 199 801 234 789 257 764 c 0
 280 738 292 708 292 673 c 0
 292 645 282 618 264 592 c 1
 289 592 322 604 363 627 c 1
 404 653 424 706 424 786 c 1
 521 786 l 1
 521 728 510 679 486 638 c 1
 458 596 424 565 384 546 c 0
 342 526 290 516 226 516 c 0
226 -0 m 0
 156 -0 103 15 67 44 c 0
 32 75 14 110 14 148 c 0
 14 183 27 214 53 243 c 0
 80 273 112 287 151 285 c 0
 180 285 207 278 232 263 c 0
 249 253 264 238 277 218 c 0
 287 199 292 179 292 157 c 0
 292 128 282 101 264 77 c 1
 291 77 325 89 363 113 c 0
 404 137 424 190 424 271 c 1
 521 271 l 1
 521 212 510 163 486 123 c 0
 460 80 426 49 384 30 c 0
 343 10 290 -0 226 -0 c 0
151 223 m 0
 131 223 115 216 102 203 c 0
 91 190 85 174 85 155 c 0
 85 140 91 125 104 108 c 0
 116 95 131 88 151 88 c 0
 172 88 189 94 201 106 c 0
 212 119 217 135 217 155 c 0
 217 177 212 193 201 203 c 0
 189 216 172 223 151 223 c 0
151 738 m 0
 130 738 114 732 102 720 c 0
 91 706 85 690 85 671 c 0
 85 655 91 640 104 625 c 0
 116 611 131 604 151 604 c 0
 173 604 190 611 201 625 c 0
 212 635 217 651 217 671 c 0
 217 716 195 738 151 738 c 0
EndSplineSet
EndChar
StartChar: uni0E31
Encoding: 209 3633 179
OldEncoding: 3633
Width: 0
Flags: W
HStem: 1108 67<-337 -327>
VStem: -472 67<1022 1044> -273 75<1025 1044>
Fore
-472 1022 m 1
 -472 1068 -460 1104 -437 1131 c 1
 -415 1160 -382 1175 -337 1175 c 0
 -296 1175 -262 1161 -236 1135 c 0
 -211 1108 -198 1077 -198 1042 c 0
 -198 1004 -213 971 -242 943 c 1
 -236 941 -222 938 -202 936 c 2
 -160 932 l 1
 -117 934 -74 944 -32 962 c 0
 14 983 51 1008 76 1038 c 1
 106 1070 127 1108 140 1152 c 1
 220 1113 l 1
 207 1069 182 1026 144 985 c 1
 107 948 62 916 7 890 c 0
 -49 864 -106 850 -164 850 c 0
 -237 848 -307 861 -372 890 c 0
 -432 918 -465 962 -472 1022 c 1
-337 974 m 0
 -318 974 -302 980 -289 992 c 1
 -278 1005 -273 1021 -273 1040 c 0
 -273 1062 -278 1078 -289 1089 c 0
 -303 1102 -319 1108 -337 1108 c 0
 -357 1108 -373 1102 -386 1089 c 0
 -399 1077 -405 1061 -405 1040 c 0
 -405 1024 -399 1009 -386 994 c 0
 -375 980 -358 974 -337 974 c 0
EndSplineSet
EndChar
StartChar: uni0E32
Encoding: 210 3634 180
OldEncoding: 3634
Width: 650
Flags: W
HStem: 0 21G<434 531> 729 72<262 285>
VStem: 434 97<0 594>
Fore
-4 627 m 5
 26 684 61 727 100 757 c 4
 140 786 194 801 262 801 c 4
 342 801 406 781 456 740 c 4
 506 701 531 644 531 569 c 6
 531 0 l 5
 434 0 l 5
 434 574 l 6
 434 624 418 663 387 689 c 4
 356 716 315 729 262 729 c 4
 216 729 177 716 144 691 c 4
 110 667 84 633 67 592 c 5
 32 611 l 5
 -4 627 l 5
EndSplineSet
EndChar
StartChar: uni0E33
Encoding: 211 3635 181
OldEncoding: 3635
Width: 670
Flags: W
HStem: 0 21G<453 550> 729 72<282 299> 908 63<-184 -182> 1129 62<-184 -182>
VStem: -326 64<1050 1057> -105 62<1050 1057> 453 97<0 594>
Fore
-184 908 m 0
 -227 908 -262 922 -288 950 c 0
 -314 980 -326 1013 -326 1050 c 0
 -326 1090 -314 1123 -290 1149 c 0
 -265 1177 -229 1191 -184 1191 c 0
 -140 1191 -105 1177 -79 1149 c 0
 -55 1123 -43 1090 -43 1050 c 0
 -43 1010 -55 977 -79 950 c 0
 -105 922 -140 908 -184 908 c 0
16 627 m 1
 46 684 81 727 120 757 c 0
 160 787 214 801 282 801 c 0
 361 801 426 781 476 740 c 0
 526 701 550 644 550 570 c 2
 550 0 l 1
 453 0 l 1
 453 574 l 2
 453 625 438 663 407 689 c 0
 376 716 334 729 282 729 c 0
 236 729 196 717 164 692 c 0
 129 667 104 634 87 592 c 1
 52 611 l 1
 16 627 l 1
-184 1129 m 0
 -209 1129 -228 1121 -242 1105 c 0
 -255 1089 -262 1071 -262 1050 c 0
 -262 1029 -255 1010 -242 994 c 0
 -227 979 -208 971 -184 971 c 0
 -169 971 -155 975 -142 983 c 0
 -131 989 -122 999 -114 1013 c 0
 -108 1023 -105 1035 -105 1050 c 0
 -105 1071 -112 1089 -125 1105 c 0
 -139 1121 -158 1129 -184 1129 c 0
EndSplineSet
EndChar
StartChar: uni0E34
Encoding: 212 3636 182
OldEncoding: 3636
Width: 0
Flags: W
HStem: 921 67<-571 -477> 1099 72<-420 -399>
DStem: -478 990 -478 990 -571 988 -399 988
Fore
-399 1171 m 5
 -298 1157 -224 1118 -180 1052 c 4
 -136 984 -107 914 -92 842 c 5
 -213 882 l 6
 -255 894 -313 905 -386 914 c 4
 -428 919 -470 921 -513 921 c 6
 -650 917 l 5
 -737 904 l 5
 -730 950 -710 994 -677 1036 c 5
 -648 1079 -609 1111 -560 1134 c 5
 -513 1158 -460 1171 -399 1171 c 5
-418 1099 m 5
 -467 1099 -510 1087 -547 1062 c 5
 -588 1038 -611 1012 -617 983 c 5
 -571 988 l 5
 -478 990 l 5
 -399 988 l 5
 -340 983 -293 974 -258 961 c 4
 -231 951 -209 941 -191 930 c 5
 -235 1027 -311 1083 -418 1099 c 5
EndSplineSet
EndChar
StartChar: uni0E35
Encoding: 213 3637 183
OldEncoding: 3637
Width: 0
Flags: W
HStem: 916 67<-571 -477> 1093 73<-420 -399>
VStem: -207 87<1075 1258>
DStem: -478 985 -478 985 -571 983 -399 983
Fore
-207 1075 m 5
 -207 1258 l 5
 -120 1258 l 5
 -120 936 l 5
 -120 936 l 5
 -110 911 l 5
 -92 837 l 5
 -213 876 l 6
 -255 889 -313 900 -386 909 c 4
 -427 914 -470 916 -513 916 c 6
 -650 911 l 5
 -737 899 l 5
 -730 945 -710 989 -677 1031 c 5
 -649 1072 -609 1105 -560 1131 c 4
 -512 1154 -459 1166 -399 1166 c 5
 -362 1161 -329 1152 -300 1137 c 4
 -278 1128 -256 1116 -235 1101 c 5
 -207 1075 l 5
-418 1093 m 5
 -450 1093 -481 1087 -511 1075 c 4
 -541 1062 -564 1048 -580 1031 c 5
 -597 1018 -609 1000 -617 978 c 5
 -571 983 l 5
 -478 985 l 5
 -399 983 l 5
 -340 978 -293 969 -259 955 c 4
 -231 946 -209 935 -191 925 c 5
 -208 966 -234 1002 -268 1033 c 4
 -303 1067 -353 1086 -418 1093 c 5
EndSplineSet
EndChar
StartChar: uni0E36
Encoding: 214 3638 184
OldEncoding: 3638
Width: 0
Flags: W
HStem: 915 67<-571 -477> 1092 77<-440 -418> 1209 62<-214 -192>
VStem: -330 64<1149 1158> -147 67<1145 1151>
DStem: -478 984 -478 984 -571 982 -399 982
Fore
-80 1147 m 4
 -80 1116 -88 1089 -103 1068 c 4
 -119 1044 -141 1030 -166 1026 c 5
 -158 1015 -145 990 -127 952 c 4
 -110 919 -98 880 -92 836 c 5
 -212 876 l 6
 -255 888 -312 899 -385 908 c 4
 -428 913 -470 915 -513 915 c 6
 -650 911 l 5
 -737 898 l 5
 -727 950 -707 996 -677 1037 c 4
 -649 1077 -612 1109 -566 1134 c 4
 -522 1158 -480 1169 -438 1169 c 5
 -388 1165 l 5
 -346 1156 l 5
 -330 1149 l 5
 -330 1180 -318 1207 -295 1231 c 5
 -275 1258 -245 1271 -207 1271 c 4
 -166 1271 -135 1259 -114 1236 c 4
 -94 1211 -82 1181 -80 1147 c 4
-205 1209 m 4
 -226 1209 -240 1203 -249 1192 c 5
 -260 1181 -266 1168 -266 1151 c 4
 -266 1135 -260 1122 -249 1112 c 4
 -236 1099 -221 1092 -205 1092 c 4
 -190 1092 -177 1099 -164 1112 c 4
 -153 1122 -147 1135 -147 1151 c 4
 -147 1167 -151 1181 -160 1192 c 5
 -172 1203 -186 1209 -205 1209 c 4
-418 1092 m 5
 -450 1092 -481 1086 -511 1074 c 4
 -541 1062 -564 1047 -580 1030 c 5
 -596 1017 -609 999 -617 977 c 5
 -571 982 l 5
 -478 984 l 5
 -399 982 l 5
 -340 977 -293 968 -258 955 c 4
 -231 945 -208 935 -191 924 c 5
 -205 961 -231 996 -268 1030 c 4
 -302 1063 -352 1083 -418 1092 c 5
EndSplineSet
EndChar
StartChar: uni0E37
Encoding: 215 3639 185
OldEncoding: 3639
Width: 0
Flags: W
HStem: 916 67<-571 -477> 1093 77<-434 -418>
VStem: -381 88<1163 1258> -207 87<1073 1258>
DStem: -478 985 -478 985 -571 983 -399 983
Fore
-120 934 m 5
 -117 934 -108 902 -92 837 c 5
 -213 876 l 6
 -255 889 -313 900 -386 909 c 4
 -427 914 -470 916 -513 916 c 6
 -650 911 l 5
 -737 899 l 5
 -731 946 -711 992 -677 1036 c 4
 -644 1079 -607 1112 -566 1133 c 5
 -524 1158 -479 1170 -432 1170 c 4
 -414 1170 -397 1168 -381 1163 c 5
 -381 1258 l 5
 -293 1258 l 5
 -293 1135 l 5
 -258 1122 -229 1102 -207 1073 c 5
 -207 1258 l 5
 -120 1258 l 5
 -120 934 l 5
-418 1093 m 5
 -467 1093 -510 1081 -548 1057 c 4
 -588 1032 -611 1006 -617 978 c 5
 -571 983 l 5
 -478 985 l 5
 -399 983 l 5
 -340 978 -293 969 -259 955 c 4
 -231 946 -209 935 -191 925 c 5
 -235 1021 -311 1077 -418 1093 c 5
EndSplineSet
EndChar
StartChar: uni0E38
Encoding: 216 3640 186
OldEncoding: 3640
Width: 0
Flags: W
HStem: -316 72<-270 -260> -104 72<-262 -260>
VStem: -405 69<-187.898 -168> -219 98<-513 -170> -191 70<-188.595 -168>
Fore
-121 -513 m 5
 -219 -513 l 5
 -219 -309 l 5
 -232 -314 -249 -316 -268 -316 c 4
 -312 -316 -346 -302 -369 -274 c 4
 -393 -247 -405 -214 -405 -175 c 4
 -405 -136 -393 -103 -369 -73 c 5
 -344 -45 -308 -32 -262 -32 c 4
 -220 -32 -187 -44 -162 -69 c 4
 -135 -94 -121 -128 -121 -170 c 6
 -121 -513 l 5
-262 -244 m 4
 -242 -244 -224 -237 -209 -223 c 4
 -197 -211 -191 -195 -191 -175 c 4
 -191 -155 -197 -138 -209 -124 c 4
 -221 -110 -239 -104 -262 -104 c 4
 -285 -104 -304 -111 -318 -126 c 4
 -330 -141 -336 -157 -336 -175 c 4
 -336 -194 -330 -210 -316 -223 c 4
 -302 -237 -284 -244 -262 -244 c 4
EndSplineSet
EndChar
StartChar: uni0E39
Encoding: 217 3641 187
OldEncoding: 3641
Width: 0
Flags: W
HStem: -534 78<-277 -269> -317 72<-483 -476> -104 72<-478 -476>
VStem: -622 72<-183 -165> -434 97<-398 -310> -406 69<-183 -165> -217 98<-398 -41>
Fore
-434 -398 m 6
 -434 -310 l 5
 -448 -315 -463 -317 -481 -317 c 4
 -524 -317 -558 -302 -582 -273 c 4
 -609 -242 -622 -209 -622 -173 c 4
 -622 -138 -609 -105 -582 -74 c 4
 -558 -46 -523 -32 -478 -32 c 4
 -436 -32 -403 -45 -379 -69 c 5
 -351 -94 -337 -127 -337 -171 c 6
 -337 -398 l 6
 -337 -413 -331 -427 -319 -439 c 4
 -308 -450 -294 -456 -277 -456 c 4
 -260 -456 -246 -450 -235 -439 c 4
 -223 -427 -217 -413 -217 -398 c 6
 -217 -41 l 5
 -119 -41 l 5
 -119 -398 l 6
 -119 -437 -135 -471 -165 -498 c 4
 -195 -522 -232 -534 -277 -534 c 4
 -318 -534 -354 -521 -386 -495 c 4
 -418 -470 -434 -437 -434 -398 c 6
-478 -245 m 4
 -454 -245 -437 -238 -425 -224 c 4
 -412 -209 -406 -193 -406 -176 c 4
 -406 -158 -412 -142 -425 -127 c 5
 -436 -112 -454 -104 -478 -104 c 4
 -503 -104 -520 -111 -532 -125 c 4
 -544 -139 -550 -156 -550 -176 c 4
 -550 -194 -543 -211 -529 -224 c 5
 -518 -238 -501 -245 -478 -245 c 4
EndSplineSet
EndChar
StartChar: uni0E3A
Encoding: 218 3642 188
OldEncoding: 3642
Width: 0
Flags: W
Fore
-171 -73 m 5
 -147 -73 -129 -79 -117 -93 c 5
 -105 -111 -99 -129 -99 -147 c 4
 -99 -163 -105 -180 -117 -198 c 5
 -129 -212 -147 -218 -171 -218 c 4
 -194 -218 -211 -212 -224 -198 c 4
 -238 -181 -244 -165 -244 -147 c 4
 -244 -131 -238 -113 -226 -95 c 5
 -213 -82 -194 -75 -171 -73 c 5
EndSplineSet
EndChar
StartChar: dottedcircle
Encoding: 221 9676 190
OldEncoding: 63260
Width: 1269
VWidth: 1000
Flags: W
HStem: 6 50<660 662> 56 50<460 462> 70 50<832 834> 178 50<328 335> 194 50<942 944> 377 50<279 287> 548 50<942 944> 556 50<338 340> 678 50<474 479> 724 50<658 662>
VStem: 254 50<402 407> 303 50<203 205> 313 50<581 583> 435 50<81 87> 449 50<703 711> 635 50<31 39 749 751> 791 50<693 695> 807 50<95 103> 917 50<219 221 573 581> 965 50<393 395>
Fore
323 603 m 2
459 725 m 2
445 103 m 2
313 225 m 2
817 117 m 2
927 241 m 2
927 595 m 2
801 715 m 2
975 415 m 2
264 424 m 2
643 771 m 2
338 606 m 0
 352 606 363 595 363 581 c 0
 363 567 352 556 338 556 c 0
 324 556 313 567 313 581 c 0
 313 595 324 606 338 606 c 0
474 728 m 0
 488 728 499 717 499 703 c 0
 499 689 488 678 474 678 c 0
 460 678 449 689 449 703 c 0
 449 717 460 728 474 728 c 0
460 106 m 0
 474 106 485 95 485 81 c 0
 485 67 474 56 460 56 c 0
 446 56 435 67 435 81 c 0
 435 95 446 106 460 106 c 0
328 228 m 0
 342 228 353 217 353 203 c 0
 353 189 342 178 328 178 c 0
 314 178 303 189 303 203 c 0
 303 217 314 228 328 228 c 0
832 120 m 0
 846 120 857 109 857 95 c 0
 857 81 846 70 832 70 c 0
 818 70 807 81 807 95 c 0
 807 109 818 120 832 120 c 0
942 244 m 0
 956 244 967 233 967 219 c 0
 967 205 956 194 942 194 c 0
 928 194 917 205 917 219 c 0
 917 233 928 244 942 244 c 0
942 598 m 0
 956 598 967 587 967 573 c 0
 967 559 956 548 942 548 c 0
 928 548 917 559 917 573 c 0
 917 587 928 598 942 598 c 0
816 718 m 0
 830 718 841 707 841 693 c 0
 841 679 830 668 816 668 c 0
 802 668 791 679 791 693 c 0
 791 707 802 718 816 718 c 0
990 418 m 0
 1004 418 1015 407 1015 393 c 0
 1015 379 1004 368 990 368 c 0
 976 368 965 379 965 393 c 0
 965 407 976 418 990 418 c 0
279 427 m 0
 293 427 304 416 304 402 c 0
 304 388 293 377 279 377 c 0
 265 377 254 388 254 402 c 0
 254 416 265 427 279 427 c 0
660 56 m 0
 674 56 685 45 685 31 c 0
 685 17 674 6 660 6 c 0
 646 6 635 17 635 31 c 0
 635 45 646 56 660 56 c 0
658 774 m 0
 672 774 683 763 683 749 c 0
 683 735 672 724 658 724 c 0
 644 724 633 735 633 749 c 0
 633 763 644 774 658 774 c 0
EndSplineSet
EndChar
StartChar: uni0E3F
Encoding: 223 3647 191
OldEncoding: 3647
Width: 842
Flags: W
HStem: 0 94<207 344 438 553> 430 96<207 344 438 482> 834 94<113 344 438 468.308>
VStem: 113 94<0 430 0 834> 344 94<-125 0 94 430 526 834 928 1040> 639 96<671 694> 682 92<242 276>
Fore
344 526 m 5
 344 834 l 5
 207 834 l 5
 207 526 l 5
 344 526 l 5
344 94 m 5
 344 430 l 5
 207 430 l 5
 207 94 l 5
 344 94 l 5
438 430 m 5
 438 94 l 5
 514 94 l 6
 626 94 682 151 682 266 c 4
 682 333 658 378 610 403 c 4
 576 421 523 430 451 430 c 6
 438 430 l 5
438 834 m 5
 438 526 l 5
 461 526 l 6
 509 526 550 538 583 562 c 4
 620 589 639 625 639 672 c 4
 639 780 572 834 438 834 c 5
344 1040 m 5
 438 1040 l 5
 438 928 l 5
 502 928 l 6
 554 928 602 912 647 879 c 4
 706 836 735 774 735 694 c 4
 735 604 691 537 602 492 c 5
 659 463 l 6
 736 425 774 357 774 260 c 4
 774 178 745 111 688 59 c 4
 645 20 600 0 553 0 c 6
 438 0 l 5
 438 -125 l 5
 344 -125 l 5
 344 0 l 5
 113 0 l 5
 113 928 l 5
 344 928 l 5
 344 1040 l 5
EndSplineSet
EndChar
StartChar: uni0E40
Encoding: 224 3648 192
OldEncoding: 3648
Width: 430
Flags: W
HStem: -14 71<228.354 247> 198 72<227.435 247> 767 20G<99 196>
VStem: 99 71<123 131> 99 97<125 787> 313 70<123 131>
Fore
99 787 m 1
 196 787 l 1
 196 263 l 1
 207 268 223 270 244 270 c 0
 287 270 322 257 348 229 c 1
 372 200 383 166 383 127 c 0
 383 88 371 55 346 28 c 0
 320 0 286 -14 242 -14 c 0
 200 -14 167 -2 143 22 c 0
 113 49 99 84 99 125 c 2
 99 787 l 1
242 198 m 0
 220 198 203 192 191 178 c 1
 177 164 170 148 170 129 c 0
 170 110 176 93 189 79 c 0
 203 64 220 57 242 57 c 0
 266 57 284 64 295 79 c 0
 307 93 313 110 313 129 c 0
 313 146 307 162 295 178 c 1
 281 192 263 198 242 198 c 0
EndSplineSet
EndChar
StartChar: uni0E41
Encoding: 225 3649 193
OldEncoding: 3649
Width: 782
Flags: W
HStem: -14 71<207.244 226 577.104 595> 198 72<205.9 226 575.435 595> 767 20G<77 174 449 546>
VStem: 77 71<123 131> 77 97<125 787> 292 70<123 131> 449 70<123 131> 449 97<125 787> 665 69<123 131>
Fore
77 787 m 1
 174 787 l 5
 174 263 l 1
 185 268 201 270 223 270 c 0
 266 270 301 257 327 229 c 1
 350 200 362 166 362 127 c 0
 362 88 350 55 325 28 c 0
 299 0 264 -14 221 -14 c 0
 179 -14 145 -2 121 22 c 0
 92 49 77 84 77 125 c 2
 77 787 l 1
449 787 m 1
 546 787 l 1
 546 263 l 1
 560 268 575 270 593 270 c 0
 636 270 671 257 698 229 c 1
 722 200 734 166 734 127 c 0
 734 90 721 58 695 30 c 0
 670 1 635 -14 590 -14 c 0
 550 -14 518 -2 493 22 c 0
 464 50 449 84 449 125 c 2
 449 787 l 1
590 198 m 0
 568 198 551 192 539 178 c 0
 526 162 519 145 519 129 c 0
 519 111 525 95 537 81 c 0
 551 65 568 57 590 57 c 0
 614 57 633 65 646 81 c 0
 658 95 665 111 665 129 c 0
 665 145 658 162 643 178 c 0
 630 192 612 198 590 198 c 0
221 198 m 0
 198 198 181 192 170 178 c 1
 156 164 148 148 148 129 c 0
 148 110 155 93 168 79 c 0
 181 64 199 57 221 57 c 0
 245 57 263 64 274 79 c 0
 286 93 292 110 292 129 c 0
 292 146 286 162 274 178 c 1
 260 192 242 198 221 198 c 0
EndSplineSet
EndChar
StartChar: uni0E42
Encoding: 226 3650 194
OldEncoding: 3650
Width: 471
Flags: W
HStem: -14 71<295.059 325> 198 72<296.129 325> 1293 81<355 373> 1351 81<153 169>
VStem: 167 71<123 131> 167 97<125 1091> 381 70<123 131>
Fore
167 125 m 2
 167 1066 l 2
 167 1105 163 1136 155 1159 c 1
 146 1177 125 1196 92 1216 c 0
 61 1236 0 1266 -92 1307 c 1
 -72 1331 -41 1357 1 1386 c 0
 46 1417 97 1432 153 1432 c 4
 187 1432 226 1423 268 1404 c 0
 311 1384 342 1374 363 1374 c 0
 387 1374 413 1384 442 1404 c 1
 482 1337 l 1
 444 1308 405 1293 366 1293 c 0
 345 1293 310 1303 259 1323 c 1
 216 1341 181 1351 153 1351 c 0
 131 1351 111 1347 92 1340 c 0
 80 1334 70 1328 61 1320 c 1
 189 1251 l 1
 210 1239 229 1218 244 1189 c 0
 257 1161 264 1122 264 1071 c 2
 264 263 l 1
 275 268 291 270 313 270 c 0
 357 270 391 257 414 229 c 0
 439 202 451 168 451 127 c 0
 451 86 439 53 414 28 c 0
 389 0 355 -14 310 -14 c 0
 270 -14 237 -2 213 22 c 1
 182 48 167 82 167 125 c 2
310 198 m 0
 288 198 271 191 259 178 c 0
 245 162 238 146 238 129 c 0
 238 110 244 94 257 78 c 0
 268 64 286 57 310 57 c 0
 334 57 352 64 363 78 c 0
 375 93 381 110 381 129 c 0
 381 147 375 163 361 178 c 0
 350 191 333 198 310 198 c 0
EndSplineSet
EndChar
StartChar: uni0E43
Encoding: 227 3651 195
OldEncoding: 3651
Width: 474
Flags: W
HStem: -14 71<313 317> 198 72<299 317> 1090 55<11 29> 1256 55<0 21> 1369 68<70 97>
VStem: 72 55<1188.66 1203> 169 71<123 131> 169 97<125 1267> 384 70<123 131>
Fore
169 125 m 6
 169 1256 l 6
 169 1331 140 1369 83 1369 c 4
 53 1369 32 1362 21 1348 c 4
 11 1333 3 1321 0 1311 c 5
 40 1311 71 1300 95 1279 c 4
 116 1258 127 1231 127 1200 c 4
 127 1168 116 1141 95 1119 c 4
 75 1099 50 1090 19 1090 c 4
 -5 1090 -27 1096 -49 1110 c 4
 -69 1120 -82 1140 -90 1168 c 4
 -96 1188 -100 1213 -100 1242 c 4
 -100 1296 -84 1342 -54 1381 c 4
 -23 1418 22 1437 81 1437 c 4
 134 1437 179 1421 215 1390 c 5
 249 1358 266 1313 266 1253 c 6
 266 262 l 5
 277 268 293 270 315 270 c 4
 359 270 393 256 417 228 c 4
 441 201 454 167 454 127 c 4
 454 86 441 53 417 27 c 4
 392 -1 357 -14 313 -14 c 4
 272 -14 240 -2 215 22 c 5
 185 47 169 82 169 125 c 6
17 1256 m 4
 -4 1256 -17 1250 -23 1240 c 5
 -34 1229 -39 1215 -39 1200 c 4
 -39 1184 -34 1171 -23 1161 c 5
 -17 1150 -4 1145 17 1145 c 4
 35 1145 49 1150 58 1161 c 4
 67 1172 72 1185 72 1200 c 4
 72 1215 67 1228 58 1240 c 4
 49 1250 35 1256 17 1256 c 4
313 198 m 4
 290 198 273 191 262 178 c 4
 247 162 240 146 240 129 c 4
 240 110 247 93 259 78 c 4
 271 64 288 57 313 57 c 4
 337 57 354 64 366 78 c 4
 378 93 384 109 384 129 c 4
 384 146 377 163 363 178 c 4
 352 191 335 198 313 198 c 4
EndSplineSet
EndChar
StartChar: uni0E44
Encoding: 228 3652 196
OldEncoding: 3652
Width: 550
Flags: W
HStem: -14 71<389 402> 198 72<384 402> 1344 88<236 252>
VStem: 247 69<123 131> 247 97<125 1335> 460 72<129 131>
DStem: -51 1326 16 1351 25 1041 85 1085 155 1355 226 1333 85 1085 141 1036
Fore
247 125 m 6
 247 1326 l 6
 247 1338 244 1344 238 1344 c 4
 232 1344 228 1340 226 1333 c 6
 141 1036 l 5
 129 997 109 978 82 978 c 4
 55 978 36 999 25 1041 c 6
 -51 1326 l 5
 -62 1358 -76 1377 -95 1383 c 5
 -46 1436 l 5
 -16 1425 4 1397 16 1351 c 5
 85 1085 l 5
 155 1355 l 6
 168 1406 201 1432 252 1432 c 4
 280 1432 303 1423 319 1406 c 5
 336 1390 344 1366 344 1333 c 6
 344 262 l 5
 355 268 371 270 393 270 c 4
 436 270 471 256 497 228 c 5
 520 199 532 166 532 129 c 4
 532 88 520 54 495 27 c 4
 469 -1 434 -14 389 -14 c 4
 348 -14 315 -2 291 22 c 4
 262 49 247 83 247 125 c 6
389 198 m 4
 368 198 351 191 338 178 c 4
 323 161 316 145 316 129 c 4
 316 110 323 94 338 80 c 5
 348 65 365 57 389 57 c 4
 413 57 430 64 442 78 c 4
 454 93 460 109 460 129 c 4
 460 146 454 162 442 178 c 5
 427 191 409 198 389 198 c 4
EndSplineSet
EndChar
StartChar: uni0E45
Encoding: 229 3653 197
OldEncoding: 3653
Width: 650
Flags: W
HStem: 730 72<262 285>
VStem: 434 97<-408 596>
Fore
-4 629 m 5
 26 685 61 728 100 759 c 4
 140 788 194 802 262 802 c 4
 342 802 406 782 456 742 c 4
 506 702 531 646 531 571 c 6
 531 -408 l 5
 434 -408 l 5
 434 575 l 6
 434 626 418 664 387 691 c 4
 356 717 315 730 262 730 c 4
 216 730 177 718 144 693 c 4
 110 668 84 635 67 594 c 5
 32 613 l 5
 -4 629 l 5
EndSplineSet
EndChar
StartChar: uni0E46
Encoding: 230 3654 198
OldEncoding: 3654
Width: 861
Flags: W
HStem: 334 67<364 374> 526 62<364 374>
VStem: 181 84<546 574> 428 62<464 466> 644 97<-64 578>
Fore
563 801 m 5
 601 794 636 779 667 757 c 4
 693 737 712 711 724 678 c 4
 736 650 741 614 741 570 c 6
 741 -44 l 6
 741 -95 733 -140 715 -178 c 4
 699 -214 672 -242 636 -263 c 5
 605 -285 559 -304 496 -319 c 5
 470 -231 l 5
 538 -215 584 -193 609 -166 c 4
 632 -140 644 -96 644 -35 c 6
 644 556 l 6
 644 598 639 632 629 660 c 4
 620 684 597 704 563 720 c 5
 470 662 l 5
 470 662 l 5
 430 683 l 5
 362 720 l 5
 329 707 304 686 287 656 c 4
 272 626 265 590 265 546 c 5
 298 572 l 6
 314 583 336 588 364 588 c 4
 404 588 436 575 459 551 c 4
 480 525 490 496 490 464 c 4
 490 429 480 399 459 373 c 5
 435 347 403 334 364 334 c 4
 325 334 293 345 265 366 c 4
 239 386 217 414 201 449 c 5
 188 484 181 523 181 565 c 4
 181 623 198 673 234 718 c 4
 269 762 312 789 364 801 c 5
 430 766 l 6
 457 753 470 745 470 743 c 5
 563 801 l 5
364 526 m 4
 346 526 332 520 320 508 c 4
 307 493 301 479 301 464 c 4
 301 447 306 433 317 422 c 5
 329 407 344 401 364 401 c 4
 385 401 401 407 412 420 c 4
 423 430 428 445 428 464 c 4
 428 483 423 499 412 510 c 4
 402 520 386 526 364 526 c 4
EndSplineSet
EndChar
StartChar: uni0E47
Encoding: 231 3655 199
OldEncoding: 3655
Width: 0
Flags: W
HStem: 849 55<-229 -217> 967 73<-458 -447.221> 1016 51<-229 -217> 1120 69<-337 -289> 1127 71<-466 -428>
VStem: -666 77<1034 1053> -176 57<959 972>
Fore
-229 849 m 4
 -255 849 -276 854 -291 864 c 4
 -318 881 -339 896 -353 908 c 4
 -376 929 -395 944 -412 953 c 4
 -429 962 -445 967 -458 967 c 4
 -492 965 -516 949 -529 919 c 4
 -542 890 -550 865 -552 844 c 5
 -581 857 -608 884 -631 925 c 4
 -654 965 -666 1004 -666 1043 c 4
 -666 1059 -662 1078 -655 1101 c 4
 -629 1165 -566 1198 -465 1198 c 5
 -402 1195 l 5
 -365 1191 -332 1189 -300 1189 c 4
 -254 1189 -221 1197 -200 1212 c 4
 -179 1227 -169 1254 -169 1295 c 5
 -92 1295 l 5
 -92 1231 -110 1186 -145 1162 c 4
 -182 1134 -240 1120 -319 1120 c 4
 -352 1120 -388 1122 -428 1127 c 5
 -484 1127 -524 1121 -547 1111 c 4
 -575 1099 -589 1078 -589 1047 c 4
 -589 1026 -582 1001 -569 972 c 5
 -566 980 -554 995 -534 1016 c 4
 -517 1032 -492 1040 -458 1040 c 4
 -430 1040 -405 1035 -384 1023 c 4
 -359 1008 -343 997 -335 988 c 5
 -328 1013 -316 1032 -298 1045 c 4
 -279 1060 -256 1067 -229 1067 c 4
 -196 1067 -169 1057 -147 1036 c 5
 -129 1015 -119 989 -119 959 c 4
 -119 928 -129 902 -147 881 c 5
 -169 860 -196 849 -229 849 c 4
-229 904 m 4
 -211 904 -197 910 -189 921 c 4
 -180 932 -176 945 -176 959 c 4
 -176 974 -180 988 -189 999 c 4
 -198 1010 -211 1016 -229 1016 c 4
 -245 1016 -258 1010 -268 999 c 4
 -277 988 -282 974 -282 959 c 4
 -282 947 -277 934 -268 923 c 4
 -258 910 -245 904 -229 904 c 4
EndSplineSet
EndChar
StartChar: uni0E48
Encoding: 232 3656 200
OldEncoding: 3656
Width: 0
Flags: W
VStem: -208 87<1298 1569>
Fore
-208 1298 m 5
 -208 1569 l 5
 -121 1569 l 5
 -121 1298 l 5
 -208 1298 l 5
EndSplineSet
EndChar
StartChar: uni0E49
Encoding: 233 3657 201
OldEncoding: 3657
Width: 0
Flags: W
HStem: 1295 67<-245 -209.621> 1404 53<-307 -288> 1570 60<-307 -296>
VStem: -427 64<1515 1520> -250 70<1502 1520>
Fore
-180 1508 m 4
 -180 1469 -186 1437 -199 1411 c 4
 -212 1385 -224 1369 -233 1362 c 5
 -166 1362 -114 1379 -76 1413 c 4
 -47 1439 -29 1468 -22 1501 c 4
 -13 1535 -9 1575 -9 1621 c 5
 77 1621 l 5
 77 1477 28 1380 -71 1332 c 4
 -119 1307 -177 1295 -245 1295 c 5
 -319 1299 l 5
 -363 1309 l 5
 -353 1315 -340 1324 -323 1336 c 5
 -307 1352 -296 1375 -288 1404 c 5
 -292 1404 -295 1403 -298 1401 c 5
 -319 1399 l 5
 -349 1404 l 5
 -401 1420 -427 1457 -427 1515 c 4
 -427 1538 -422 1558 -411 1573 c 5
 -402 1591 -388 1605 -369 1617 c 4
 -354 1626 -333 1630 -307 1630 c 4
 -265 1630 -234 1618 -215 1593 c 5
 -191 1570 -180 1542 -180 1508 c 4
-307 1570 m 4
 -327 1570 -341 1565 -349 1555 c 4
 -358 1543 -363 1529 -363 1515 c 4
 -363 1500 -358 1487 -349 1476 c 4
 -339 1463 -325 1457 -307 1457 c 4
 -291 1457 -277 1463 -265 1476 c 5
 -255 1484 -250 1497 -250 1515 c 4
 -250 1530 -255 1543 -265 1555 c 4
 -274 1565 -288 1570 -307 1570 c 4
EndSplineSet
EndChar
StartChar: uni0E4A
Encoding: 234 3658 202
OldEncoding: 3658
Width: 0
Flags: W
HStem: 1288 42<-398 -385.145> 1432 42<-409.353 -385> 1531 62<-400 -379 -245 -229>
VStem: -524 75<1381 1452> -347 42<1374 1385> -186 63<1438 1461> -42 68<1513 1540>
Fore
-398 1288 m 4
 -425 1290 -447 1299 -465 1313 c 4
 -485 1329 -500 1350 -509 1376 c 4
 -519 1403 -524 1429 -524 1452 c 4
 -521 1493 -508 1527 -486 1554 c 4
 -464 1580 -435 1593 -398 1593 c 4
 -382 1593 -368 1591 -354 1587 c 5
 -324 1568 l 5
 -310 1554 l 5
 -306 1559 -297 1568 -283 1580 c 5
 -269 1589 -251 1593 -229 1593 c 4
 -191 1593 -164 1580 -148 1554 c 4
 -131 1528 -123 1494 -123 1452 c 4
 -123 1420 -132 1387 -151 1353 c 5
 -133 1361 -120 1369 -111 1376 c 5
 -93 1388 -79 1402 -69 1419 c 4
 -51 1450 -42 1482 -42 1514 c 4
 -42 1533 -44 1553 -49 1575 c 5
 19 1598 l 5
 23 1584 26 1565 26 1540 c 4
 26 1478 10 1425 -21 1381 c 4
 -59 1324 -136 1295 -252 1295 c 5
 -211 1353 l 5
 -196 1378 -188 1407 -186 1438 c 4
 -186 1466 -189 1488 -197 1505 c 4
 -204 1522 -219 1531 -243 1531 c 4
 -258 1531 -272 1525 -283 1514 c 4
 -296 1501 -303 1492 -305 1487 c 5
 -307 1493 -316 1502 -331 1514 c 4
 -344 1525 -362 1531 -387 1531 c 4
 -405 1531 -420 1525 -433 1512 c 5
 -444 1499 -449 1481 -449 1459 c 5
 -431 1468 l 5
 -417 1472 -406 1474 -398 1474 c 4
 -371 1474 -349 1465 -331 1448 c 4
 -314 1429 -305 1405 -305 1376 c 4
 -305 1354 -315 1334 -334 1315 c 4
 -352 1297 -373 1288 -398 1288 c 4
-398 1432 m 4
 -417 1432 -429 1426 -435 1415 c 5
 -444 1403 -449 1392 -449 1381 c 4
 -449 1367 -444 1355 -435 1346 c 5
 -429 1335 -417 1330 -398 1330 c 4
 -380 1330 -367 1335 -359 1346 c 4
 -351 1353 -347 1365 -347 1381 c 4
 -347 1392 -351 1404 -359 1417 c 5
 -368 1427 -381 1432 -398 1432 c 4
EndSplineSet
EndChar
StartChar: uni0E4B
Encoding: 235 3659 203
OldEncoding: 3659
Width: 0
Flags: W
HStem: 1422 79<-357 -213 -126 18>
VStem: -213 87<1309 1422 1501 1617>
Fore
-213 1422 m 5
 -357 1422 l 5
 -357 1501 l 5
 -213 1501 l 5
 -213 1617 l 5
 -126 1617 l 5
 -126 1501 l 5
 18 1501 l 5
 18 1422 l 5
 -126 1422 l 5
 -126 1309 l 5
 -213 1309 l 5
 -213 1422 l 5
EndSplineSet
EndChar
StartChar: uni0E4C
Encoding: 236 3660 204
OldEncoding: 3660
Width: 0
Flags: W
HStem: 1237 62<-186 -176.389>
VStem: -334 99<1348 1378> -135 55<1343 1350>
Fore
-269 1403 m 5
 -266 1411 -258 1422 -246 1434 c 4
 -234 1443 -214 1449 -186 1452 c 5
 -153 1449 -127 1439 -108 1420 c 4
 -89 1399 -80 1374 -80 1345 c 4
 -80 1316 -89 1292 -108 1272 c 5
 -127 1249 -153 1237 -186 1237 c 4
 -231 1235 -267 1248 -294 1277 c 5
 -321 1301 -334 1335 -334 1378 c 4
 -334 1413 -326 1444 -311 1471 c 5
 -292 1500 -269 1519 -243 1531 c 4
 -209 1544 -169 1551 -121 1553 c 4
 -74 1556 -36 1562 -7 1573 c 4
 15 1579 27 1601 27 1637 c 5
 97 1637 l 5
 97 1605 87 1578 69 1556 c 4
 53 1536 33 1523 9 1515 c 5
 -18 1503 -58 1496 -110 1494 c 4
 -155 1491 -192 1485 -221 1475 c 5
 -246 1463 -263 1439 -269 1403 c 5
-186 1396 m 4
 -218 1396 -235 1380 -235 1348 c 4
 -235 1336 -230 1326 -221 1315 c 5
 -215 1304 -203 1299 -186 1299 c 4
 -174 1299 -161 1304 -148 1313 c 5
 -139 1325 -135 1336 -135 1348 c 4
 -135 1362 -139 1374 -148 1383 c 4
 -158 1392 -171 1396 -186 1396 c 4
EndSplineSet
EndChar
StartChar: uni0E4D
Encoding: 237 3661 205
OldEncoding: 3661
Width: 0
Flags: W
HStem: 909 66<-219 -217> 1129 64<-233.66 -216>
VStem: -362 64<1038.22 1055> -141 63<1038.59 1055>
Fore
-219 909 m 4
 -263 909 -298 923 -323 953 c 0
 -349 981 -362 1014 -362 1052 c 0
 -362 1089 -349 1121 -323 1149 c 1
 -299 1179 -264 1193 -219 1193 c 0
 -175 1193 -141 1179 -115 1152 c 0
 -90 1126 -78 1093 -78 1052 c 0
 -78 1011 -90 978 -115 950 c 4
 -141 923 -176 909 -219 909 c 4
-219 1129 m 0
 -244 1129 -264 1121 -276 1105 c 0
 -291 1090 -298 1072 -298 1052 c 0
 -298 1030 -291 1012 -276 997 c 0
 -264 982 -244 975 -219 975 c 0
 -193 975 -174 982 -161 997 c 0
 -148 1013 -141 1031 -141 1052 c 0
 -141 1066 -144 1077 -150 1087 c 0
 -159 1102 -168 1112 -177 1118 c 0
 -191 1125 -205 1129 -219 1129 c 0
EndSplineSet
EndChar
StartChar: uni0E4E
Encoding: 238 3662 206
OldEncoding: 3662
Width: 0
Flags: W
HStem: 848 48<-384 -354> 1076 79<-352 -331> 1215 70<-150 -113>
VStem: -515 92<975 987>
Fore
-14 1160 m 2
 -16 1162 l 2
 -25 1173 -37 1184 -51 1196 c 0
 -65 1209 -85 1215 -113 1215 c 2
 -125 1215 l 2
 -143 1214 -160 1207 -175 1192 c 0
 -190 1180 -202 1162 -210 1139 c 1
 -215 1113 l 1
 -215 1101 -213 1090 -209 1081 c 2
 -197 1051 l 1
 -192 1040 l 1
 -190 1028 l 1
 -190 1023 -192 1019 -197 1016 c 1
 -210 1012 l 1
 -220 1012 -226 1015 -228 1023 c 1
 -245 1049 -260 1064 -274 1068 c 0
 -287 1073 -306 1076 -331 1076 c 0
 -349 1076 -368 1069 -387 1056 c 0
 -405 1042 -416 1025 -421 1005 c 1
 -423 979 l 1
 -423 957 -418 939 -408 924 c 0
 -397 908 -382 899 -363 896 c 2
 -354 896 l 2
 -338 896 -323 900 -308 908 c 0
 -292 915 -281 924 -275 934 c 1
 -285 890 l 1
 -308 862 -341 848 -384 848 c 1
 -421 852 l 1
 -452 861 -476 879 -492 904 c 0
 -508 929 -515 957 -515 987 c 0
 -515 1015 -510 1040 -500 1060 c 0
 -484 1091 -463 1115 -436 1131 c 0
 -409 1147 -381 1155 -352 1155 c 0
 -322 1155 -294 1147 -268 1130 c 1
 -270 1157 l 1
 -270 1170 -269 1183 -267 1195 c 0
 -265 1208 -260 1221 -252 1232 c 0
 -244 1247 -229 1260 -207 1272 c 0
 -187 1281 -168 1285 -150 1285 c 0
 -120 1285 -93 1279 -68 1267 c 0
 -41 1255 -21 1238 -7 1215 c 1
 7 1189 l 2
 12 1179 14 1170 14 1162 c 0
 14 1154 11 1151 4 1151 c 0
 -3 1151 -9 1154 -14 1160 c 2
EndSplineSet
EndChar
StartChar: uni0E4F
Encoding: 239 3663 207
OldEncoding: 3663
Width: 741
Flags: W
HStem: 1 77<348 374> 173 77<348 358> 539 75<348 348 348.063 367.418> 709 78<348 374>
VStem: -43 77<394 418> 129 79<394 402> 488 80<394 402> 665 76<394 418>
Fore
348 539 m 1
 271 539 208 474 208 394 c 0
 208 315 271 250 348 250 c 0
 425 250 488 315 488 394 c 1
 488 474 425 541 348 539 c 1
348 1 m 0
 227 1 131 40 61 118 c 0
 -8 198 -43 290 -43 394 c 0
 -43 502 -9 594 59 672 c 0
 126 749 223 787 348 787 c 0
 431 787 503 769 564 732 c 1
 624 693 668 644 697 586 c 0
 726 527 741 463 741 394 c 0
 741 324 726 260 697 202 c 0
 668 144 624 95 564 56 c 1
 503 19 431 1 348 1 c 0
348 709 m 0
 250 709 173 678 116 617 c 0
 61 554 34 480 34 394 c 0
 34 341 45 290 68 241 c 0
 91 193 128 154 177 124 c 1
 224 93 281 78 348 78 c 0
 415 78 473 93 522 124 c 0
 568 152 604 190 630 239 c 1
 654 290 665 341 665 394 c 0
 665 445 654 496 630 547 c 1
 603 597 567 637 522 665 c 0
 474 695 416 709 348 709 c 0
348 173 m 0
 303 173 263 183 228 204 c 0
 193 227 169 255 154 288 c 0
 137 322 129 358 129 394 c 0
 129 429 137 465 154 500 c 0
 168 533 193 560 228 582 c 0
 264 603 304 614 348 614 c 0
 393 614 433 603 469 582 c 0
 503 561 527 534 542 500 c 0
 560 466 568 430 568 394 c 0
 568 335 549 284 511 239 c 0
 471 195 416 173 348 173 c 0
EndSplineSet
EndChar
StartChar: uni0E50
Encoding: 240 3664 208
OldEncoding: 3664
Width: 770
Flags: W
HStem: -6 90<362 383> 482 90<362 383>
VStem: 30 104<283 299> 591 104<283 299>
Fore
362 -6 m 0
 257 -6 175 23 117 82 c 0
 59 140 30 207 30 283 c 0
 30 332 43 379 68 424 c 0
 95 469 133 505 182 533 c 1
 233 559 293 572 362 572 c 4
 431 572 492 559 543 533 c 0
 595 504 634 468 659 424 c 0
 683 381 695 334 695 283 c 0
 695 234 682 187 657 142 c 0
 630 97 592 62 543 36 c 0
 491 8 430 -6 362 -6 c 0
362 482 m 0
 288 482 232 463 194 424 c 0
 154 384 134 337 134 283 c 0
 134 230 154 184 194 144 c 0
 233 104 290 84 362 84 c 0
 435 84 492 104 531 144 c 0
 571 184 591 230 591 283 c 0
 591 337 571 384 531 424 c 0
 493 463 437 482 362 482 c 0
EndSplineSet
EndChar
StartChar: uni0E51
Encoding: 241 3665 209
OldEncoding: 3665
Width: 769
Flags: W
HStem: 20 85<263 296> 128 64<348.736 359.969> 318 62<347.75 363> 486 86<360 376>
VStem: 222 76<239 258> 423 88<230 256> 622 90<239 264>
Fore
130 274 m 4
 130 228 144 189 174 156 c 4
 203 122 239 105 280 105 c 4
 306 105 333 112 360 128 c 5
 339 128 312 135 278 148 c 5
 243 165 225 195 222 239 c 4
 222 282 236 316 263 340 c 4
 289 367 322 380 360 380 c 4
 411 380 449 366 474 338 c 4
 499 311 511 275 511 230 c 4
 511 190 501 154 481 121 c 4
 463 90 437 65 402 47 c 4
 368 29 330 20 289 20 c 4
 216 20 157 42 113 86 c 4
 66 133 42 195 39 274 c 4
 37 327 52 377 86 424 c 5
 116 473 155 509 201 533 c 4
 250 559 303 572 360 572 c 4
 468 570 554 539 618 479 c 4
 681 418 712 338 712 239 c 4
 712 171 699 114 671 68 c 4
 641 20 598 -27 543 -73 c 5
 486 -25 l 5
 577 52 622 139 622 239 c 4
 622 310 600 369 556 417 c 5
 510 463 445 486 360 486 c 4
 295 486 241 466 196 426 c 4
 154 386 132 336 130 274 c 4
360 318 m 4
 342 318 327 312 315 300 c 4
 304 288 298 274 298 256 c 4
 298 238 304 224 315 214 c 5
 326 200 341 192 360 192 c 4
 380 192 395 200 407 214 c 5
 418 224 423 238 423 256 c 4
 423 274 418 288 407 300 c 4
 394 312 379 318 360 318 c 4
EndSplineSet
EndChar
StartChar: uni0E52
Encoding: 242 3666 210
OldEncoding: 3666
Width: 947
Flags: W
HStem: -2 88<309 663> 162 68<384 391> 364 69<384 391> 486 81<421 438> 486 86<677 697>
VStem: 64 98<221 655> 224 93<296 327> 452 67<285 303> 754 97<181 399>
Fore
224 327 m 0
 224 375 234 417 252 453 c 0
 271 491 296 519 326 537 c 0
 357 557 391 567 428 567 c 0
 468 567 499 559 523 541 c 0
 548 522 562 508 567 499 c 1
 569 514 581 528 602 543 c 1
 620 562 652 572 697 572 c 4
 749 572 787 555 812 521 c 0
 838 485 851 449 851 412 c 2
 851 181 l 2
 851 117 837 71 808 42 c 0
 778 12 725 -2 648 -2 c 2
 326 -2 l 2
 229 -2 161 17 123 55 c 0
 84 95 64 157 64 243 c 2
 64 634 l 2
 64 668 60 697 53 722 c 0
 46 745 30 762 6 771 c 1
 88 837 l 1
 137 807 162 756 162 682 c 2
 162 238 l 2
 162 187 174 150 198 125 c 0
 223 99 264 86 322 86 c 2
 648 86 l 2
 690 86 718 93 733 108 c 0
 747 123 754 147 754 181 c 2
 754 384 l 2
 754 452 730 486 682 486 c 0
 649 486 624 473 606 449 c 1
 591 430 577 409 567 384 c 1
 565 391 557 403 545 419 c 0
 536 430 520 445 497 463 c 0
 477 478 456 486 432 486 c 0
 406 486 384 479 366 466 c 1
 345 447 332 430 326 412 c 1
 328 416 334 421 344 426 c 0
 353 430 366 433 384 433 c 0
 411 433 436 427 458 415 c 0
 476 404 491 388 505 366 c 1
 514 345 519 322 519 298 c 0
 519 259 507 227 483 201 c 0
 459 175 426 162 384 162 c 0
 339 162 302 177 271 208 c 0
 240 239 224 278 224 327 c 0
384 364 m 0
 364 364 348 357 335 345 c 0
 323 333 317 316 317 296 c 0
 317 281 323 266 335 250 c 0
 347 236 363 230 384 230 c 0
 405 230 421 236 432 250 c 0
 445 263 452 278 452 296 c 0
 452 315 446 331 435 345 c 0
 422 357 405 364 384 364 c 0
EndSplineSet
EndChar
StartChar: uni0E53
Encoding: 243 3667 211
OldEncoding: 3667
Width: 909
Flags: W
HStem: -9 86<199 218> 0 21G<408 510 660 766> 212 72<197 218> 501 86<256 280 607 609>
VStem: 33 99<261 309> 278 76<134 152> 408 102<0 360> 724 97<241 311>
Fore
269 501 m 4
 215 501 179 479 159 435 c 4
 141 389 132 331 132 261 c 5
 159 275 l 6
 172 281 191 284 216 284 c 4
 259 284 294 271 320 243 c 5
 342 215 354 182 354 143 c 4
 354 102 340 66 313 37 c 4
 286 6 248 -9 199 -9 c 4
 141 -12 100 14 74 69 c 5
 47 122 33 202 33 309 c 4
 33 359 42 405 60 446 c 4
 80 490 107 524 141 548 c 4
 177 574 218 587 264 587 c 4
 323 587 367 573 395 543 c 4
 424 515 443 490 452 468 c 5
 452 478 465 501 493 536 c 4
 517 570 555 587 607 587 c 4
 680 587 735 558 771 499 c 4
 807 437 823 360 821 266 c 4
 819 154 801 65 766 0 c 5
 660 0 l 5
 679 22 695 59 706 110 c 4
 718 167 724 223 724 280 c 4
 724 346 715 399 697 439 c 4
 678 481 648 501 607 501 c 4
 542 501 510 450 510 347 c 6
 510 0 l 5
 408 0 l 5
 408 347 l 6
 408 389 396 425 373 455 c 5
 346 486 312 501 269 501 c 4
211 212 m 4
 190 212 174 205 163 192 c 5
 150 181 143 165 143 145 c 4
 143 127 150 111 163 97 c 4
 176 83 192 77 211 77 c 4
 232 77 249 83 262 97 c 4
 273 107 278 124 278 145 c 4
 278 164 273 179 262 192 c 4
 249 205 232 212 211 212 c 4
EndSplineSet
EndChar
StartChar: uni0E54
Encoding: 244 3668 212
OldEncoding: 3668
Width: 903
Flags: W
HStem: -5 93<325 371> 97 120<427 468> 342 72<427 429> 467 84<568 607>
VStem: 27 99<273 291> 276 86<280 291> 489 77<280 291>
Fore
468 97 m 1
 459 97 426 113 369 145 c 1
 307 178 276 222 276 280 c 0
 276 316 291 347 320 375 c 0
 349 401 384 414 427 414 c 0
 470 414 504 401 528 375 c 0
 553 347 566 316 566 280 c 0
 566 246 557 220 540 203 c 0
 525 188 512 179 499 173 c 1
 533 147 567 132 601 127 c 2
 705 112 l 2
 738 108 777 92 822 66 c 1
 784 -14 l 1
 751 12 695 25 614 25 c 0
 578 25 535 20 484 8 c 1
 431 -1 378 -5 325 -5 c 4
 273 -5 224 6 179 28 c 0
 132 48 95 80 68 125 c 0
 40 168 27 223 27 289 c 0
 27 341 42 388 73 430 c 0
 103 473 144 505 195 527 c 1
 245 552 306 564 378 564 c 1
 450 560 l 1
 501 554 541 551 568 551 c 0
 628 551 675 561 709 580 c 0
 744 601 769 636 786 684 c 0
 802 732 813 802 820 893 c 1
 921 879 l 1
 921 830 912 770 892 697 c 0
 870 618 834 559 784 520 c 1
 735 485 676 467 607 467 c 0
 588 467 558 469 519 474 c 1
 411 478 l 2
 337 481 270 465 210 430 c 0
 154 398 126 346 126 275 c 0
 126 150 203 88 358 88 c 0
 401 88 437 91 468 97 c 1
427 342 m 0
 406 342 390 336 378 324 c 0
 367 313 362 298 362 280 c 0
 362 263 367 248 378 236 c 0
 390 223 406 217 427 217 c 0
 445 217 461 223 473 236 c 0
 483 246 489 261 489 280 c 0
 489 300 483 315 473 326 c 0
 462 336 447 342 427 342 c 0
EndSplineSet
EndChar
StartChar: uni0E55
Encoding: 245 3669 213
OldEncoding: 3669
Width: 903
Flags: W
HStem: -5 93<325 371> 97 120<427 468> 342 72<427 433> 476 95<411 429> 697 78<425 431>
VStem: 27 99<273 291> 276 86<280 291> 290 77<625 642> 489 77<280 291> 491 79<625 642>
Fore
570 640 m 0
 570 615 568 596 563 582 c 1
 547 553 l 1
 605 553 654 561 693 578 c 0
 730 594 759 628 780 677 c 0
 802 729 815 801 820 893 c 1
 921 879 l 1
 921 830 912 770 892 697 c 0
 870 618 834 559 784 520 c 0
 735 483 676 465 605 465 c 1
 524 472 l 1
 411 476 l 1
 363 476 316 470 269 458 c 1
 224 443 189 421 166 393 c 0
 139 362 126 323 126 275 c 0
 126 150 203 88 358 88 c 0
 401 88 437 91 468 97 c 1
 459 97 426 113 369 145 c 1
 307 178 276 222 276 280 c 0
 276 316 291 347 320 375 c 0
 349 401 384 414 427 414 c 0
 470 414 504 401 528 375 c 0
 553 347 566 316 566 280 c 0
 566 246 557 220 540 203 c 0
 525 188 512 179 499 173 c 1
 533 147 567 132 601 127 c 2
 705 112 l 2
 738 108 777 92 822 66 c 1
 784 -14 l 1
 751 12 695 25 614 25 c 0
 578 25 535 20 484 8 c 1
 431 -1 378 -5 325 -5 c 4
 273 -5 224 6 179 28 c 0
 132 48 95 80 68 125 c 0
 40 168 27 223 27 289 c 0
 27 344 42 392 73 432 c 0
 103 473 139 503 181 523 c 0
 226 543 269 555 311 560 c 1
 297 591 l 1
 292 608 290 624 290 640 c 0
 290 678 303 711 329 737 c 0
 356 762 390 775 431 775 c 0
 476 773 510 759 533 735 c 1
 558 711 570 679 570 640 c 0
429 697 m 0
 411 697 395 690 382 677 c 0
 372 667 367 652 367 633 c 0
 367 617 372 603 382 589 c 1
 395 577 410 571 429 571 c 0
 442 571 454 574 464 580 c 1
 484 604 l 1
 489 613 491 623 491 633 c 0
 491 654 486 669 475 680 c 0
 464 691 448 697 429 697 c 0
427 342 m 0
 406 342 390 336 378 324 c 0
 367 313 362 298 362 280 c 0
 362 263 367 248 378 236 c 0
 390 223 406 217 427 217 c 0
 445 217 461 223 473 236 c 0
 483 246 489 261 489 280 c 0
 489 300 483 315 473 326 c 0
 462 336 447 342 427 342 c 0
EndSplineSet
EndChar
StartChar: uni0E56
Encoding: 246 3670 214
OldEncoding: 3670
Width: 697
Flags: W
HStem: -13 97<315 348.297> 248 77<226 231> 497 97<306 364>
VStem: 85 78<178 196> 288 80<178 196> 538 102<299 308>
Fore
325 84 m 1
 370 84 409 94 440 113 c 0
 474 133 499 158 515 190 c 0
 530 221 538 257 538 299 c 0
 538 339 528 374 509 402 c 1
 494 433 468 456 431 473 c 0
 395 489 353 497 306 497 c 1
 268 491 231 479 195 464 c 1
 118 419 l 1
 116 452 112 486 105 523 c 0
 100 548 90 586 74 639 c 0
 62 681 49 720 34 755 c 1
 8 806 -7 835 -10 841 c 1
 65 879 l 1
 83 858 105 809 131 734 c 0
 152 670 170 611 186 556 c 1
 257 582 316 594 364 594 c 0
 420 594 469 582 512 556 c 0
 554 530 586 494 607 449 c 0
 628 404 640 354 640 299 c 0
 640 225 623 165 591 119 c 0
 559 72 518 38 469 16 c 0
 422 -4 371 -13 315 -13 c 4
 281 -13 246 -5 209 12 c 0
 175 28 146 52 121 84 c 0
 97 112 85 147 85 188 c 0
 85 227 98 259 125 285 c 0
 154 311 187 325 226 325 c 0
 270 325 306 311 332 285 c 1
 356 258 368 224 368 183 c 0
 368 154 363 131 352 115 c 0
 345 105 336 94 325 84 c 1
226 248 m 0
 208 248 194 242 182 230 c 0
 169 215 163 201 163 186 c 0
 163 167 168 152 179 141 c 1
 191 128 206 121 226 121 c 0
 245 121 260 128 271 141 c 1
 282 152 288 167 288 186 c 0
 288 203 282 218 271 230 c 0
 259 242 244 248 226 248 c 0
EndSplineSet
EndChar
